solid OpenSCAD_Model
  facet normal -1 0 0
    outer loop
      vertex -36.5 25 2
      vertex -36.5 29 -13
      vertex -36.5 25 -3
    endloop
  endfacet
  facet normal -1 0 0
    outer loop
      vertex -36.5 29 -13
      vertex -36.5 -25 -3
      vertex -36.5 25 -3
    endloop
  endfacet
  facet normal -1 -0 0
    outer loop
      vertex -36.5 -25 -3
      vertex -36.5 -29 -13
      vertex -36.5 -25 2
    endloop
  endfacet
  facet normal -1 0 0
    outer loop
      vertex -36.5 -29 -13
      vertex -36.5 -25 -3
      vertex -36.5 29 -13
    endloop
  endfacet
  facet normal -1 0 0
    outer loop
      vertex -36.5 29 -13
      vertex -36.5 25 2
      vertex -36.5 29 23
    endloop
  endfacet
  facet normal -1 0 0
    outer loop
      vertex -36.5 25 2
      vertex -36.5 16.4108 23
      vertex -36.5 29 23
    endloop
  endfacet
  facet normal -1 0 0
    outer loop
      vertex -36.5 25 2
      vertex -36.5 13.0782 19.9994
      vertex -36.5 16.4108 23
    endloop
  endfacet
  facet normal -1 0 0
    outer loop
      vertex -36.5 25 2
      vertex -36.5 9.04989 17.6736
      vertex -36.5 13.0782 19.9994
    endloop
  endfacet
  facet normal -1 0 0
    outer loop
      vertex -36.5 25 2
      vertex -36.5 4.62603 16.2362
      vertex -36.5 9.04989 17.6736
    endloop
  endfacet
  facet normal -1 0 0
    outer loop
      vertex -36.5 25 2
      vertex -36.5 0 15.75
      vertex -36.5 4.62603 16.2362
    endloop
  endfacet
  facet normal -1 0 0
    outer loop
      vertex -36.5 -25 2
      vertex -36.5 0 15.75
      vertex -36.5 25 2
    endloop
  endfacet
  facet normal -1 -0 0
    outer loop
      vertex -36.5 0 15.75
      vertex -36.5 -25 2
      vertex -36.5 -4.62603 16.2362
    endloop
  endfacet
  facet normal -1 -0 0
    outer loop
      vertex -36.5 -4.62603 16.2362
      vertex -36.5 -25 2
      vertex -36.5 -9.04989 17.6736
    endloop
  endfacet
  facet normal -1 0 0
    outer loop
      vertex -36.5 -25 2
      vertex -36.5 -13.0782 19.9994
      vertex -36.5 -9.04989 17.6736
    endloop
  endfacet
  facet normal -1 0 0
    outer loop
      vertex -36.5 -25 2
      vertex -36.5 -16.4108 23
      vertex -36.5 -13.0782 19.9994
    endloop
  endfacet
  facet normal -1 0 0
    outer loop
      vertex -36.5 -25 2
      vertex -36.5 -29 23
      vertex -36.5 -16.4108 23
    endloop
  endfacet
  facet normal -1 0 0
    outer loop
      vertex -36.5 -29 23
      vertex -36.5 -25 2
      vertex -36.5 -29 -13
    endloop
  endfacet
  facet normal 0 0 -1
    outer loop
      vertex -25 7.53935 13
      vertex -26.8934 20.7323 13
      vertex -26.25 22.5 13
    endloop
  endfacet
  facet normal 0 0 -1
    outer loop
      vertex -25 7.53935 13
      vertex -28.5225 19.7918 13
      vertex -26.8934 20.7323 13
    endloop
  endfacet
  facet normal 0 0 -1
    outer loop
      vertex -35 7.53935 13
      vertex -28.5225 19.7918 13
      vertex -25 7.53935 13
    endloop
  endfacet
  facet normal -0 0 -1
    outer loop
      vertex -28.5225 19.7918 13
      vertex -35 7.53935 13
      vertex -30.375 20.1184 13
    endloop
  endfacet
  facet normal 0 0 -1
    outer loop
      vertex -35 27.5 13
      vertex -31.5842 21.5594 13
      vertex -35 7.53935 13
    endloop
  endfacet
  facet normal -0 0 -1
    outer loop
      vertex -30.375 20.1184 13
      vertex -35 7.53935 13
      vertex -31.5842 21.5594 13
    endloop
  endfacet
  facet normal 0 0 -1
    outer loop
      vertex 35 -27.5 13
      vertex 33.75 -22.5 13
      vertex 35 -7.53935 13
    endloop
  endfacet
  facet normal 0 0 -1
    outer loop
      vertex 35 -27.5 13
      vertex 33.1066 -24.2677 13
      vertex 33.75 -22.5 13
    endloop
  endfacet
  facet normal 0 0 -1
    outer loop
      vertex 35 -27.5 13
      vertex 31.4775 -25.2082 13
      vertex 33.1066 -24.2677 13
    endloop
  endfacet
  facet normal 0 0 -1
    outer loop
      vertex 35 -27.5 13
      vertex 29.625 -24.8816 13
      vertex 31.4775 -25.2082 13
    endloop
  endfacet
  facet normal 0 0 -1
    outer loop
      vertex -26.25 -22.5 13
      vertex 28.4158 -21.5594 13
      vertex 28.4158 -23.4406 13
    endloop
  endfacet
  facet normal 0 0 -1
    outer loop
      vertex 25 -7.53935 13
      vertex -25 -7.53935 13
      vertex 25 7.53935 13
    endloop
  endfacet
  facet normal -0 0 -1
    outer loop
      vertex 28.4158 -21.5594 13
      vertex -26.25 -22.5 13
      vertex 25 -7.53935 13
    endloop
  endfacet
  facet normal 0 0 -1
    outer loop
      vertex -26.8934 -24.2677 13
      vertex 28.4158 -23.4406 13
      vertex 29.625 -24.8816 13
    endloop
  endfacet
  facet normal 0 0 -1
    outer loop
      vertex -28.5225 -25.2082 13
      vertex 29.625 -24.8816 13
      vertex 35 -27.5 13
    endloop
  endfacet
  facet normal -0 0 -1
    outer loop
      vertex 25 -7.53935 13
      vertex -26.25 -22.5 13
      vertex -25 -7.53935 13
    endloop
  endfacet
  facet normal -0 0 -1
    outer loop
      vertex 28.4158 -23.4406 13
      vertex -26.8934 -24.2677 13
      vertex -26.25 -22.5 13
    endloop
  endfacet
  facet normal -0 0 -1
    outer loop
      vertex 29.625 -24.8816 13
      vertex -28.5225 -25.2082 13
      vertex -26.8934 -24.2677 13
    endloop
  endfacet
  facet normal -0 0 -1
    outer loop
      vertex -31.5842 -23.4406 13
      vertex -35 -27.5 13
      vertex -31.5842 -21.5594 13
    endloop
  endfacet
  facet normal -0 0 -1
    outer loop
      vertex -30.375 -24.8816 13
      vertex -35 -27.5 13
      vertex -31.5842 -23.4406 13
    endloop
  endfacet
  facet normal -0 0 -1
    outer loop
      vertex -28.5225 -25.2082 13
      vertex -35 -27.5 13
      vertex -30.375 -24.8816 13
    endloop
  endfacet
  facet normal 0 0 -1
    outer loop
      vertex -35 -27.5 13
      vertex -28.5225 -25.2082 13
      vertex 35 -27.5 13
    endloop
  endfacet
  facet normal 0 0 -1
    outer loop
      vertex 33.1066 -20.7323 13
      vertex 35 -7.53935 13
      vertex 33.75 -22.5 13
    endloop
  endfacet
  facet normal 0 0 -1
    outer loop
      vertex 31.4775 -19.7918 13
      vertex 35 -7.53935 13
      vertex 33.1066 -20.7323 13
    endloop
  endfacet
  facet normal 0 0 -1
    outer loop
      vertex 25 -7.53935 13
      vertex 31.4775 -19.7918 13
      vertex 29.625 -20.1184 13
    endloop
  endfacet
  facet normal 0 0 -1
    outer loop
      vertex 25 -7.53935 13
      vertex 29.625 -20.1184 13
      vertex 28.4158 -21.5594 13
    endloop
  endfacet
  facet normal 0 0 -1
    outer loop
      vertex 31.4775 -19.7918 13
      vertex 25 -7.53935 13
      vertex 35 -7.53935 13
    endloop
  endfacet
  facet normal 0 0 -1
    outer loop
      vertex -26.8934 -20.7323 13
      vertex -25 -7.53935 13
      vertex -26.25 -22.5 13
    endloop
  endfacet
  facet normal 0 0 -1
    outer loop
      vertex -28.5225 -19.7918 13
      vertex -25 -7.53935 13
      vertex -26.8934 -20.7323 13
    endloop
  endfacet
  facet normal 0 0 -1
    outer loop
      vertex -35 -7.53935 13
      vertex -28.5225 -19.7918 13
      vertex -30.375 -20.1184 13
    endloop
  endfacet
  facet normal 0 0 -1
    outer loop
      vertex -35 -7.53935 13
      vertex -30.375 -20.1184 13
      vertex -31.5842 -21.5594 13
    endloop
  endfacet
  facet normal 0 0 -1
    outer loop
      vertex -35 -7.53935 13
      vertex -31.5842 -21.5594 13
      vertex -35 -27.5 13
    endloop
  endfacet
  facet normal 0 0 -1
    outer loop
      vertex -28.5225 -19.7918 13
      vertex -35 -7.53935 13
      vertex -25 -7.53935 13
    endloop
  endfacet
  facet normal 0 0 -1
    outer loop
      vertex 35 7.53935 13
      vertex 33.75 22.5 13
      vertex 35 27.5 13
    endloop
  endfacet
  facet normal 0 0 -1
    outer loop
      vertex 35 7.53935 13
      vertex 33.1066 20.7323 13
      vertex 33.75 22.5 13
    endloop
  endfacet
  facet normal 0 0 -1
    outer loop
      vertex 35 7.53935 13
      vertex 31.4775 19.7918 13
      vertex 33.1066 20.7323 13
    endloop
  endfacet
  facet normal 0 0 -1
    outer loop
      vertex 25 7.53935 13
      vertex 31.4775 19.7918 13
      vertex 35 7.53935 13
    endloop
  endfacet
  facet normal -0 0 -1
    outer loop
      vertex 31.4775 19.7918 13
      vertex 25 7.53935 13
      vertex 29.625 20.1184 13
    endloop
  endfacet
  facet normal 0 0 -1
    outer loop
      vertex -26.25 22.5 13
      vertex 28.4158 21.5594 13
      vertex 25 7.53935 13
    endloop
  endfacet
  facet normal -0 0 -1
    outer loop
      vertex 29.625 20.1184 13
      vertex 25 7.53935 13
      vertex 28.4158 21.5594 13
    endloop
  endfacet
  facet normal 0 0 -1
    outer loop
      vertex 33.1066 24.2677 13
      vertex 35 27.5 13
      vertex 33.75 22.5 13
    endloop
  endfacet
  facet normal 0 0 -1
    outer loop
      vertex 31.4775 25.2082 13
      vertex 35 27.5 13
      vertex 33.1066 24.2677 13
    endloop
  endfacet
  facet normal 0 0 -1
    outer loop
      vertex 29.625 24.8816 13
      vertex 35 27.5 13
      vertex 31.4775 25.2082 13
    endloop
  endfacet
  facet normal 0 0 -1
    outer loop
      vertex -25 7.53935 13
      vertex 25 7.53935 13
      vertex -25 -7.53935 13
    endloop
  endfacet
  facet normal 0 0 -1
    outer loop
      vertex -26.25 22.5 13
      vertex 25 7.53935 13
      vertex -25 7.53935 13
    endloop
  endfacet
  facet normal 0 0 -1
    outer loop
      vertex 28.4158 21.5594 13
      vertex -26.25 22.5 13
      vertex 28.4158 23.4406 13
    endloop
  endfacet
  facet normal 0 0 -1
    outer loop
      vertex -26.8934 24.2677 13
      vertex 28.4158 23.4406 13
      vertex -26.25 22.5 13
    endloop
  endfacet
  facet normal 0 0 -1
    outer loop
      vertex 28.4158 23.4406 13
      vertex -26.8934 24.2677 13
      vertex 29.625 24.8816 13
    endloop
  endfacet
  facet normal 0 0 -1
    outer loop
      vertex -28.5225 25.2082 13
      vertex 29.625 24.8816 13
      vertex -26.8934 24.2677 13
    endloop
  endfacet
  facet normal 0 0 -1
    outer loop
      vertex 29.625 24.8816 13
      vertex -28.5225 25.2082 13
      vertex 35 27.5 13
    endloop
  endfacet
  facet normal 0 0 -1
    outer loop
      vertex -28.5225 25.2082 13
      vertex -35 27.5 13
      vertex 35 27.5 13
    endloop
  endfacet
  facet normal 0 0 -1
    outer loop
      vertex -30.375 24.8816 13
      vertex -35 27.5 13
      vertex -28.5225 25.2082 13
    endloop
  endfacet
  facet normal 0 0 -1
    outer loop
      vertex -31.5842 23.4406 13
      vertex -35 27.5 13
      vertex -30.375 24.8816 13
    endloop
  endfacet
  facet normal 0 0 -1
    outer loop
      vertex -31.5842 21.5594 13
      vertex -35 27.5 13
      vertex -31.5842 23.4406 13
    endloop
  endfacet
  facet normal 0 0 0
    outer loop
      vertex -35 -7.53935 13
      vertex -35 -27.5 13
      vertex -35 27.5 13
    endloop
  endfacet
  facet normal 0 0 0
    outer loop
      vertex -35 27.5 13
      vertex -35 7.53935 13
      vertex -35 -7.53935 13
    endloop
  endfacet
  facet normal 0 0 -1
    outer loop
      vertex -28.125 -24.0155 13
      vertex -28.125 -20.9845 13
      vertex -27.25 -22.5 13
    endloop
  endfacet
  facet normal 0 0 -1
    outer loop
      vertex -29.875 -24.0155 13
      vertex -28.125 -20.9845 13
      vertex -28.125 -24.0155 13
    endloop
  endfacet
  facet normal 0 0 -1
    outer loop
      vertex -29.875 -24.0155 13
      vertex -29.875 -20.9845 13
      vertex -28.125 -20.9845 13
    endloop
  endfacet
  facet normal 0 -0 -1
    outer loop
      vertex -29.875 -20.9845 13
      vertex -29.875 -24.0155 13
      vertex -30.75 -22.5 13
    endloop
  endfacet
  facet normal 0 0 -1
    outer loop
      vertex 31.875 -24.0155 13
      vertex 31.875 -20.9845 13
      vertex 32.75 -22.5 13
    endloop
  endfacet
  facet normal 0 0 -1
    outer loop
      vertex 30.125 -24.0155 13
      vertex 31.875 -20.9845 13
      vertex 31.875 -24.0155 13
    endloop
  endfacet
  facet normal 0 0 -1
    outer loop
      vertex 30.125 -24.0155 13
      vertex 30.125 -20.9845 13
      vertex 31.875 -20.9845 13
    endloop
  endfacet
  facet normal 0 -0 -1
    outer loop
      vertex 30.125 -20.9845 13
      vertex 30.125 -24.0155 13
      vertex 29.25 -22.5 13
    endloop
  endfacet
  facet normal 0 0 -1
    outer loop
      vertex -28.125 20.9845 13
      vertex -28.125 24.0155 13
      vertex -27.25 22.5 13
    endloop
  endfacet
  facet normal 0 0 -1
    outer loop
      vertex -29.875 20.9845 13
      vertex -28.125 24.0155 13
      vertex -28.125 20.9845 13
    endloop
  endfacet
  facet normal 0 0 -1
    outer loop
      vertex -29.875 20.9845 13
      vertex -29.875 24.0155 13
      vertex -28.125 24.0155 13
    endloop
  endfacet
  facet normal 0 -0 -1
    outer loop
      vertex -29.875 24.0155 13
      vertex -29.875 20.9845 13
      vertex -30.75 22.5 13
    endloop
  endfacet
  facet normal 0 0 -1
    outer loop
      vertex 31.875 20.9845 13
      vertex 31.875 24.0155 13
      vertex 32.75 22.5 13
    endloop
  endfacet
  facet normal 0 0 -1
    outer loop
      vertex 30.125 20.9845 13
      vertex 31.875 24.0155 13
      vertex 31.875 20.9845 13
    endloop
  endfacet
  facet normal 0 0 -1
    outer loop
      vertex 30.125 20.9845 13
      vertex 30.125 24.0155 13
      vertex 31.875 24.0155 13
    endloop
  endfacet
  facet normal 0 -0 -1
    outer loop
      vertex 30.125 24.0155 13
      vertex 30.125 20.9845 13
      vertex 29.25 22.5 13
    endloop
  endfacet
  facet normal 1 0 0
    outer loop
      vertex 36.5 29 23
      vertex 36.5 28.25 -10.75
      vertex 36.5 29 -13
    endloop
  endfacet
  facet normal 1 0 0
    outer loop
      vertex 36.5 29 23
      vertex 36.5 25 2
      vertex 36.5 28.25 -10.75
    endloop
  endfacet
  facet normal 1 -0 0
    outer loop
      vertex 36.5 16.4108 23
      vertex 36.5 25 2
      vertex 36.5 29 23
    endloop
  endfacet
  facet normal 1 -0 0
    outer loop
      vertex 36.5 13.0782 19.9994
      vertex 36.5 25 2
      vertex 36.5 16.4108 23
    endloop
  endfacet
  facet normal 1 -0 0
    outer loop
      vertex 36.5 9.04989 17.6736
      vertex 36.5 25 2
      vertex 36.5 13.0782 19.9994
    endloop
  endfacet
  facet normal 1 -0 0
    outer loop
      vertex 36.5 4.62603 16.2362
      vertex 36.5 25 2
      vertex 36.5 9.04989 17.6736
    endloop
  endfacet
  facet normal 1 -0 0
    outer loop
      vertex 36.5 0 15.75
      vertex 36.5 25 2
      vertex 36.5 4.62603 16.2362
    endloop
  endfacet
  facet normal 1 0 0
    outer loop
      vertex 36.5 -25 2
      vertex 36.5 0 15.75
      vertex 36.5 -4.62603 16.2362
    endloop
  endfacet
  facet normal 1 0 0
    outer loop
      vertex 36.5 -25 2
      vertex 36.5 -4.62603 16.2362
      vertex 36.5 -9.04989 17.6736
    endloop
  endfacet
  facet normal 1 0 0
    outer loop
      vertex 36.5 0 15.75
      vertex 36.5 -25 2
      vertex 36.5 25 2
    endloop
  endfacet
  facet normal 1 0 0
    outer loop
      vertex 36.5 -13.0782 19.9994
      vertex 36.5 -25 2
      vertex 36.5 -9.04989 17.6736
    endloop
  endfacet
  facet normal 1 0 0
    outer loop
      vertex 36.5 -16.4108 23
      vertex 36.5 -25 2
      vertex 36.5 -13.0782 19.9994
    endloop
  endfacet
  facet normal 1 0 0
    outer loop
      vertex 36.5 -25 2
      vertex 36.5 -28.25 -10.75
      vertex 36.5 -25 -3
    endloop
  endfacet
  facet normal 1 0 0
    outer loop
      vertex 36.5 -29 -13
      vertex 36.5 -28.25 -10.75
      vertex 36.5 -29 23
    endloop
  endfacet
  facet normal 1 0 0
    outer loop
      vertex 36.5 -25 2
      vertex 36.5 -29 23
      vertex 36.5 -28.25 -10.75
    endloop
  endfacet
  facet normal 1 -0 0
    outer loop
      vertex 36.5 -29 23
      vertex 36.5 -25 2
      vertex 36.5 -16.4108 23
    endloop
  endfacet
  facet normal 1 -0 0
    outer loop
      vertex 36.5 28.25 -12.25
      vertex 36.5 29 -13
      vertex 36.5 28.25 -10.75
    endloop
  endfacet
  facet normal 1 0 0
    outer loop
      vertex 36.5 27.5 -13
      vertex 36.5 28.25 -12.25
      vertex 36.5 27.5 -12.25
    endloop
  endfacet
  facet normal 1 0 0
    outer loop
      vertex 36.5 28.25 -12.25
      vertex 36.5 27.5 -13
      vertex 36.5 29 -13
    endloop
  endfacet
  facet normal 1 -0 0
    outer loop
      vertex 36.5 25 -3
      vertex 36.5 28.25 -10.75
      vertex 36.5 25 2
    endloop
  endfacet
  facet normal 1 -0 0
    outer loop
      vertex 36.5 -25 -3
      vertex 36.5 28.25 -10.75
      vertex 36.5 25 -3
    endloop
  endfacet
  facet normal 1 0 0
    outer loop
      vertex 36.5 28.25 -10.75
      vertex 36.5 -25 -3
      vertex 36.5 -28.25 -10.75
    endloop
  endfacet
  facet normal 1 -0 0
    outer loop
      vertex 36.5 -28.25 -12.25
      vertex 36.5 -27.5 -13
      vertex 36.5 -27.5 -12.25
    endloop
  endfacet
  facet normal 1 0 0
    outer loop
      vertex 36.5 -28.25 -12.25
      vertex 36.5 -29 -13
      vertex 36.5 -27.5 -13
    endloop
  endfacet
  facet normal 1 0 0
    outer loop
      vertex 36.5 -28.25 -10.75
      vertex 36.5 -29 -13
      vertex 36.5 -28.25 -12.25
    endloop
  endfacet
  facet normal 0 1 -0
    outer loop
      vertex 36.5 29 -13
      vertex -36.5 29 23
      vertex 36.5 29 23
    endloop
  endfacet
  facet normal 0 1 0
    outer loop
      vertex -36.5 29 23
      vertex 36.5 29 -13
      vertex -36.5 29 -13
    endloop
  endfacet
  facet normal 0 0 -1
    outer loop
      vertex 36.5 -29 -13
      vertex -35 -27.5 -13
      vertex 36.5 -27.5 -13
    endloop
  endfacet
  facet normal -0 0 -1
    outer loop
      vertex -35 -27.5 -13
      vertex -36.5 -29 -13
      vertex -35 27.5 -13
    endloop
  endfacet
  facet normal 0 0 -1
    outer loop
      vertex -36.5 -29 -13
      vertex -35 -27.5 -13
      vertex 36.5 -29 -13
    endloop
  endfacet
  facet normal 0 0 -1
    outer loop
      vertex -35 27.5 -13
      vertex 36.5 29 -13
      vertex 36.5 27.5 -13
    endloop
  endfacet
  facet normal 0 0 -1
    outer loop
      vertex -35 27.5 -13
      vertex -36.5 29 -13
      vertex 36.5 29 -13
    endloop
  endfacet
  facet normal 0 0 -1
    outer loop
      vertex -36.5 29 -13
      vertex -35 27.5 -13
      vertex -36.5 -29 -13
    endloop
  endfacet
  facet normal 0 -1 0
    outer loop
      vertex -36.5 -29 -13
      vertex 36.5 -29 23
      vertex -36.5 -29 23
    endloop
  endfacet
  facet normal 0 -1 -0
    outer loop
      vertex 36.5 -29 23
      vertex -36.5 -29 -13
      vertex 36.5 -29 -13
    endloop
  endfacet
  facet normal 1 0 0
    outer loop
      vertex -35 27.5 13
      vertex -35 25 2
      vertex -35 27.5 -10.75
    endloop
  endfacet
  facet normal 1 0 0
    outer loop
      vertex -35 27.5 13
      vertex -35 -25 2
      vertex -35 25 2
    endloop
  endfacet
  facet normal 1 0 0
    outer loop
      vertex -35 -27.5 -10.75
      vertex -35 -25 2
      vertex -35 -27.5 13
    endloop
  endfacet
  facet normal 1 -0 0
    outer loop
      vertex -35 -27.5 13
      vertex -35 -25 2
      vertex -35 27.5 13
    endloop
  endfacet
  facet normal 1 -0 0
    outer loop
      vertex -35 25 -3
      vertex -35 27.5 -10.75
      vertex -35 25 2
    endloop
  endfacet
  facet normal 1 -0 0
    outer loop
      vertex -35 -25 -3
      vertex -35 27.5 -10.75
      vertex -35 25 -3
    endloop
  endfacet
  facet normal 1 0 0
    outer loop
      vertex -35 -25 -3
      vertex -35 -27.5 -10.75
      vertex -35 27.5 -10.75
    endloop
  endfacet
  facet normal 1 0 0
    outer loop
      vertex -35 -25 2
      vertex -35 -27.5 -10.75
      vertex -35 -25 -3
    endloop
  endfacet
  facet normal 1 -0 0
    outer loop
      vertex -35 -27.5 -12.25
      vertex -35 27.5 -13
      vertex -35 27.5 -12.25
    endloop
  endfacet
  facet normal 1 0 0
    outer loop
      vertex -35 27.5 -13
      vertex -35 -27.5 -12.25
      vertex -35 -27.5 -13
    endloop
  endfacet
  facet normal -1 0 0
    outer loop
      vertex 35 25 2
      vertex 35 27.5 -10.75
      vertex 35 25 -3
    endloop
  endfacet
  facet normal -1 0 0
    outer loop
      vertex 35 27.5 -10.75
      vertex 35 -25 -3
      vertex 35 25 -3
    endloop
  endfacet
  facet normal -1 -0 0
    outer loop
      vertex 35 -25 -3
      vertex 35 -27.5 -10.75
      vertex 35 -25 2
    endloop
  endfacet
  facet normal -1 0 0
    outer loop
      vertex 35 -27.5 -10.75
      vertex 35 -25 -3
      vertex 35 27.5 -10.75
    endloop
  endfacet
  facet normal -1 0 0
    outer loop
      vertex 35 27.5 -10.75
      vertex 35 25 2
      vertex 35 27.5 13
    endloop
  endfacet
  facet normal -1 0 0
    outer loop
      vertex 35 25 2
      vertex 35 7.53935 13
      vertex 35 27.5 13
    endloop
  endfacet
  facet normal -1 0 0
    outer loop
      vertex 35 25 2
      vertex 35 -7.53935 13
      vertex 35 7.53935 13
    endloop
  endfacet
  facet normal -1 0 0
    outer loop
      vertex 35 -25 2
      vertex 35 -7.53935 13
      vertex 35 25 2
    endloop
  endfacet
  facet normal -1 0 0
    outer loop
      vertex 35 -25 2
      vertex 35 -27.5 13
      vertex 35 -7.53935 13
    endloop
  endfacet
  facet normal -1 0 0
    outer loop
      vertex 35 -27.5 13
      vertex 35 -25 2
      vertex 35 -27.5 -10.75
    endloop
  endfacet
  facet normal 0 -1 0
    outer loop
      vertex -35 27.5 -10.75
      vertex 35 27.5 13
      vertex -35 27.5 13
    endloop
  endfacet
  facet normal 0 -1 -0
    outer loop
      vertex 35 27.5 13
      vertex -35 27.5 -10.75
      vertex 35 27.5 -10.75
    endloop
  endfacet
  facet normal 0 -1 0
    outer loop
      vertex -35 27.5 -13
      vertex 36.5 27.5 -12.25
      vertex -35 27.5 -12.25
    endloop
  endfacet
  facet normal 0 -1 -0
    outer loop
      vertex 36.5 27.5 -12.25
      vertex -35 27.5 -13
      vertex 36.5 27.5 -13
    endloop
  endfacet
  facet normal 0 1 -0
    outer loop
      vertex 35 -27.5 -10.75
      vertex -35 -27.5 13
      vertex 35 -27.5 13
    endloop
  endfacet
  facet normal 0 1 0
    outer loop
      vertex -35 -27.5 13
      vertex 35 -27.5 -10.75
      vertex -35 -27.5 -10.75
    endloop
  endfacet
  facet normal 0 1 -0
    outer loop
      vertex 36.5 -27.5 -13
      vertex -35 -27.5 -12.25
      vertex 36.5 -27.5 -12.25
    endloop
  endfacet
  facet normal 0 1 0
    outer loop
      vertex -35 -27.5 -12.25
      vertex 36.5 -27.5 -13
      vertex -35 -27.5 -13
    endloop
  endfacet
  facet normal 0 0 -1
    outer loop
      vertex -36.5 -25 2
      vertex -35 25 2
      vertex -35 -25 2
    endloop
  endfacet
  facet normal -0 0 -1
    outer loop
      vertex -35 25 2
      vertex -36.5 -25 2
      vertex -36.5 25 2
    endloop
  endfacet
  facet normal 0 -1 0
    outer loop
      vertex -36.5 25 -3
      vertex -35 25 2
      vertex -36.5 25 2
    endloop
  endfacet
  facet normal 0 -1 -0
    outer loop
      vertex -35 25 2
      vertex -36.5 25 -3
      vertex -35 25 -3
    endloop
  endfacet
  facet normal -0 0 1
    outer loop
      vertex -36.5 25 -3
      vertex -35 -25 -3
      vertex -35 25 -3
    endloop
  endfacet
  facet normal 0 0 1
    outer loop
      vertex -35 -25 -3
      vertex -36.5 25 -3
      vertex -36.5 -25 -3
    endloop
  endfacet
  facet normal 0 1 -0
    outer loop
      vertex -35 -25 -3
      vertex -36.5 -25 2
      vertex -35 -25 2
    endloop
  endfacet
  facet normal 0 1 0
    outer loop
      vertex -36.5 -25 2
      vertex -35 -25 -3
      vertex -36.5 -25 -3
    endloop
  endfacet
  facet normal 0 0 -1
    outer loop
      vertex 35 -25 2
      vertex 36.5 25 2
      vertex 36.5 -25 2
    endloop
  endfacet
  facet normal -0 0 -1
    outer loop
      vertex 36.5 25 2
      vertex 35 -25 2
      vertex 35 25 2
    endloop
  endfacet
  facet normal -0 0 1
    outer loop
      vertex 35 25 -3
      vertex 36.5 -25 -3
      vertex 36.5 25 -3
    endloop
  endfacet
  facet normal 0 0 1
    outer loop
      vertex 36.5 -25 -3
      vertex 35 25 -3
      vertex 35 -25 -3
    endloop
  endfacet
  facet normal 0 1 -0
    outer loop
      vertex 36.5 -25 -3
      vertex 35 -25 2
      vertex 36.5 -25 2
    endloop
  endfacet
  facet normal 0 1 0
    outer loop
      vertex 35 -25 2
      vertex 36.5 -25 -3
      vertex 35 -25 -3
    endloop
  endfacet
  facet normal 0 -1 0
    outer loop
      vertex 35 25 -3
      vertex 36.5 25 2
      vertex 35 25 2
    endloop
  endfacet
  facet normal 0 -1 -0
    outer loop
      vertex 36.5 25 2
      vertex 35 25 -3
      vertex 36.5 25 -3
    endloop
  endfacet
  facet normal 1 -0 0
    outer loop
      vertex -36 -28.25 -10.75
      vertex -36 28.25 -12.25
      vertex -36 28.25 -10.75
    endloop
  endfacet
  facet normal 1 0 0
    outer loop
      vertex -36 28.25 -12.25
      vertex -36 -28.25 -10.75
      vertex -36 -28.25 -12.25
    endloop
  endfacet
  facet normal 0 0 -1
    outer loop
      vertex 36.5 -28.25 -10.75
      vertex 35 -27.5 -10.75
      vertex 36.5 28.25 -10.75
    endloop
  endfacet
  facet normal 0 0 -1
    outer loop
      vertex -36 -28.25 -10.75
      vertex 35 -27.5 -10.75
      vertex 36.5 -28.25 -10.75
    endloop
  endfacet
  facet normal -0 0 -1
    outer loop
      vertex -35 -27.5 -10.75
      vertex -36 -28.25 -10.75
      vertex -35 27.5 -10.75
    endloop
  endfacet
  facet normal -0 0 -1
    outer loop
      vertex 35 -27.5 -10.75
      vertex -36 -28.25 -10.75
      vertex -35 -27.5 -10.75
    endloop
  endfacet
  facet normal 0 0 -1
    outer loop
      vertex 35 27.5 -10.75
      vertex 36.5 28.25 -10.75
      vertex 35 -27.5 -10.75
    endloop
  endfacet
  facet normal 0 0 -1
    outer loop
      vertex -36 28.25 -10.75
      vertex 35 27.5 -10.75
      vertex -35 27.5 -10.75
    endloop
  endfacet
  facet normal 0 0 -1
    outer loop
      vertex 35 27.5 -10.75
      vertex -36 28.25 -10.75
      vertex 36.5 28.25 -10.75
    endloop
  endfacet
  facet normal 0 0 -1
    outer loop
      vertex -36 28.25 -10.75
      vertex -35 27.5 -10.75
      vertex -36 -28.25 -10.75
    endloop
  endfacet
  facet normal 0 -1 0
    outer loop
      vertex -36 28.25 -12.25
      vertex 36.5 28.25 -10.75
      vertex -36 28.25 -10.75
    endloop
  endfacet
  facet normal 0 -1 -0
    outer loop
      vertex 36.5 28.25 -10.75
      vertex -36 28.25 -12.25
      vertex 36.5 28.25 -12.25
    endloop
  endfacet
  facet normal 0 0 1
    outer loop
      vertex 36.5 28.25 -12.25
      vertex -35 27.5 -12.25
      vertex 36.5 27.5 -12.25
    endloop
  endfacet
  facet normal 0 0 1
    outer loop
      vertex -35 27.5 -12.25
      vertex -36 28.25 -12.25
      vertex -35 -27.5 -12.25
    endloop
  endfacet
  facet normal -0 0 1
    outer loop
      vertex -36 28.25 -12.25
      vertex -35 27.5 -12.25
      vertex 36.5 28.25 -12.25
    endloop
  endfacet
  facet normal -0 0 1
    outer loop
      vertex -35 -27.5 -12.25
      vertex 36.5 -28.25 -12.25
      vertex 36.5 -27.5 -12.25
    endloop
  endfacet
  facet normal 0 0 1
    outer loop
      vertex -35 -27.5 -12.25
      vertex -36 -28.25 -12.25
      vertex 36.5 -28.25 -12.25
    endloop
  endfacet
  facet normal 0 0 1
    outer loop
      vertex -36 -28.25 -12.25
      vertex -35 -27.5 -12.25
      vertex -36 28.25 -12.25
    endloop
  endfacet
  facet normal 0 1 -0
    outer loop
      vertex 36.5 -28.25 -12.25
      vertex -36 -28.25 -10.75
      vertex 36.5 -28.25 -10.75
    endloop
  endfacet
  facet normal 0 1 0
    outer loop
      vertex -36 -28.25 -10.75
      vertex 36.5 -28.25 -12.25
      vertex -36 -28.25 -12.25
    endloop
  endfacet
  facet normal 0 -0.809017 0.587785
    outer loop
      vertex -35 19.5076 20.4353
      vertex -25 21.3709 23
      vertex -35 21.3709 23
    endloop
  endfacet
  facet normal 0 -0.809017 0.587785
    outer loop
      vertex -25 21.3709 23
      vertex -35 19.5076 20.4353
      vertex -25 19.5076 20.4353
    endloop
  endfacet
  facet normal -0 0.309017 0.951056
    outer loop
      vertex -35 -7.53935 13
      vertex -25 -10.6768 14.0194
      vertex -25 -7.53935 13
    endloop
  endfacet
  facet normal 0 0.309017 0.951056
    outer loop
      vertex -25 -10.6768 14.0194
      vertex -35 -7.53935 13
      vertex -35 -10.6768 14.0194
    endloop
  endfacet
  facet normal 0 -0.5 0.866025
    outer loop
      vertex -35 15.4294 16.7633
      vertex -25 10.6768 14.0194
      vertex -25 15.4294 16.7633
    endloop
  endfacet
  facet normal 0 -0.5 0.866025
    outer loop
      vertex -25 10.6768 14.0194
      vertex -35 15.4294 16.7633
      vertex -35 10.6768 14.0194
    endloop
  endfacet
  facet normal 0 -0.309017 0.951056
    outer loop
      vertex -35 10.6768 14.0194
      vertex -25 7.53935 13
      vertex -25 10.6768 14.0194
    endloop
  endfacet
  facet normal 0 -0.309017 0.951056
    outer loop
      vertex -25 7.53935 13
      vertex -35 10.6768 14.0194
      vertex -35 7.53935 13
    endloop
  endfacet
  facet normal 0 -0.66913 0.743145
    outer loop
      vertex -35 19.5076 20.4353
      vertex -25 15.4294 16.7633
      vertex -25 19.5076 20.4353
    endloop
  endfacet
  facet normal 0 -0.66913 0.743145
    outer loop
      vertex -25 15.4294 16.7633
      vertex -35 19.5076 20.4353
      vertex -35 15.4294 16.7633
    endloop
  endfacet
  facet normal -1 0 0
    outer loop
      vertex -25 19.5076 20.4353
      vertex -25 18.9123 23
      vertex -25 21.3709 23
    endloop
  endfacet
  facet normal -1 0 0
    outer loop
      vertex -25 19.5076 20.4353
      vertex -25 18.0213 21.7736
      vertex -25 18.9123 23
    endloop
  endfacet
  facet normal -1 0 0
    outer loop
      vertex -25 15.4294 16.7633
      vertex -25 18.0213 21.7736
      vertex -25 19.5076 20.4353
    endloop
  endfacet
  facet normal -1 0 0
    outer loop
      vertex -25 15.4294 16.7633
      vertex -25 14.2538 18.3813
      vertex -25 18.0213 21.7736
    endloop
  endfacet
  facet normal -1 0 0
    outer loop
      vertex -25 10.6768 14.0194
      vertex -25 14.2538 18.3813
      vertex -25 15.4294 16.7633
    endloop
  endfacet
  facet normal -1 0 0
    outer loop
      vertex -25 10.6768 14.0194
      vertex -25 9.86336 15.8465
      vertex -25 14.2538 18.3813
    endloop
  endfacet
  facet normal -1 0 0
    outer loop
      vertex -25 7.53935 13
      vertex -25 9.86336 15.8465
      vertex -25 10.6768 14.0194
    endloop
  endfacet
  facet normal -1 0 0
    outer loop
      vertex -25 7.53935 13
      vertex -25 5.04186 14.2799
      vertex -25 9.86336 15.8465
    endloop
  endfacet
  facet normal -1 0 0
    outer loop
      vertex -25 7.53935 13
      vertex -25 0 13.75
      vertex -25 5.04186 14.2799
    endloop
  endfacet
  facet normal -1 0 0
    outer loop
      vertex -25 -7.53935 13
      vertex -25 0 13.75
      vertex -25 7.53935 13
    endloop
  endfacet
  facet normal -1 0 0
    outer loop
      vertex -25 -7.53935 13
      vertex -25 -5.04186 14.2799
      vertex -25 0 13.75
    endloop
  endfacet
  facet normal -1 0 0
    outer loop
      vertex -25 -7.53935 13
      vertex -25 -9.86336 15.8465
      vertex -25 -5.04186 14.2799
    endloop
  endfacet
  facet normal -1 0 0
    outer loop
      vertex -25 -10.6768 14.0194
      vertex -25 -9.86336 15.8465
      vertex -25 -7.53935 13
    endloop
  endfacet
  facet normal -1 0 0
    outer loop
      vertex -25 -10.6768 14.0194
      vertex -25 -14.2538 18.3813
      vertex -25 -9.86336 15.8465
    endloop
  endfacet
  facet normal -1 0 0
    outer loop
      vertex -25 -15.4294 16.7633
      vertex -25 -14.2538 18.3813
      vertex -25 -10.6768 14.0194
    endloop
  endfacet
  facet normal -1 0 0
    outer loop
      vertex -25 -15.4294 16.7633
      vertex -25 -18.0213 21.7736
      vertex -25 -14.2538 18.3813
    endloop
  endfacet
  facet normal -1 0 0
    outer loop
      vertex -25 -19.5076 20.4353
      vertex -25 -18.0213 21.7736
      vertex -25 -15.4294 16.7633
    endloop
  endfacet
  facet normal -1 -0 0
    outer loop
      vertex -25 -18.0213 21.7736
      vertex -25 -19.5076 20.4353
      vertex -25 -18.9123 23
    endloop
  endfacet
  facet normal -1 -0 0
    outer loop
      vertex -25 -18.9123 23
      vertex -25 -19.5076 20.4353
      vertex -25 -21.3709 23
    endloop
  endfacet
  facet normal 1 -0 0
    outer loop
      vertex -35 18.9123 23
      vertex -35 19.5076 20.4353
      vertex -35 21.3709 23
    endloop
  endfacet
  facet normal 1 -0 0
    outer loop
      vertex -35 18.0213 21.7736
      vertex -35 19.5076 20.4353
      vertex -35 18.9123 23
    endloop
  endfacet
  facet normal 1 0 0
    outer loop
      vertex -35 18.0213 21.7736
      vertex -35 15.4294 16.7633
      vertex -35 19.5076 20.4353
    endloop
  endfacet
  facet normal 1 -0 0
    outer loop
      vertex -35 14.2538 18.3813
      vertex -35 15.4294 16.7633
      vertex -35 18.0213 21.7736
    endloop
  endfacet
  facet normal 1 0 0
    outer loop
      vertex -35 14.2538 18.3813
      vertex -35 10.6768 14.0194
      vertex -35 15.4294 16.7633
    endloop
  endfacet
  facet normal 1 -0 0
    outer loop
      vertex -35 9.86336 15.8465
      vertex -35 10.6768 14.0194
      vertex -35 14.2538 18.3813
    endloop
  endfacet
  facet normal 1 0 0
    outer loop
      vertex -35 9.86336 15.8465
      vertex -35 7.53935 13
      vertex -35 10.6768 14.0194
    endloop
  endfacet
  facet normal 1 -0 0
    outer loop
      vertex -35 5.04186 14.2799
      vertex -35 7.53935 13
      vertex -35 9.86336 15.8465
    endloop
  endfacet
  facet normal 1 -0 0
    outer loop
      vertex -35 0 13.75
      vertex -35 7.53935 13
      vertex -35 5.04186 14.2799
    endloop
  endfacet
  facet normal 1 0 0
    outer loop
      vertex -35 0 13.75
      vertex -35 -7.53935 13
      vertex -35 7.53935 13
    endloop
  endfacet
  facet normal 1 0 0
    outer loop
      vertex -35 -5.04186 14.2799
      vertex -35 -7.53935 13
      vertex -35 0 13.75
    endloop
  endfacet
  facet normal 1 0 0
    outer loop
      vertex -35 -9.86336 15.8465
      vertex -35 -7.53935 13
      vertex -35 -5.04186 14.2799
    endloop
  endfacet
  facet normal 1 0 0
    outer loop
      vertex -35 -9.86336 15.8465
      vertex -35 -10.6768 14.0194
      vertex -35 -7.53935 13
    endloop
  endfacet
  facet normal 1 0 0
    outer loop
      vertex -35 -14.2538 18.3813
      vertex -35 -10.6768 14.0194
      vertex -35 -9.86336 15.8465
    endloop
  endfacet
  facet normal 1 0 0
    outer loop
      vertex -35 -14.2538 18.3813
      vertex -35 -15.4294 16.7633
      vertex -35 -10.6768 14.0194
    endloop
  endfacet
  facet normal 1 0 0
    outer loop
      vertex -35 -18.0213 21.7736
      vertex -35 -15.4294 16.7633
      vertex -35 -14.2538 18.3813
    endloop
  endfacet
  facet normal 1 0 0
    outer loop
      vertex -35 -19.5076 20.4353
      vertex -35 -18.0213 21.7736
      vertex -35 -18.9123 23
    endloop
  endfacet
  facet normal 1 0 0
    outer loop
      vertex -35 -18.0213 21.7736
      vertex -35 -19.5076 20.4353
      vertex -35 -15.4294 16.7633
    endloop
  endfacet
  facet normal 1 0 -0
    outer loop
      vertex -35 -19.5076 20.4353
      vertex -35 -18.9123 23
      vertex -35 -21.3709 23
    endloop
  endfacet
  facet normal -0 0.5 0.866025
    outer loop
      vertex -35 -10.6768 14.0194
      vertex -25 -15.4294 16.7633
      vertex -25 -10.6768 14.0194
    endloop
  endfacet
  facet normal 0 0.5 0.866025
    outer loop
      vertex -25 -15.4294 16.7633
      vertex -35 -10.6768 14.0194
      vertex -35 -15.4294 16.7633
    endloop
  endfacet
  facet normal 0 0.809017 0.587785
    outer loop
      vertex -25 -19.5076 20.4353
      vertex -35 -21.3709 23
      vertex -25 -21.3709 23
    endloop
  endfacet
  facet normal 0 0.809017 0.587785
    outer loop
      vertex -35 -21.3709 23
      vertex -25 -19.5076 20.4353
      vertex -35 -19.5076 20.4353
    endloop
  endfacet
  facet normal -0 0.66913 0.743145
    outer loop
      vertex -35 -15.4294 16.7633
      vertex -25 -19.5076 20.4353
      vertex -25 -15.4294 16.7633
    endloop
  endfacet
  facet normal 0 0.66913 0.743145
    outer loop
      vertex -25 -19.5076 20.4353
      vertex -35 -15.4294 16.7633
      vertex -35 -19.5076 20.4353
    endloop
  endfacet
  facet normal 0 0.5 -0.866025
    outer loop
      vertex -35 9.86336 15.8465
      vertex -25 14.2538 18.3813
      vertex -25 9.86336 15.8465
    endloop
  endfacet
  facet normal 0 0.5 -0.866025
    outer loop
      vertex -25 14.2538 18.3813
      vertex -35 9.86336 15.8465
      vertex -35 14.2538 18.3813
    endloop
  endfacet
  facet normal 0 0.669131 -0.743145
    outer loop
      vertex -35 14.2538 18.3813
      vertex -25 18.0213 21.7736
      vertex -25 14.2538 18.3813
    endloop
  endfacet
  facet normal 0 0.669131 -0.743145
    outer loop
      vertex -25 18.0213 21.7736
      vertex -35 14.2538 18.3813
      vertex -35 18.0213 21.7736
    endloop
  endfacet
  facet normal 0 -0.104529 -0.994522
    outer loop
      vertex -35 -5.04186 14.2799
      vertex -25 0 13.75
      vertex -25 -5.04186 14.2799
    endloop
  endfacet
  facet normal -0 -0.104529 -0.994522
    outer loop
      vertex -25 0 13.75
      vertex -35 -5.04186 14.2799
      vertex -35 0 13.75
    endloop
  endfacet
  facet normal 0 0.309017 -0.951057
    outer loop
      vertex -35 5.04186 14.2799
      vertex -25 9.86336 15.8465
      vertex -25 5.04186 14.2799
    endloop
  endfacet
  facet normal 0 0.309017 -0.951057
    outer loop
      vertex -25 9.86336 15.8465
      vertex -35 5.04186 14.2799
      vertex -35 9.86336 15.8465
    endloop
  endfacet
  facet normal 0 0.809017 -0.587785
    outer loop
      vertex -25 18.0213 21.7736
      vertex -35 18.9123 23
      vertex -25 18.9123 23
    endloop
  endfacet
  facet normal 0 0.809017 -0.587785
    outer loop
      vertex -35 18.9123 23
      vertex -25 18.0213 21.7736
      vertex -35 18.0213 21.7736
    endloop
  endfacet
  facet normal 0 0.104529 -0.994522
    outer loop
      vertex -35 0 13.75
      vertex -25 5.04186 14.2799
      vertex -25 0 13.75
    endloop
  endfacet
  facet normal 0 0.104529 -0.994522
    outer loop
      vertex -25 5.04186 14.2799
      vertex -35 0 13.75
      vertex -35 5.04186 14.2799
    endloop
  endfacet
  facet normal 0 -0.809017 -0.587785
    outer loop
      vertex -35 -18.0213 21.7736
      vertex -25 -18.9123 23
      vertex -35 -18.9123 23
    endloop
  endfacet
  facet normal 0 -0.809017 -0.587785
    outer loop
      vertex -25 -18.9123 23
      vertex -35 -18.0213 21.7736
      vertex -25 -18.0213 21.7736
    endloop
  endfacet
  facet normal 0 -0.5 -0.866025
    outer loop
      vertex -35 -14.2538 18.3813
      vertex -25 -9.86336 15.8465
      vertex -25 -14.2538 18.3813
    endloop
  endfacet
  facet normal -0 -0.5 -0.866025
    outer loop
      vertex -25 -9.86336 15.8465
      vertex -35 -14.2538 18.3813
      vertex -35 -9.86336 15.8465
    endloop
  endfacet
  facet normal 0 -0.309017 -0.951057
    outer loop
      vertex -35 -9.86336 15.8465
      vertex -25 -5.04186 14.2799
      vertex -25 -9.86336 15.8465
    endloop
  endfacet
  facet normal -0 -0.309017 -0.951057
    outer loop
      vertex -25 -5.04186 14.2799
      vertex -35 -9.86336 15.8465
      vertex -35 -5.04186 14.2799
    endloop
  endfacet
  facet normal 0 -0.669131 -0.743145
    outer loop
      vertex -35 -18.0213 21.7736
      vertex -25 -14.2538 18.3813
      vertex -25 -18.0213 21.7736
    endloop
  endfacet
  facet normal -0 -0.669131 -0.743145
    outer loop
      vertex -25 -14.2538 18.3813
      vertex -35 -18.0213 21.7736
      vertex -35 -14.2538 18.3813
    endloop
  endfacet
  facet normal 0 -0.809017 0.587785
    outer loop
      vertex 25 19.5076 20.4353
      vertex 35 21.3709 23
      vertex 25 21.3709 23
    endloop
  endfacet
  facet normal 0 -0.809017 0.587785
    outer loop
      vertex 35 21.3709 23
      vertex 25 19.5076 20.4353
      vertex 35 19.5076 20.4353
    endloop
  endfacet
  facet normal -0 0.309017 0.951056
    outer loop
      vertex 25 -7.53935 13
      vertex 35 -10.6768 14.0194
      vertex 35 -7.53935 13
    endloop
  endfacet
  facet normal 0 0.309017 0.951056
    outer loop
      vertex 35 -10.6768 14.0194
      vertex 25 -7.53935 13
      vertex 25 -10.6768 14.0194
    endloop
  endfacet
  facet normal 0 -0.5 0.866025
    outer loop
      vertex 25 15.4294 16.7633
      vertex 35 10.6768 14.0194
      vertex 35 15.4294 16.7633
    endloop
  endfacet
  facet normal 0 -0.5 0.866025
    outer loop
      vertex 35 10.6768 14.0194
      vertex 25 15.4294 16.7633
      vertex 25 10.6768 14.0194
    endloop
  endfacet
  facet normal 0 -0.309017 0.951056
    outer loop
      vertex 25 10.6768 14.0194
      vertex 35 7.53935 13
      vertex 35 10.6768 14.0194
    endloop
  endfacet
  facet normal 0 -0.309017 0.951056
    outer loop
      vertex 35 7.53935 13
      vertex 25 10.6768 14.0194
      vertex 25 7.53935 13
    endloop
  endfacet
  facet normal 0 -0.66913 0.743145
    outer loop
      vertex 25 19.5076 20.4353
      vertex 35 15.4294 16.7633
      vertex 35 19.5076 20.4353
    endloop
  endfacet
  facet normal 0 -0.66913 0.743145
    outer loop
      vertex 35 15.4294 16.7633
      vertex 25 19.5076 20.4353
      vertex 25 15.4294 16.7633
    endloop
  endfacet
  facet normal -1 0 0
    outer loop
      vertex 35 19.5076 20.4353
      vertex 35 18.9123 23
      vertex 35 21.3709 23
    endloop
  endfacet
  facet normal -1 0 0
    outer loop
      vertex 35 19.5076 20.4353
      vertex 35 18.0213 21.7736
      vertex 35 18.9123 23
    endloop
  endfacet
  facet normal -1 0 0
    outer loop
      vertex 35 15.4294 16.7633
      vertex 35 18.0213 21.7736
      vertex 35 19.5076 20.4353
    endloop
  endfacet
  facet normal -1 0 0
    outer loop
      vertex 35 15.4294 16.7633
      vertex 35 14.2538 18.3813
      vertex 35 18.0213 21.7736
    endloop
  endfacet
  facet normal -1 0 0
    outer loop
      vertex 35 10.6768 14.0194
      vertex 35 14.2538 18.3813
      vertex 35 15.4294 16.7633
    endloop
  endfacet
  facet normal -1 0 0
    outer loop
      vertex 35 10.6768 14.0194
      vertex 35 9.86336 15.8465
      vertex 35 14.2538 18.3813
    endloop
  endfacet
  facet normal -1 0 0
    outer loop
      vertex 35 7.53935 13
      vertex 35 9.86336 15.8465
      vertex 35 10.6768 14.0194
    endloop
  endfacet
  facet normal -1 0 0
    outer loop
      vertex 35 7.53935 13
      vertex 35 5.04186 14.2799
      vertex 35 9.86336 15.8465
    endloop
  endfacet
  facet normal -1 0 0
    outer loop
      vertex 35 7.53935 13
      vertex 35 0 13.75
      vertex 35 5.04186 14.2799
    endloop
  endfacet
  facet normal -1 0 0
    outer loop
      vertex 35 -7.53935 13
      vertex 35 0 13.75
      vertex 35 7.53935 13
    endloop
  endfacet
  facet normal -1 0 0
    outer loop
      vertex 35 -7.53935 13
      vertex 35 -5.04186 14.2799
      vertex 35 0 13.75
    endloop
  endfacet
  facet normal -1 0 0
    outer loop
      vertex 35 -7.53935 13
      vertex 35 -9.86336 15.8465
      vertex 35 -5.04186 14.2799
    endloop
  endfacet
  facet normal -1 0 0
    outer loop
      vertex 35 -10.6768 14.0194
      vertex 35 -9.86336 15.8465
      vertex 35 -7.53935 13
    endloop
  endfacet
  facet normal -1 0 0
    outer loop
      vertex 35 -10.6768 14.0194
      vertex 35 -14.2538 18.3813
      vertex 35 -9.86336 15.8465
    endloop
  endfacet
  facet normal -1 0 0
    outer loop
      vertex 35 -15.4294 16.7633
      vertex 35 -14.2538 18.3813
      vertex 35 -10.6768 14.0194
    endloop
  endfacet
  facet normal -1 0 0
    outer loop
      vertex 35 -15.4294 16.7633
      vertex 35 -18.0213 21.7736
      vertex 35 -14.2538 18.3813
    endloop
  endfacet
  facet normal -1 0 0
    outer loop
      vertex 35 -19.5076 20.4353
      vertex 35 -18.0213 21.7736
      vertex 35 -15.4294 16.7633
    endloop
  endfacet
  facet normal -1 -0 0
    outer loop
      vertex 35 -18.0213 21.7736
      vertex 35 -19.5076 20.4353
      vertex 35 -18.9123 23
    endloop
  endfacet
  facet normal -1 -0 0
    outer loop
      vertex 35 -18.9123 23
      vertex 35 -19.5076 20.4353
      vertex 35 -21.3709 23
    endloop
  endfacet
  facet normal 1 -0 0
    outer loop
      vertex 25 18.9123 23
      vertex 25 19.5076 20.4353
      vertex 25 21.3709 23
    endloop
  endfacet
  facet normal 1 -0 0
    outer loop
      vertex 25 18.0213 21.7736
      vertex 25 19.5076 20.4353
      vertex 25 18.9123 23
    endloop
  endfacet
  facet normal 1 0 0
    outer loop
      vertex 25 18.0213 21.7736
      vertex 25 15.4294 16.7633
      vertex 25 19.5076 20.4353
    endloop
  endfacet
  facet normal 1 -0 0
    outer loop
      vertex 25 14.2538 18.3813
      vertex 25 15.4294 16.7633
      vertex 25 18.0213 21.7736
    endloop
  endfacet
  facet normal 1 0 0
    outer loop
      vertex 25 14.2538 18.3813
      vertex 25 10.6768 14.0194
      vertex 25 15.4294 16.7633
    endloop
  endfacet
  facet normal 1 -0 0
    outer loop
      vertex 25 9.86336 15.8465
      vertex 25 10.6768 14.0194
      vertex 25 14.2538 18.3813
    endloop
  endfacet
  facet normal 1 0 0
    outer loop
      vertex 25 9.86336 15.8465
      vertex 25 7.53935 13
      vertex 25 10.6768 14.0194
    endloop
  endfacet
  facet normal 1 -0 0
    outer loop
      vertex 25 5.04186 14.2799
      vertex 25 7.53935 13
      vertex 25 9.86336 15.8465
    endloop
  endfacet
  facet normal 1 -0 0
    outer loop
      vertex 25 0 13.75
      vertex 25 7.53935 13
      vertex 25 5.04186 14.2799
    endloop
  endfacet
  facet normal 1 0 0
    outer loop
      vertex 25 0 13.75
      vertex 25 -7.53935 13
      vertex 25 7.53935 13
    endloop
  endfacet
  facet normal 1 0 0
    outer loop
      vertex 25 -5.04186 14.2799
      vertex 25 -7.53935 13
      vertex 25 0 13.75
    endloop
  endfacet
  facet normal 1 0 0
    outer loop
      vertex 25 -9.86336 15.8465
      vertex 25 -7.53935 13
      vertex 25 -5.04186 14.2799
    endloop
  endfacet
  facet normal 1 0 0
    outer loop
      vertex 25 -9.86336 15.8465
      vertex 25 -10.6768 14.0194
      vertex 25 -7.53935 13
    endloop
  endfacet
  facet normal 1 0 0
    outer loop
      vertex 25 -14.2538 18.3813
      vertex 25 -10.6768 14.0194
      vertex 25 -9.86336 15.8465
    endloop
  endfacet
  facet normal 1 0 0
    outer loop
      vertex 25 -14.2538 18.3813
      vertex 25 -15.4294 16.7633
      vertex 25 -10.6768 14.0194
    endloop
  endfacet
  facet normal 1 0 0
    outer loop
      vertex 25 -18.0213 21.7736
      vertex 25 -15.4294 16.7633
      vertex 25 -14.2538 18.3813
    endloop
  endfacet
  facet normal 1 0 0
    outer loop
      vertex 25 -19.5076 20.4353
      vertex 25 -18.0213 21.7736
      vertex 25 -18.9123 23
    endloop
  endfacet
  facet normal 1 0 0
    outer loop
      vertex 25 -18.0213 21.7736
      vertex 25 -19.5076 20.4353
      vertex 25 -15.4294 16.7633
    endloop
  endfacet
  facet normal 1 0 -0
    outer loop
      vertex 25 -19.5076 20.4353
      vertex 25 -18.9123 23
      vertex 25 -21.3709 23
    endloop
  endfacet
  facet normal -0 0.5 0.866025
    outer loop
      vertex 25 -10.6768 14.0194
      vertex 35 -15.4294 16.7633
      vertex 35 -10.6768 14.0194
    endloop
  endfacet
  facet normal 0 0.5 0.866025
    outer loop
      vertex 35 -15.4294 16.7633
      vertex 25 -10.6768 14.0194
      vertex 25 -15.4294 16.7633
    endloop
  endfacet
  facet normal 0 0.809017 0.587785
    outer loop
      vertex 35 -19.5076 20.4353
      vertex 25 -21.3709 23
      vertex 35 -21.3709 23
    endloop
  endfacet
  facet normal 0 0.809017 0.587785
    outer loop
      vertex 25 -21.3709 23
      vertex 35 -19.5076 20.4353
      vertex 25 -19.5076 20.4353
    endloop
  endfacet
  facet normal -0 0.66913 0.743145
    outer loop
      vertex 25 -15.4294 16.7633
      vertex 35 -19.5076 20.4353
      vertex 35 -15.4294 16.7633
    endloop
  endfacet
  facet normal 0 0.66913 0.743145
    outer loop
      vertex 35 -19.5076 20.4353
      vertex 25 -15.4294 16.7633
      vertex 25 -19.5076 20.4353
    endloop
  endfacet
  facet normal 0 0.5 -0.866025
    outer loop
      vertex 25 9.86336 15.8465
      vertex 35 14.2538 18.3813
      vertex 35 9.86336 15.8465
    endloop
  endfacet
  facet normal 0 0.5 -0.866025
    outer loop
      vertex 35 14.2538 18.3813
      vertex 25 9.86336 15.8465
      vertex 25 14.2538 18.3813
    endloop
  endfacet
  facet normal 0 0.669131 -0.743145
    outer loop
      vertex 25 14.2538 18.3813
      vertex 35 18.0213 21.7736
      vertex 35 14.2538 18.3813
    endloop
  endfacet
  facet normal 0 0.669131 -0.743145
    outer loop
      vertex 35 18.0213 21.7736
      vertex 25 14.2538 18.3813
      vertex 25 18.0213 21.7736
    endloop
  endfacet
  facet normal 0 -0.104529 -0.994522
    outer loop
      vertex 25 -5.04186 14.2799
      vertex 35 0 13.75
      vertex 35 -5.04186 14.2799
    endloop
  endfacet
  facet normal -0 -0.104529 -0.994522
    outer loop
      vertex 35 0 13.75
      vertex 25 -5.04186 14.2799
      vertex 25 0 13.75
    endloop
  endfacet
  facet normal 0 0.309017 -0.951057
    outer loop
      vertex 25 5.04186 14.2799
      vertex 35 9.86336 15.8465
      vertex 35 5.04186 14.2799
    endloop
  endfacet
  facet normal 0 0.309017 -0.951057
    outer loop
      vertex 35 9.86336 15.8465
      vertex 25 5.04186 14.2799
      vertex 25 9.86336 15.8465
    endloop
  endfacet
  facet normal 0 0.809017 -0.587785
    outer loop
      vertex 35 18.0213 21.7736
      vertex 25 18.9123 23
      vertex 35 18.9123 23
    endloop
  endfacet
  facet normal 0 0.809017 -0.587785
    outer loop
      vertex 25 18.9123 23
      vertex 35 18.0213 21.7736
      vertex 25 18.0213 21.7736
    endloop
  endfacet
  facet normal 0 0.104529 -0.994522
    outer loop
      vertex 25 0 13.75
      vertex 35 5.04186 14.2799
      vertex 35 0 13.75
    endloop
  endfacet
  facet normal 0 0.104529 -0.994522
    outer loop
      vertex 35 5.04186 14.2799
      vertex 25 0 13.75
      vertex 25 5.04186 14.2799
    endloop
  endfacet
  facet normal 0 -0.809017 -0.587785
    outer loop
      vertex 25 -18.0213 21.7736
      vertex 35 -18.9123 23
      vertex 25 -18.9123 23
    endloop
  endfacet
  facet normal 0 -0.809017 -0.587785
    outer loop
      vertex 35 -18.9123 23
      vertex 25 -18.0213 21.7736
      vertex 35 -18.0213 21.7736
    endloop
  endfacet
  facet normal 0 -0.5 -0.866025
    outer loop
      vertex 25 -14.2538 18.3813
      vertex 35 -9.86336 15.8465
      vertex 35 -14.2538 18.3813
    endloop
  endfacet
  facet normal -0 -0.5 -0.866025
    outer loop
      vertex 35 -9.86336 15.8465
      vertex 25 -14.2538 18.3813
      vertex 25 -9.86336 15.8465
    endloop
  endfacet
  facet normal 0 -0.309017 -0.951057
    outer loop
      vertex 25 -9.86336 15.8465
      vertex 35 -5.04186 14.2799
      vertex 35 -9.86336 15.8465
    endloop
  endfacet
  facet normal -0 -0.309017 -0.951057
    outer loop
      vertex 35 -5.04186 14.2799
      vertex 25 -9.86336 15.8465
      vertex 25 -5.04186 14.2799
    endloop
  endfacet
  facet normal 0 -0.669131 -0.743145
    outer loop
      vertex 25 -18.0213 21.7736
      vertex 35 -14.2538 18.3813
      vertex 35 -18.0213 21.7736
    endloop
  endfacet
  facet normal -0 -0.669131 -0.743145
    outer loop
      vertex 35 -14.2538 18.3813
      vertex 25 -18.0213 21.7736
      vertex 25 -14.2538 18.3813
    endloop
  endfacet
  facet normal 0 0 1
    outer loop
      vertex 35 -21.3709 23
      vertex 36.5 -16.4108 23
      vertex 35 -18.9123 23
    endloop
  endfacet
  facet normal 0 0 1
    outer loop
      vertex 36.5 -16.4108 23
      vertex 25 -18.9123 23
      vertex 35 -18.9123 23
    endloop
  endfacet
  facet normal 0 0 1
    outer loop
      vertex 25 -18.9123 23
      vertex -25 -18.9123 23
      vertex 25 -21.3709 23
    endloop
  endfacet
  facet normal 0 0 1
    outer loop
      vertex 36.5 -16.4108 23
      vertex -25 -18.9123 23
      vertex 25 -18.9123 23
    endloop
  endfacet
  facet normal -0 0 1
    outer loop
      vertex -36.5 -16.4108 23
      vertex -25 -18.9123 23
      vertex 36.5 -16.4108 23
    endloop
  endfacet
  facet normal 0 0 1
    outer loop
      vertex -35 -18.9123 23
      vertex -36.5 -16.4108 23
      vertex -35 -21.3709 23
    endloop
  endfacet
  facet normal 0 0 1
    outer loop
      vertex -25 -18.9123 23
      vertex -36.5 -16.4108 23
      vertex -35 -18.9123 23
    endloop
  endfacet
  facet normal 0 0 1
    outer loop
      vertex 36.5 -16.4108 23
      vertex 35 -21.3709 23
      vertex 36.5 -29 23
    endloop
  endfacet
  facet normal -0 0 1
    outer loop
      vertex 25 -21.3709 23
      vertex 36.5 -29 23
      vertex 35 -21.3709 23
    endloop
  endfacet
  facet normal 0 0 1
    outer loop
      vertex -25 -21.3709 23
      vertex 25 -21.3709 23
      vertex -25 -18.9123 23
    endloop
  endfacet
  facet normal 0 0 1
    outer loop
      vertex 25 -21.3709 23
      vertex -25 -21.3709 23
      vertex 36.5 -29 23
    endloop
  endfacet
  facet normal 0 0 1
    outer loop
      vertex -36.5 -29 23
      vertex -25 -21.3709 23
      vertex -35 -21.3709 23
    endloop
  endfacet
  facet normal 0 0 1
    outer loop
      vertex -25 -21.3709 23
      vertex -36.5 -29 23
      vertex 36.5 -29 23
    endloop
  endfacet
  facet normal 0 0 1
    outer loop
      vertex -36.5 -29 23
      vertex -35 -21.3709 23
      vertex -36.5 -16.4108 23
    endloop
  endfacet
  facet normal 0 0 1
    outer loop
      vertex 36.5 29 23
      vertex 35 21.3709 23
      vertex 36.5 16.4108 23
    endloop
  endfacet
  facet normal 0 0 1
    outer loop
      vertex 36.5 29 23
      vertex 25 21.3709 23
      vertex 35 21.3709 23
    endloop
  endfacet
  facet normal 0 0 1
    outer loop
      vertex 25 21.3709 23
      vertex -25 21.3709 23
      vertex 25 18.9123 23
    endloop
  endfacet
  facet normal 0 0 1
    outer loop
      vertex 36.5 29 23
      vertex -25 21.3709 23
      vertex 25 21.3709 23
    endloop
  endfacet
  facet normal -0 0 1
    outer loop
      vertex -36.5 29 23
      vertex -25 21.3709 23
      vertex 36.5 29 23
    endloop
  endfacet
  facet normal 0 0 1
    outer loop
      vertex -36.5 16.4108 23
      vertex -35 21.3709 23
      vertex -36.5 29 23
    endloop
  endfacet
  facet normal 0 0 1
    outer loop
      vertex -25 21.3709 23
      vertex -36.5 29 23
      vertex -35 21.3709 23
    endloop
  endfacet
  facet normal -0 0 1
    outer loop
      vertex 35 18.9123 23
      vertex 36.5 16.4108 23
      vertex 35 21.3709 23
    endloop
  endfacet
  facet normal -0 0 1
    outer loop
      vertex 25 18.9123 23
      vertex 36.5 16.4108 23
      vertex 35 18.9123 23
    endloop
  endfacet
  facet normal 0 0 1
    outer loop
      vertex -25 18.9123 23
      vertex 25 18.9123 23
      vertex -25 21.3709 23
    endloop
  endfacet
  facet normal 0 0 1
    outer loop
      vertex 25 18.9123 23
      vertex -25 18.9123 23
      vertex 36.5 16.4108 23
    endloop
  endfacet
  facet normal 0 0 1
    outer loop
      vertex -36.5 16.4108 23
      vertex -25 18.9123 23
      vertex -35 18.9123 23
    endloop
  endfacet
  facet normal 0 0 1
    outer loop
      vertex -25 18.9123 23
      vertex -36.5 16.4108 23
      vertex 36.5 16.4108 23
    endloop
  endfacet
  facet normal 0 0 1
    outer loop
      vertex -35 21.3709 23
      vertex -36.5 16.4108 23
      vertex -35 18.9123 23
    endloop
  endfacet
  facet normal 0 -0.104528 0.994522
    outer loop
      vertex -36.5 4.62603 16.2362
      vertex 36.5 0 15.75
      vertex 36.5 4.62603 16.2362
    endloop
  endfacet
  facet normal 0 -0.104528 0.994522
    outer loop
      vertex 36.5 0 15.75
      vertex -36.5 4.62603 16.2362
      vertex -36.5 0 15.75
    endloop
  endfacet
  facet normal 0 -0.669131 0.743145
    outer loop
      vertex -36.5 16.4108 23
      vertex 36.5 13.0782 19.9994
      vertex 36.5 16.4108 23
    endloop
  endfacet
  facet normal 0 -0.669131 0.743145
    outer loop
      vertex 36.5 13.0782 19.9994
      vertex -36.5 16.4108 23
      vertex -36.5 13.0782 19.9994
    endloop
  endfacet
  facet normal -0 0.309017 0.951056
    outer loop
      vertex -36.5 -4.62603 16.2362
      vertex 36.5 -9.04989 17.6736
      vertex 36.5 -4.62603 16.2362
    endloop
  endfacet
  facet normal 0 0.309017 0.951056
    outer loop
      vertex 36.5 -9.04989 17.6736
      vertex -36.5 -4.62603 16.2362
      vertex -36.5 -9.04989 17.6736
    endloop
  endfacet
  facet normal -0 0.104528 0.994522
    outer loop
      vertex -36.5 0 15.75
      vertex 36.5 -4.62603 16.2362
      vertex 36.5 0 15.75
    endloop
  endfacet
  facet normal 0 0.104528 0.994522
    outer loop
      vertex 36.5 -4.62603 16.2362
      vertex -36.5 0 15.75
      vertex -36.5 -4.62603 16.2362
    endloop
  endfacet
  facet normal 0 -0.309017 0.951056
    outer loop
      vertex -36.5 9.04989 17.6736
      vertex 36.5 4.62603 16.2362
      vertex 36.5 9.04989 17.6736
    endloop
  endfacet
  facet normal 0 -0.309017 0.951056
    outer loop
      vertex 36.5 4.62603 16.2362
      vertex -36.5 9.04989 17.6736
      vertex -36.5 4.62603 16.2362
    endloop
  endfacet
  facet normal -0 0.5 0.866026
    outer loop
      vertex -36.5 -9.04989 17.6736
      vertex 36.5 -13.0782 19.9994
      vertex 36.5 -9.04989 17.6736
    endloop
  endfacet
  facet normal 0 0.5 0.866026
    outer loop
      vertex 36.5 -13.0782 19.9994
      vertex -36.5 -9.04989 17.6736
      vertex -36.5 -13.0782 19.9994
    endloop
  endfacet
  facet normal 0 -0.5 0.866026
    outer loop
      vertex -36.5 13.0782 19.9994
      vertex 36.5 9.04989 17.6736
      vertex 36.5 13.0782 19.9994
    endloop
  endfacet
  facet normal 0 -0.5 0.866026
    outer loop
      vertex 36.5 9.04989 17.6736
      vertex -36.5 13.0782 19.9994
      vertex -36.5 9.04989 17.6736
    endloop
  endfacet
  facet normal -0 0.669131 0.743145
    outer loop
      vertex -36.5 -13.0782 19.9994
      vertex 36.5 -16.4108 23
      vertex 36.5 -13.0782 19.9994
    endloop
  endfacet
  facet normal 0 0.669131 0.743145
    outer loop
      vertex 36.5 -16.4108 23
      vertex -36.5 -13.0782 19.9994
      vertex -36.5 -16.4108 23
    endloop
  endfacet
  facet normal 0.939692 0.342021 0
    outer loop
      vertex -26.25 -22.5 13
      vertex -26.8934 -20.7323 5.5
      vertex -26.8934 -20.7323 13
    endloop
  endfacet
  facet normal 0.939692 0.342021 0
    outer loop
      vertex -26.8934 -20.7323 5.5
      vertex -26.25 -22.5 13
      vertex -26.25 -22.5 5.5
    endloop
  endfacet
  facet normal -1 0 0
    outer loop
      vertex -31.5842 -23.4406 5.5
      vertex -31.5842 -21.5594 13
      vertex -31.5842 -21.5594 5.5
    endloop
  endfacet
  facet normal -1 -0 0
    outer loop
      vertex -31.5842 -21.5594 13
      vertex -31.5842 -23.4406 5.5
      vertex -31.5842 -23.4406 13
    endloop
  endfacet
  facet normal 0 0 -1
    outer loop
      vertex -27.25 -22.5 5.5
      vertex -26.25 -22.5 5.5
      vertex -26.8934 -24.2677 5.5
    endloop
  endfacet
  facet normal 0 0 -1
    outer loop
      vertex -26.25 -22.5 5.5
      vertex -27.25 -22.5 5.5
      vertex -26.8934 -20.7323 5.5
    endloop
  endfacet
  facet normal 0 0 -1
    outer loop
      vertex -26.8934 -24.2677 5.5
      vertex -28.125 -24.0155 5.5
      vertex -27.25 -22.5 5.5
    endloop
  endfacet
  facet normal 0 0 -1
    outer loop
      vertex -28.5225 -25.2082 5.5
      vertex -28.125 -24.0155 5.5
      vertex -26.8934 -24.2677 5.5
    endloop
  endfacet
  facet normal 0 0 -1
    outer loop
      vertex -28.5225 -25.2082 5.5
      vertex -29.875 -24.0155 5.5
      vertex -28.125 -24.0155 5.5
    endloop
  endfacet
  facet normal 0 0 -1
    outer loop
      vertex -30.375 -24.8816 5.5
      vertex -29.875 -24.0155 5.5
      vertex -28.5225 -25.2082 5.5
    endloop
  endfacet
  facet normal 0 0 -1
    outer loop
      vertex -31.5842 -23.4406 5.5
      vertex -29.875 -24.0155 5.5
      vertex -30.375 -24.8816 5.5
    endloop
  endfacet
  facet normal 0 0 -1
    outer loop
      vertex -29.875 -24.0155 5.5
      vertex -31.5842 -23.4406 5.5
      vertex -30.75 -22.5 5.5
    endloop
  endfacet
  facet normal 0 0 -1
    outer loop
      vertex -28.125 -20.9845 5.5
      vertex -26.8934 -20.7323 5.5
      vertex -27.25 -22.5 5.5
    endloop
  endfacet
  facet normal 0 0 -1
    outer loop
      vertex -28.125 -20.9845 5.5
      vertex -28.5225 -19.7918 5.5
      vertex -26.8934 -20.7323 5.5
    endloop
  endfacet
  facet normal 0 0 -1
    outer loop
      vertex -29.875 -20.9845 5.5
      vertex -28.5225 -19.7918 5.5
      vertex -28.125 -20.9845 5.5
    endloop
  endfacet
  facet normal 0 0 -1
    outer loop
      vertex -29.875 -20.9845 5.5
      vertex -30.375 -20.1184 5.5
      vertex -28.5225 -19.7918 5.5
    endloop
  endfacet
  facet normal 0 0 -1
    outer loop
      vertex -31.5842 -21.5594 5.5
      vertex -29.875 -20.9845 5.5
      vertex -30.75 -22.5 5.5
    endloop
  endfacet
  facet normal 0 0 -1
    outer loop
      vertex -31.5842 -21.5594 5.5
      vertex -30.75 -22.5 5.5
      vertex -31.5842 -23.4406 5.5
    endloop
  endfacet
  facet normal -0 0 -1
    outer loop
      vertex -29.875 -20.9845 5.5
      vertex -31.5842 -21.5594 5.5
      vertex -30.375 -20.1184 5.5
    endloop
  endfacet
  facet normal -0.173649 0.984808 0
    outer loop
      vertex -28.5225 -19.7918 5.5
      vertex -30.375 -20.1184 13
      vertex -28.5225 -19.7918 13
    endloop
  endfacet
  facet normal -0.173649 0.984808 0
    outer loop
      vertex -30.375 -20.1184 13
      vertex -28.5225 -19.7918 5.5
      vertex -30.375 -20.1184 5.5
    endloop
  endfacet
  facet normal 0.5 0.866025 -0
    outer loop
      vertex -26.8934 -20.7323 5.5
      vertex -28.5225 -19.7918 13
      vertex -26.8934 -20.7323 13
    endloop
  endfacet
  facet normal 0.5 0.866025 0
    outer loop
      vertex -28.5225 -19.7918 13
      vertex -26.8934 -20.7323 5.5
      vertex -28.5225 -19.7918 5.5
    endloop
  endfacet
  facet normal -0.766044 0.642788 0
    outer loop
      vertex -31.5842 -21.5594 5.5
      vertex -30.375 -20.1184 13
      vertex -30.375 -20.1184 5.5
    endloop
  endfacet
  facet normal -0.766044 0.642788 0
    outer loop
      vertex -30.375 -20.1184 13
      vertex -31.5842 -21.5594 5.5
      vertex -31.5842 -21.5594 13
    endloop
  endfacet
  facet normal 0.5 -0.866025 0
    outer loop
      vertex -28.5225 -25.2082 5.5
      vertex -26.8934 -24.2677 13
      vertex -28.5225 -25.2082 13
    endloop
  endfacet
  facet normal 0.5 -0.866025 0
    outer loop
      vertex -26.8934 -24.2677 13
      vertex -28.5225 -25.2082 5.5
      vertex -26.8934 -24.2677 5.5
    endloop
  endfacet
  facet normal 0.939692 -0.342021 0
    outer loop
      vertex -26.8934 -24.2677 13
      vertex -26.25 -22.5 5.5
      vertex -26.25 -22.5 13
    endloop
  endfacet
  facet normal 0.939692 -0.342021 0
    outer loop
      vertex -26.25 -22.5 5.5
      vertex -26.8934 -24.2677 13
      vertex -26.8934 -24.2677 5.5
    endloop
  endfacet
  facet normal -0.173649 -0.984808 0
    outer loop
      vertex -30.375 -24.8816 5.5
      vertex -28.5225 -25.2082 13
      vertex -30.375 -24.8816 13
    endloop
  endfacet
  facet normal -0.173649 -0.984808 -0
    outer loop
      vertex -28.5225 -25.2082 13
      vertex -30.375 -24.8816 5.5
      vertex -28.5225 -25.2082 5.5
    endloop
  endfacet
  facet normal -0.766044 -0.642788 0
    outer loop
      vertex -30.375 -24.8816 5.5
      vertex -31.5842 -23.4406 13
      vertex -31.5842 -23.4406 5.5
    endloop
  endfacet
  facet normal -0.766044 -0.642788 0
    outer loop
      vertex -31.5842 -23.4406 13
      vertex -30.375 -24.8816 5.5
      vertex -30.375 -24.8816 13
    endloop
  endfacet
  facet normal -0.866025 -0.5 0
    outer loop
      vertex -27.25 -22.5 5.5
      vertex -28.125 -20.9845 13
      vertex -28.125 -20.9845 5.5
    endloop
  endfacet
  facet normal -0.866025 -0.5 0
    outer loop
      vertex -28.125 -20.9845 13
      vertex -27.25 -22.5 5.5
      vertex -27.25 -22.5 13
    endloop
  endfacet
  facet normal 0.866025 -0.5 0
    outer loop
      vertex -30.75 -22.5 13
      vertex -29.875 -20.9845 5.5
      vertex -29.875 -20.9845 13
    endloop
  endfacet
  facet normal 0.866025 -0.5 0
    outer loop
      vertex -29.875 -20.9845 5.5
      vertex -30.75 -22.5 13
      vertex -30.75 -22.5 5.5
    endloop
  endfacet
  facet normal 0 -1 0
    outer loop
      vertex -29.875 -20.9845 5.5
      vertex -28.125 -20.9845 13
      vertex -29.875 -20.9845 13
    endloop
  endfacet
  facet normal 0 -1 -0
    outer loop
      vertex -28.125 -20.9845 13
      vertex -29.875 -20.9845 5.5
      vertex -28.125 -20.9845 5.5
    endloop
  endfacet
  facet normal -0.866025 0.5 0
    outer loop
      vertex -28.125 -24.0155 5.5
      vertex -27.25 -22.5 13
      vertex -27.25 -22.5 5.5
    endloop
  endfacet
  facet normal -0.866025 0.5 0
    outer loop
      vertex -27.25 -22.5 13
      vertex -28.125 -24.0155 5.5
      vertex -28.125 -24.0155 13
    endloop
  endfacet
  facet normal 0 1 -0
    outer loop
      vertex -28.125 -24.0155 5.5
      vertex -29.875 -24.0155 13
      vertex -28.125 -24.0155 13
    endloop
  endfacet
  facet normal 0 1 0
    outer loop
      vertex -29.875 -24.0155 13
      vertex -28.125 -24.0155 5.5
      vertex -29.875 -24.0155 5.5
    endloop
  endfacet
  facet normal 0.866025 0.5 0
    outer loop
      vertex -29.875 -24.0155 13
      vertex -30.75 -22.5 5.5
      vertex -30.75 -22.5 13
    endloop
  endfacet
  facet normal 0.866025 0.5 0
    outer loop
      vertex -30.75 -22.5 5.5
      vertex -29.875 -24.0155 13
      vertex -29.875 -24.0155 5.5
    endloop
  endfacet
  facet normal 0.939692 0.342021 0
    outer loop
      vertex 33.75 -22.5 13
      vertex 33.1066 -20.7323 5.5
      vertex 33.1066 -20.7323 13
    endloop
  endfacet
  facet normal 0.939692 0.342021 0
    outer loop
      vertex 33.1066 -20.7323 5.5
      vertex 33.75 -22.5 13
      vertex 33.75 -22.5 5.5
    endloop
  endfacet
  facet normal -1 0 0
    outer loop
      vertex 28.4158 -23.4406 5.5
      vertex 28.4158 -21.5594 13
      vertex 28.4158 -21.5594 5.5
    endloop
  endfacet
  facet normal -1 -0 0
    outer loop
      vertex 28.4158 -21.5594 13
      vertex 28.4158 -23.4406 5.5
      vertex 28.4158 -23.4406 13
    endloop
  endfacet
  facet normal 0 0 -1
    outer loop
      vertex 32.75 -22.5 5.5
      vertex 33.75 -22.5 5.5
      vertex 33.1066 -24.2677 5.5
    endloop
  endfacet
  facet normal 0 0 -1
    outer loop
      vertex 33.75 -22.5 5.5
      vertex 32.75 -22.5 5.5
      vertex 33.1066 -20.7323 5.5
    endloop
  endfacet
  facet normal 0 0 -1
    outer loop
      vertex 33.1066 -24.2677 5.5
      vertex 31.875 -24.0155 5.5
      vertex 32.75 -22.5 5.5
    endloop
  endfacet
  facet normal 0 0 -1
    outer loop
      vertex 31.4775 -25.2082 5.5
      vertex 31.875 -24.0155 5.5
      vertex 33.1066 -24.2677 5.5
    endloop
  endfacet
  facet normal 0 0 -1
    outer loop
      vertex 31.4775 -25.2082 5.5
      vertex 30.125 -24.0155 5.5
      vertex 31.875 -24.0155 5.5
    endloop
  endfacet
  facet normal 0 0 -1
    outer loop
      vertex 29.625 -24.8816 5.5
      vertex 30.125 -24.0155 5.5
      vertex 31.4775 -25.2082 5.5
    endloop
  endfacet
  facet normal 0 0 -1
    outer loop
      vertex 28.4158 -23.4406 5.5
      vertex 30.125 -24.0155 5.5
      vertex 29.625 -24.8816 5.5
    endloop
  endfacet
  facet normal 0 0 -1
    outer loop
      vertex 30.125 -24.0155 5.5
      vertex 28.4158 -23.4406 5.5
      vertex 29.25 -22.5 5.5
    endloop
  endfacet
  facet normal 0 0 -1
    outer loop
      vertex 31.875 -20.9845 5.5
      vertex 33.1066 -20.7323 5.5
      vertex 32.75 -22.5 5.5
    endloop
  endfacet
  facet normal 0 0 -1
    outer loop
      vertex 31.875 -20.9845 5.5
      vertex 31.4775 -19.7918 5.5
      vertex 33.1066 -20.7323 5.5
    endloop
  endfacet
  facet normal 0 0 -1
    outer loop
      vertex 30.125 -20.9845 5.5
      vertex 31.4775 -19.7918 5.5
      vertex 31.875 -20.9845 5.5
    endloop
  endfacet
  facet normal 0 0 -1
    outer loop
      vertex 30.125 -20.9845 5.5
      vertex 29.625 -20.1184 5.5
      vertex 31.4775 -19.7918 5.5
    endloop
  endfacet
  facet normal 0 0 -1
    outer loop
      vertex 28.4158 -21.5594 5.5
      vertex 30.125 -20.9845 5.5
      vertex 29.25 -22.5 5.5
    endloop
  endfacet
  facet normal 0 0 -1
    outer loop
      vertex 28.4158 -21.5594 5.5
      vertex 29.25 -22.5 5.5
      vertex 28.4158 -23.4406 5.5
    endloop
  endfacet
  facet normal -0 0 -1
    outer loop
      vertex 30.125 -20.9845 5.5
      vertex 28.4158 -21.5594 5.5
      vertex 29.625 -20.1184 5.5
    endloop
  endfacet
  facet normal -0.173649 0.984808 0
    outer loop
      vertex 31.4775 -19.7918 5.5
      vertex 29.625 -20.1184 13
      vertex 31.4775 -19.7918 13
    endloop
  endfacet
  facet normal -0.173649 0.984808 0
    outer loop
      vertex 29.625 -20.1184 13
      vertex 31.4775 -19.7918 5.5
      vertex 29.625 -20.1184 5.5
    endloop
  endfacet
  facet normal 0.5 0.866025 -0
    outer loop
      vertex 33.1066 -20.7323 5.5
      vertex 31.4775 -19.7918 13
      vertex 33.1066 -20.7323 13
    endloop
  endfacet
  facet normal 0.5 0.866025 0
    outer loop
      vertex 31.4775 -19.7918 13
      vertex 33.1066 -20.7323 5.5
      vertex 31.4775 -19.7918 5.5
    endloop
  endfacet
  facet normal -0.766044 0.642788 0
    outer loop
      vertex 28.4158 -21.5594 5.5
      vertex 29.625 -20.1184 13
      vertex 29.625 -20.1184 5.5
    endloop
  endfacet
  facet normal -0.766044 0.642788 0
    outer loop
      vertex 29.625 -20.1184 13
      vertex 28.4158 -21.5594 5.5
      vertex 28.4158 -21.5594 13
    endloop
  endfacet
  facet normal 0.5 -0.866025 0
    outer loop
      vertex 31.4775 -25.2082 5.5
      vertex 33.1066 -24.2677 13
      vertex 31.4775 -25.2082 13
    endloop
  endfacet
  facet normal 0.5 -0.866025 0
    outer loop
      vertex 33.1066 -24.2677 13
      vertex 31.4775 -25.2082 5.5
      vertex 33.1066 -24.2677 5.5
    endloop
  endfacet
  facet normal 0.939692 -0.342021 0
    outer loop
      vertex 33.1066 -24.2677 13
      vertex 33.75 -22.5 5.5
      vertex 33.75 -22.5 13
    endloop
  endfacet
  facet normal 0.939692 -0.342021 0
    outer loop
      vertex 33.75 -22.5 5.5
      vertex 33.1066 -24.2677 13
      vertex 33.1066 -24.2677 5.5
    endloop
  endfacet
  facet normal -0.173649 -0.984808 0
    outer loop
      vertex 29.625 -24.8816 5.5
      vertex 31.4775 -25.2082 13
      vertex 29.625 -24.8816 13
    endloop
  endfacet
  facet normal -0.173649 -0.984808 -0
    outer loop
      vertex 31.4775 -25.2082 13
      vertex 29.625 -24.8816 5.5
      vertex 31.4775 -25.2082 5.5
    endloop
  endfacet
  facet normal -0.766044 -0.642788 0
    outer loop
      vertex 29.625 -24.8816 5.5
      vertex 28.4158 -23.4406 13
      vertex 28.4158 -23.4406 5.5
    endloop
  endfacet
  facet normal -0.766044 -0.642788 0
    outer loop
      vertex 28.4158 -23.4406 13
      vertex 29.625 -24.8816 5.5
      vertex 29.625 -24.8816 13
    endloop
  endfacet
  facet normal -0.866025 -0.5 0
    outer loop
      vertex 32.75 -22.5 5.5
      vertex 31.875 -20.9845 13
      vertex 31.875 -20.9845 5.5
    endloop
  endfacet
  facet normal -0.866025 -0.5 0
    outer loop
      vertex 31.875 -20.9845 13
      vertex 32.75 -22.5 5.5
      vertex 32.75 -22.5 13
    endloop
  endfacet
  facet normal 0.866025 -0.5 0
    outer loop
      vertex 29.25 -22.5 13
      vertex 30.125 -20.9845 5.5
      vertex 30.125 -20.9845 13
    endloop
  endfacet
  facet normal 0.866025 -0.5 0
    outer loop
      vertex 30.125 -20.9845 5.5
      vertex 29.25 -22.5 13
      vertex 29.25 -22.5 5.5
    endloop
  endfacet
  facet normal 0 -1 0
    outer loop
      vertex 30.125 -20.9845 5.5
      vertex 31.875 -20.9845 13
      vertex 30.125 -20.9845 13
    endloop
  endfacet
  facet normal 0 -1 -0
    outer loop
      vertex 31.875 -20.9845 13
      vertex 30.125 -20.9845 5.5
      vertex 31.875 -20.9845 5.5
    endloop
  endfacet
  facet normal -0.866025 0.5 0
    outer loop
      vertex 31.875 -24.0155 5.5
      vertex 32.75 -22.5 13
      vertex 32.75 -22.5 5.5
    endloop
  endfacet
  facet normal -0.866025 0.5 0
    outer loop
      vertex 32.75 -22.5 13
      vertex 31.875 -24.0155 5.5
      vertex 31.875 -24.0155 13
    endloop
  endfacet
  facet normal 0 1 -0
    outer loop
      vertex 31.875 -24.0155 5.5
      vertex 30.125 -24.0155 13
      vertex 31.875 -24.0155 13
    endloop
  endfacet
  facet normal 0 1 0
    outer loop
      vertex 30.125 -24.0155 13
      vertex 31.875 -24.0155 5.5
      vertex 30.125 -24.0155 5.5
    endloop
  endfacet
  facet normal 0.866025 0.5 0
    outer loop
      vertex 30.125 -24.0155 13
      vertex 29.25 -22.5 5.5
      vertex 29.25 -22.5 13
    endloop
  endfacet
  facet normal 0.866025 0.5 0
    outer loop
      vertex 29.25 -22.5 5.5
      vertex 30.125 -24.0155 13
      vertex 30.125 -24.0155 5.5
    endloop
  endfacet
  facet normal 0.939692 0.342021 0
    outer loop
      vertex -26.25 22.5 13
      vertex -26.8934 24.2677 5.5
      vertex -26.8934 24.2677 13
    endloop
  endfacet
  facet normal 0.939692 0.342021 0
    outer loop
      vertex -26.8934 24.2677 5.5
      vertex -26.25 22.5 13
      vertex -26.25 22.5 5.5
    endloop
  endfacet
  facet normal -1 0 0
    outer loop
      vertex -31.5842 21.5594 5.5
      vertex -31.5842 23.4406 13
      vertex -31.5842 23.4406 5.5
    endloop
  endfacet
  facet normal -1 -0 0
    outer loop
      vertex -31.5842 23.4406 13
      vertex -31.5842 21.5594 5.5
      vertex -31.5842 21.5594 13
    endloop
  endfacet
  facet normal 0 0 -1
    outer loop
      vertex -27.25 22.5 5.5
      vertex -26.25 22.5 5.5
      vertex -26.8934 20.7323 5.5
    endloop
  endfacet
  facet normal 0 0 -1
    outer loop
      vertex -26.25 22.5 5.5
      vertex -27.25 22.5 5.5
      vertex -26.8934 24.2677 5.5
    endloop
  endfacet
  facet normal 0 0 -1
    outer loop
      vertex -26.8934 20.7323 5.5
      vertex -28.125 20.9845 5.5
      vertex -27.25 22.5 5.5
    endloop
  endfacet
  facet normal 0 0 -1
    outer loop
      vertex -28.5225 19.7918 5.5
      vertex -28.125 20.9845 5.5
      vertex -26.8934 20.7323 5.5
    endloop
  endfacet
  facet normal 0 0 -1
    outer loop
      vertex -28.5225 19.7918 5.5
      vertex -29.875 20.9845 5.5
      vertex -28.125 20.9845 5.5
    endloop
  endfacet
  facet normal 0 0 -1
    outer loop
      vertex -30.375 20.1184 5.5
      vertex -29.875 20.9845 5.5
      vertex -28.5225 19.7918 5.5
    endloop
  endfacet
  facet normal 0 0 -1
    outer loop
      vertex -31.5842 21.5594 5.5
      vertex -29.875 20.9845 5.5
      vertex -30.375 20.1184 5.5
    endloop
  endfacet
  facet normal 0 0 -1
    outer loop
      vertex -29.875 20.9845 5.5
      vertex -31.5842 21.5594 5.5
      vertex -30.75 22.5 5.5
    endloop
  endfacet
  facet normal 0 0 -1
    outer loop
      vertex -28.125 24.0155 5.5
      vertex -26.8934 24.2677 5.5
      vertex -27.25 22.5 5.5
    endloop
  endfacet
  facet normal 0 0 -1
    outer loop
      vertex -28.125 24.0155 5.5
      vertex -28.5225 25.2082 5.5
      vertex -26.8934 24.2677 5.5
    endloop
  endfacet
  facet normal 0 0 -1
    outer loop
      vertex -29.875 24.0155 5.5
      vertex -28.5225 25.2082 5.5
      vertex -28.125 24.0155 5.5
    endloop
  endfacet
  facet normal 0 0 -1
    outer loop
      vertex -29.875 24.0155 5.5
      vertex -30.375 24.8816 5.5
      vertex -28.5225 25.2082 5.5
    endloop
  endfacet
  facet normal 0 0 -1
    outer loop
      vertex -31.5842 23.4406 5.5
      vertex -29.875 24.0155 5.5
      vertex -30.75 22.5 5.5
    endloop
  endfacet
  facet normal 0 0 -1
    outer loop
      vertex -31.5842 23.4406 5.5
      vertex -30.75 22.5 5.5
      vertex -31.5842 21.5594 5.5
    endloop
  endfacet
  facet normal -0 0 -1
    outer loop
      vertex -29.875 24.0155 5.5
      vertex -31.5842 23.4406 5.5
      vertex -30.375 24.8816 5.5
    endloop
  endfacet
  facet normal -0.173649 0.984808 0
    outer loop
      vertex -28.5225 25.2082 5.5
      vertex -30.375 24.8816 13
      vertex -28.5225 25.2082 13
    endloop
  endfacet
  facet normal -0.173649 0.984808 0
    outer loop
      vertex -30.375 24.8816 13
      vertex -28.5225 25.2082 5.5
      vertex -30.375 24.8816 5.5
    endloop
  endfacet
  facet normal 0.5 0.866025 -0
    outer loop
      vertex -26.8934 24.2677 5.5
      vertex -28.5225 25.2082 13
      vertex -26.8934 24.2677 13
    endloop
  endfacet
  facet normal 0.5 0.866025 0
    outer loop
      vertex -28.5225 25.2082 13
      vertex -26.8934 24.2677 5.5
      vertex -28.5225 25.2082 5.5
    endloop
  endfacet
  facet normal -0.766044 0.642788 0
    outer loop
      vertex -31.5842 23.4406 5.5
      vertex -30.375 24.8816 13
      vertex -30.375 24.8816 5.5
    endloop
  endfacet
  facet normal -0.766044 0.642788 0
    outer loop
      vertex -30.375 24.8816 13
      vertex -31.5842 23.4406 5.5
      vertex -31.5842 23.4406 13
    endloop
  endfacet
  facet normal 0.5 -0.866025 0
    outer loop
      vertex -28.5225 19.7918 5.5
      vertex -26.8934 20.7323 13
      vertex -28.5225 19.7918 13
    endloop
  endfacet
  facet normal 0.5 -0.866025 0
    outer loop
      vertex -26.8934 20.7323 13
      vertex -28.5225 19.7918 5.5
      vertex -26.8934 20.7323 5.5
    endloop
  endfacet
  facet normal 0.939692 -0.342021 0
    outer loop
      vertex -26.8934 20.7323 13
      vertex -26.25 22.5 5.5
      vertex -26.25 22.5 13
    endloop
  endfacet
  facet normal 0.939692 -0.342021 0
    outer loop
      vertex -26.25 22.5 5.5
      vertex -26.8934 20.7323 13
      vertex -26.8934 20.7323 5.5
    endloop
  endfacet
  facet normal -0.173649 -0.984808 0
    outer loop
      vertex -30.375 20.1184 5.5
      vertex -28.5225 19.7918 13
      vertex -30.375 20.1184 13
    endloop
  endfacet
  facet normal -0.173649 -0.984808 -0
    outer loop
      vertex -28.5225 19.7918 13
      vertex -30.375 20.1184 5.5
      vertex -28.5225 19.7918 5.5
    endloop
  endfacet
  facet normal -0.766044 -0.642788 0
    outer loop
      vertex -30.375 20.1184 5.5
      vertex -31.5842 21.5594 13
      vertex -31.5842 21.5594 5.5
    endloop
  endfacet
  facet normal -0.766044 -0.642788 0
    outer loop
      vertex -31.5842 21.5594 13
      vertex -30.375 20.1184 5.5
      vertex -30.375 20.1184 13
    endloop
  endfacet
  facet normal -0.866025 -0.5 0
    outer loop
      vertex -27.25 22.5 5.5
      vertex -28.125 24.0155 13
      vertex -28.125 24.0155 5.5
    endloop
  endfacet
  facet normal -0.866025 -0.5 0
    outer loop
      vertex -28.125 24.0155 13
      vertex -27.25 22.5 5.5
      vertex -27.25 22.5 13
    endloop
  endfacet
  facet normal 0.866025 -0.5 0
    outer loop
      vertex -30.75 22.5 13
      vertex -29.875 24.0155 5.5
      vertex -29.875 24.0155 13
    endloop
  endfacet
  facet normal 0.866025 -0.5 0
    outer loop
      vertex -29.875 24.0155 5.5
      vertex -30.75 22.5 13
      vertex -30.75 22.5 5.5
    endloop
  endfacet
  facet normal 0 -1 0
    outer loop
      vertex -29.875 24.0155 5.5
      vertex -28.125 24.0155 13
      vertex -29.875 24.0155 13
    endloop
  endfacet
  facet normal 0 -1 -0
    outer loop
      vertex -28.125 24.0155 13
      vertex -29.875 24.0155 5.5
      vertex -28.125 24.0155 5.5
    endloop
  endfacet
  facet normal -0.866025 0.5 0
    outer loop
      vertex -28.125 20.9845 5.5
      vertex -27.25 22.5 13
      vertex -27.25 22.5 5.5
    endloop
  endfacet
  facet normal -0.866025 0.5 0
    outer loop
      vertex -27.25 22.5 13
      vertex -28.125 20.9845 5.5
      vertex -28.125 20.9845 13
    endloop
  endfacet
  facet normal 0 1 -0
    outer loop
      vertex -28.125 20.9845 5.5
      vertex -29.875 20.9845 13
      vertex -28.125 20.9845 13
    endloop
  endfacet
  facet normal 0 1 0
    outer loop
      vertex -29.875 20.9845 13
      vertex -28.125 20.9845 5.5
      vertex -29.875 20.9845 5.5
    endloop
  endfacet
  facet normal 0.866025 0.5 0
    outer loop
      vertex -29.875 20.9845 13
      vertex -30.75 22.5 5.5
      vertex -30.75 22.5 13
    endloop
  endfacet
  facet normal 0.866025 0.5 0
    outer loop
      vertex -30.75 22.5 5.5
      vertex -29.875 20.9845 13
      vertex -29.875 20.9845 5.5
    endloop
  endfacet
  facet normal 0.939692 0.342021 0
    outer loop
      vertex 33.75 22.5 13
      vertex 33.1066 24.2677 5.5
      vertex 33.1066 24.2677 13
    endloop
  endfacet
  facet normal 0.939692 0.342021 0
    outer loop
      vertex 33.1066 24.2677 5.5
      vertex 33.75 22.5 13
      vertex 33.75 22.5 5.5
    endloop
  endfacet
  facet normal -1 0 0
    outer loop
      vertex 28.4158 21.5594 5.5
      vertex 28.4158 23.4406 13
      vertex 28.4158 23.4406 5.5
    endloop
  endfacet
  facet normal -1 -0 0
    outer loop
      vertex 28.4158 23.4406 13
      vertex 28.4158 21.5594 5.5
      vertex 28.4158 21.5594 13
    endloop
  endfacet
  facet normal 0 0 -1
    outer loop
      vertex 32.75 22.5 5.5
      vertex 33.75 22.5 5.5
      vertex 33.1066 20.7323 5.5
    endloop
  endfacet
  facet normal 0 0 -1
    outer loop
      vertex 33.75 22.5 5.5
      vertex 32.75 22.5 5.5
      vertex 33.1066 24.2677 5.5
    endloop
  endfacet
  facet normal 0 0 -1
    outer loop
      vertex 33.1066 20.7323 5.5
      vertex 31.875 20.9845 5.5
      vertex 32.75 22.5 5.5
    endloop
  endfacet
  facet normal 0 0 -1
    outer loop
      vertex 31.4775 19.7918 5.5
      vertex 31.875 20.9845 5.5
      vertex 33.1066 20.7323 5.5
    endloop
  endfacet
  facet normal 0 0 -1
    outer loop
      vertex 31.4775 19.7918 5.5
      vertex 30.125 20.9845 5.5
      vertex 31.875 20.9845 5.5
    endloop
  endfacet
  facet normal 0 0 -1
    outer loop
      vertex 29.625 20.1184 5.5
      vertex 30.125 20.9845 5.5
      vertex 31.4775 19.7918 5.5
    endloop
  endfacet
  facet normal 0 0 -1
    outer loop
      vertex 28.4158 21.5594 5.5
      vertex 30.125 20.9845 5.5
      vertex 29.625 20.1184 5.5
    endloop
  endfacet
  facet normal 0 0 -1
    outer loop
      vertex 30.125 20.9845 5.5
      vertex 28.4158 21.5594 5.5
      vertex 29.25 22.5 5.5
    endloop
  endfacet
  facet normal 0 0 -1
    outer loop
      vertex 31.875 24.0155 5.5
      vertex 33.1066 24.2677 5.5
      vertex 32.75 22.5 5.5
    endloop
  endfacet
  facet normal 0 0 -1
    outer loop
      vertex 31.875 24.0155 5.5
      vertex 31.4775 25.2082 5.5
      vertex 33.1066 24.2677 5.5
    endloop
  endfacet
  facet normal 0 0 -1
    outer loop
      vertex 30.125 24.0155 5.5
      vertex 31.4775 25.2082 5.5
      vertex 31.875 24.0155 5.5
    endloop
  endfacet
  facet normal 0 0 -1
    outer loop
      vertex 30.125 24.0155 5.5
      vertex 29.625 24.8816 5.5
      vertex 31.4775 25.2082 5.5
    endloop
  endfacet
  facet normal 0 0 -1
    outer loop
      vertex 28.4158 23.4406 5.5
      vertex 30.125 24.0155 5.5
      vertex 29.25 22.5 5.5
    endloop
  endfacet
  facet normal 0 0 -1
    outer loop
      vertex 28.4158 23.4406 5.5
      vertex 29.25 22.5 5.5
      vertex 28.4158 21.5594 5.5
    endloop
  endfacet
  facet normal -0 0 -1
    outer loop
      vertex 30.125 24.0155 5.5
      vertex 28.4158 23.4406 5.5
      vertex 29.625 24.8816 5.5
    endloop
  endfacet
  facet normal -0.173649 0.984808 0
    outer loop
      vertex 31.4775 25.2082 5.5
      vertex 29.625 24.8816 13
      vertex 31.4775 25.2082 13
    endloop
  endfacet
  facet normal -0.173649 0.984808 0
    outer loop
      vertex 29.625 24.8816 13
      vertex 31.4775 25.2082 5.5
      vertex 29.625 24.8816 5.5
    endloop
  endfacet
  facet normal 0.5 0.866025 -0
    outer loop
      vertex 33.1066 24.2677 5.5
      vertex 31.4775 25.2082 13
      vertex 33.1066 24.2677 13
    endloop
  endfacet
  facet normal 0.5 0.866025 0
    outer loop
      vertex 31.4775 25.2082 13
      vertex 33.1066 24.2677 5.5
      vertex 31.4775 25.2082 5.5
    endloop
  endfacet
  facet normal -0.766044 0.642788 0
    outer loop
      vertex 28.4158 23.4406 5.5
      vertex 29.625 24.8816 13
      vertex 29.625 24.8816 5.5
    endloop
  endfacet
  facet normal -0.766044 0.642788 0
    outer loop
      vertex 29.625 24.8816 13
      vertex 28.4158 23.4406 5.5
      vertex 28.4158 23.4406 13
    endloop
  endfacet
  facet normal 0.5 -0.866025 0
    outer loop
      vertex 31.4775 19.7918 5.5
      vertex 33.1066 20.7323 13
      vertex 31.4775 19.7918 13
    endloop
  endfacet
  facet normal 0.5 -0.866025 0
    outer loop
      vertex 33.1066 20.7323 13
      vertex 31.4775 19.7918 5.5
      vertex 33.1066 20.7323 5.5
    endloop
  endfacet
  facet normal 0.939692 -0.342021 0
    outer loop
      vertex 33.1066 20.7323 13
      vertex 33.75 22.5 5.5
      vertex 33.75 22.5 13
    endloop
  endfacet
  facet normal 0.939692 -0.342021 0
    outer loop
      vertex 33.75 22.5 5.5
      vertex 33.1066 20.7323 13
      vertex 33.1066 20.7323 5.5
    endloop
  endfacet
  facet normal -0.173649 -0.984808 0
    outer loop
      vertex 29.625 20.1184 5.5
      vertex 31.4775 19.7918 13
      vertex 29.625 20.1184 13
    endloop
  endfacet
  facet normal -0.173649 -0.984808 -0
    outer loop
      vertex 31.4775 19.7918 13
      vertex 29.625 20.1184 5.5
      vertex 31.4775 19.7918 5.5
    endloop
  endfacet
  facet normal -0.766044 -0.642788 0
    outer loop
      vertex 29.625 20.1184 5.5
      vertex 28.4158 21.5594 13
      vertex 28.4158 21.5594 5.5
    endloop
  endfacet
  facet normal -0.766044 -0.642788 0
    outer loop
      vertex 28.4158 21.5594 13
      vertex 29.625 20.1184 5.5
      vertex 29.625 20.1184 13
    endloop
  endfacet
  facet normal -0.866025 -0.5 0
    outer loop
      vertex 32.75 22.5 5.5
      vertex 31.875 24.0155 13
      vertex 31.875 24.0155 5.5
    endloop
  endfacet
  facet normal -0.866025 -0.5 0
    outer loop
      vertex 31.875 24.0155 13
      vertex 32.75 22.5 5.5
      vertex 32.75 22.5 13
    endloop
  endfacet
  facet normal 0.866025 -0.5 0
    outer loop
      vertex 29.25 22.5 13
      vertex 30.125 24.0155 5.5
      vertex 30.125 24.0155 13
    endloop
  endfacet
  facet normal 0.866025 -0.5 0
    outer loop
      vertex 30.125 24.0155 5.5
      vertex 29.25 22.5 13
      vertex 29.25 22.5 5.5
    endloop
  endfacet
  facet normal 0 -1 0
    outer loop
      vertex 30.125 24.0155 5.5
      vertex 31.875 24.0155 13
      vertex 30.125 24.0155 13
    endloop
  endfacet
  facet normal 0 -1 -0
    outer loop
      vertex 31.875 24.0155 13
      vertex 30.125 24.0155 5.5
      vertex 31.875 24.0155 5.5
    endloop
  endfacet
  facet normal -0.866025 0.5 0
    outer loop
      vertex 31.875 20.9845 5.5
      vertex 32.75 22.5 13
      vertex 32.75 22.5 5.5
    endloop
  endfacet
  facet normal -0.866025 0.5 0
    outer loop
      vertex 32.75 22.5 13
      vertex 31.875 20.9845 5.5
      vertex 31.875 20.9845 13
    endloop
  endfacet
  facet normal 0 1 -0
    outer loop
      vertex 31.875 20.9845 5.5
      vertex 30.125 20.9845 13
      vertex 31.875 20.9845 13
    endloop
  endfacet
  facet normal 0 1 0
    outer loop
      vertex 30.125 20.9845 13
      vertex 31.875 20.9845 5.5
      vertex 30.125 20.9845 5.5
    endloop
  endfacet
  facet normal 0.866025 0.5 0
    outer loop
      vertex 30.125 20.9845 13
      vertex 29.25 22.5 5.5
      vertex 29.25 22.5 13
    endloop
  endfacet
  facet normal 0.866025 0.5 0
    outer loop
      vertex 29.25 22.5 5.5
      vertex 30.125 20.9845 13
      vertex 30.125 20.9845 5.5
    endloop
  endfacet
endsolid OpenSCAD_Model
