solid OpenSCAD_Model
  facet normal -1 0 0
    outer loop
      vertex -36.5 25 2
      vertex -36.5 29 -13
      vertex -36.5 25 -3
    endloop
  endfacet
  facet normal -1 0 0
    outer loop
      vertex -36.5 29 -13
      vertex -36.5 -25 -3
      vertex -36.5 25 -3
    endloop
  endfacet
  facet normal -1 -0 0
    outer loop
      vertex -36.5 -25 -3
      vertex -36.5 -29 -13
      vertex -36.5 -25 2
    endloop
  endfacet
  facet normal -1 0 0
    outer loop
      vertex -36.5 -29 -13
      vertex -36.5 -25 -3
      vertex -36.5 29 -13
    endloop
  endfacet
  facet normal -1 0 0
    outer loop
      vertex -36.5 29 -13
      vertex -36.5 25 2
      vertex -36.5 29 23
    endloop
  endfacet
  facet normal -1 0 0
    outer loop
      vertex -36.5 25 2
      vertex -36.5 16.4108 23
      vertex -36.5 29 23
    endloop
  endfacet
  facet normal -1 0 0
    outer loop
      vertex -36.5 25 2
      vertex -36.5 13.0782 19.9994
      vertex -36.5 16.4108 23
    endloop
  endfacet
  facet normal -1 0 0
    outer loop
      vertex -36.5 25 2
      vertex -36.5 9.04989 17.6736
      vertex -36.5 13.0782 19.9994
    endloop
  endfacet
  facet normal -1 0 0
    outer loop
      vertex -36.5 25 2
      vertex -36.5 4.62603 16.2362
      vertex -36.5 9.04989 17.6736
    endloop
  endfacet
  facet normal -1 0 0
    outer loop
      vertex -36.5 25 2
      vertex -36.5 0 15.75
      vertex -36.5 4.62603 16.2362
    endloop
  endfacet
  facet normal -1 0 0
    outer loop
      vertex -36.5 -25 2
      vertex -36.5 0 15.75
      vertex -36.5 25 2
    endloop
  endfacet
  facet normal -1 -0 0
    outer loop
      vertex -36.5 0 15.75
      vertex -36.5 -25 2
      vertex -36.5 -4.62603 16.2362
    endloop
  endfacet
  facet normal -1 -0 0
    outer loop
      vertex -36.5 -4.62603 16.2362
      vertex -36.5 -25 2
      vertex -36.5 -9.04989 17.6736
    endloop
  endfacet
  facet normal -1 0 0
    outer loop
      vertex -36.5 -25 2
      vertex -36.5 -13.0782 19.9994
      vertex -36.5 -9.04989 17.6736
    endloop
  endfacet
  facet normal -1 0 0
    outer loop
      vertex -36.5 -25 2
      vertex -36.5 -16.4108 23
      vertex -36.5 -13.0782 19.9994
    endloop
  endfacet
  facet normal -1 0 0
    outer loop
      vertex -36.5 -25 2
      vertex -36.5 -29 23
      vertex -36.5 -16.4108 23
    endloop
  endfacet
  facet normal -1 0 0
    outer loop
      vertex -36.5 -29 23
      vertex -36.5 -25 2
      vertex -36.5 -29 -13
    endloop
  endfacet
  facet normal 0 0 -1
    outer loop
      vertex -25 7.53935 13
      vertex -28.8934 22.7323 13
      vertex -28.25 24.5 13
    endloop
  endfacet
  facet normal 0 0 -1
    outer loop
      vertex -25 7.53935 13
      vertex -30.5225 21.7918 13
      vertex -28.8934 22.7323 13
    endloop
  endfacet
  facet normal 0 0 -1
    outer loop
      vertex -35 7.53935 13
      vertex -30.5225 21.7918 13
      vertex -25 7.53935 13
    endloop
  endfacet
  facet normal -0 0 -1
    outer loop
      vertex -30.5225 21.7918 13
      vertex -35 7.53935 13
      vertex -32.375 22.1184 13
    endloop
  endfacet
  facet normal 0 0 -1
    outer loop
      vertex -35 27.5 13
      vertex -33.5842 23.5594 13
      vertex -35 7.53935 13
    endloop
  endfacet
  facet normal -0 0 -1
    outer loop
      vertex -32.375 22.1184 13
      vertex -35 7.53935 13
      vertex -33.5842 23.5594 13
    endloop
  endfacet
  facet normal 0 0 -1
    outer loop
      vertex 35 -27.5 13
      vertex 33.75 -24.5 13
      vertex 35 -7.53935 13
    endloop
  endfacet
  facet normal 0 0 -1
    outer loop
      vertex 35 -27.5 13
      vertex 33.1066 -26.2677 13
      vertex 33.75 -24.5 13
    endloop
  endfacet
  facet normal 0 0 -1
    outer loop
      vertex 35 -27.5 13
      vertex 31.4775 -27.2082 13
      vertex 33.1066 -26.2677 13
    endloop
  endfacet
  facet normal 0 0 -1
    outer loop
      vertex -28.25 -24.5 13
      vertex 28.4158 -23.5594 13
      vertex 28.4158 -25.4406 13
    endloop
  endfacet
  facet normal 0 0 -1
    outer loop
      vertex 25 -7.53935 13
      vertex -25 -7.53935 13
      vertex 25 7.53935 13
    endloop
  endfacet
  facet normal -0 0 -1
    outer loop
      vertex 28.4158 -23.5594 13
      vertex -28.25 -24.5 13
      vertex 25 -7.53935 13
    endloop
  endfacet
  facet normal 0 0 -1
    outer loop
      vertex -28.8934 -26.2677 13
      vertex 28.4158 -25.4406 13
      vertex 29.625 -26.8816 13
    endloop
  endfacet
  facet normal -0 0 -1
    outer loop
      vertex 25 -7.53935 13
      vertex -28.25 -24.5 13
      vertex -25 -7.53935 13
    endloop
  endfacet
  facet normal 0 0 -1
    outer loop
      vertex -30.5225 -27.2082 13
      vertex 29.625 -26.8816 13
      vertex 31.4775 -27.2082 13
    endloop
  endfacet
  facet normal 0 0 -1
    outer loop
      vertex -30.5225 -27.2082 13
      vertex 31.4775 -27.2082 13
      vertex 35 -27.5 13
    endloop
  endfacet
  facet normal -0 0 -1
    outer loop
      vertex 28.4158 -25.4406 13
      vertex -28.8934 -26.2677 13
      vertex -28.25 -24.5 13
    endloop
  endfacet
  facet normal -0 0 -1
    outer loop
      vertex 29.625 -26.8816 13
      vertex -30.5225 -27.2082 13
      vertex -28.8934 -26.2677 13
    endloop
  endfacet
  facet normal -0 0 -1
    outer loop
      vertex -33.5842 -25.4406 13
      vertex -35 -27.5 13
      vertex -33.5842 -23.5594 13
    endloop
  endfacet
  facet normal -0 0 -1
    outer loop
      vertex -32.375 -26.8816 13
      vertex -35 -27.5 13
      vertex -33.5842 -25.4406 13
    endloop
  endfacet
  facet normal -0 0 -1
    outer loop
      vertex -30.5225 -27.2082 13
      vertex -35 -27.5 13
      vertex -32.375 -26.8816 13
    endloop
  endfacet
  facet normal 0 0 -1
    outer loop
      vertex -35 -27.5 13
      vertex -30.5225 -27.2082 13
      vertex 35 -27.5 13
    endloop
  endfacet
  facet normal 0 0 -1
    outer loop
      vertex 33.1066 -22.7323 13
      vertex 35 -7.53935 13
      vertex 33.75 -24.5 13
    endloop
  endfacet
  facet normal 0 0 -1
    outer loop
      vertex 31.4775 -21.7918 13
      vertex 35 -7.53935 13
      vertex 33.1066 -22.7323 13
    endloop
  endfacet
  facet normal 0 0 -1
    outer loop
      vertex 25 -7.53935 13
      vertex 31.4775 -21.7918 13
      vertex 29.625 -22.1184 13
    endloop
  endfacet
  facet normal 0 0 -1
    outer loop
      vertex 25 -7.53935 13
      vertex 29.625 -22.1184 13
      vertex 28.4158 -23.5594 13
    endloop
  endfacet
  facet normal 0 0 -1
    outer loop
      vertex 31.4775 -21.7918 13
      vertex 25 -7.53935 13
      vertex 35 -7.53935 13
    endloop
  endfacet
  facet normal 0 0 -1
    outer loop
      vertex -28.8934 -22.7323 13
      vertex -25 -7.53935 13
      vertex -28.25 -24.5 13
    endloop
  endfacet
  facet normal 0 0 -1
    outer loop
      vertex -30.5225 -21.7918 13
      vertex -25 -7.53935 13
      vertex -28.8934 -22.7323 13
    endloop
  endfacet
  facet normal 0 0 -1
    outer loop
      vertex -35 -7.53935 13
      vertex -30.5225 -21.7918 13
      vertex -32.375 -22.1184 13
    endloop
  endfacet
  facet normal 0 0 -1
    outer loop
      vertex -35 -7.53935 13
      vertex -32.375 -22.1184 13
      vertex -33.5842 -23.5594 13
    endloop
  endfacet
  facet normal 0 0 -1
    outer loop
      vertex -30.5225 -21.7918 13
      vertex -35 -7.53935 13
      vertex -25 -7.53935 13
    endloop
  endfacet
  facet normal 0 0 -1
    outer loop
      vertex -35 -7.53935 13
      vertex -33.5842 -23.5594 13
      vertex -35 -27.5 13
    endloop
  endfacet
  facet normal 0 0 -1
    outer loop
      vertex 35 7.53935 13
      vertex 33.75 24.5 13
      vertex 35 27.5 13
    endloop
  endfacet
  facet normal 0 0 -1
    outer loop
      vertex 35 7.53935 13
      vertex 33.1066 22.7323 13
      vertex 33.75 24.5 13
    endloop
  endfacet
  facet normal 0 0 -1
    outer loop
      vertex 35 7.53935 13
      vertex 31.4775 21.7918 13
      vertex 33.1066 22.7323 13
    endloop
  endfacet
  facet normal 0 0 -1
    outer loop
      vertex 25 7.53935 13
      vertex 31.4775 21.7918 13
      vertex 35 7.53935 13
    endloop
  endfacet
  facet normal -0 0 -1
    outer loop
      vertex 31.4775 21.7918 13
      vertex 25 7.53935 13
      vertex 29.625 22.1184 13
    endloop
  endfacet
  facet normal 0 0 -1
    outer loop
      vertex -28.25 24.5 13
      vertex 28.4158 23.5594 13
      vertex 25 7.53935 13
    endloop
  endfacet
  facet normal -0 0 -1
    outer loop
      vertex 29.625 22.1184 13
      vertex 25 7.53935 13
      vertex 28.4158 23.5594 13
    endloop
  endfacet
  facet normal 0 0 -1
    outer loop
      vertex 33.1066 26.2677 13
      vertex 35 27.5 13
      vertex 33.75 24.5 13
    endloop
  endfacet
  facet normal 0 0 -1
    outer loop
      vertex 31.4775 27.2082 13
      vertex 35 27.5 13
      vertex 33.1066 26.2677 13
    endloop
  endfacet
  facet normal 0 0 -1
    outer loop
      vertex -25 7.53935 13
      vertex 25 7.53935 13
      vertex -25 -7.53935 13
    endloop
  endfacet
  facet normal 0 0 -1
    outer loop
      vertex -28.25 24.5 13
      vertex 25 7.53935 13
      vertex -25 7.53935 13
    endloop
  endfacet
  facet normal 0 0 -1
    outer loop
      vertex 28.4158 23.5594 13
      vertex -28.25 24.5 13
      vertex 28.4158 25.4406 13
    endloop
  endfacet
  facet normal 0 0 -1
    outer loop
      vertex -28.8934 26.2677 13
      vertex 28.4158 25.4406 13
      vertex -28.25 24.5 13
    endloop
  endfacet
  facet normal 0 0 -1
    outer loop
      vertex 28.4158 25.4406 13
      vertex -28.8934 26.2677 13
      vertex 29.625 26.8816 13
    endloop
  endfacet
  facet normal 0 0 -1
    outer loop
      vertex -30.5225 27.2082 13
      vertex 29.625 26.8816 13
      vertex -28.8934 26.2677 13
    endloop
  endfacet
  facet normal 0 0 -1
    outer loop
      vertex 29.625 26.8816 13
      vertex -30.5225 27.2082 13
      vertex 31.4775 27.2082 13
    endloop
  endfacet
  facet normal 0 0 -1
    outer loop
      vertex 31.4775 27.2082 13
      vertex -30.5225 27.2082 13
      vertex 35 27.5 13
    endloop
  endfacet
  facet normal 0 0 -1
    outer loop
      vertex -30.5225 27.2082 13
      vertex -35 27.5 13
      vertex 35 27.5 13
    endloop
  endfacet
  facet normal 0 0 -1
    outer loop
      vertex -32.375 26.8816 13
      vertex -35 27.5 13
      vertex -30.5225 27.2082 13
    endloop
  endfacet
  facet normal 0 0 -1
    outer loop
      vertex -33.5842 25.4406 13
      vertex -35 27.5 13
      vertex -32.375 26.8816 13
    endloop
  endfacet
  facet normal 0 0 -1
    outer loop
      vertex -33.5842 23.5594 13
      vertex -35 27.5 13
      vertex -33.5842 25.4406 13
    endloop
  endfacet
  facet normal 0 0 0
    outer loop
      vertex -35 -7.53935 13
      vertex -35 -27.5 13
      vertex -35 27.5 13
    endloop
  endfacet
  facet normal 0 0 0
    outer loop
      vertex -35 27.5 13
      vertex -35 7.53935 13
      vertex -35 -7.53935 13
    endloop
  endfacet
  facet normal 0 0 -1
    outer loop
      vertex -30.6137 -25.6888 13
      vertex -30.6137 -23.3112 13
      vertex -29.75 -24.5 13
    endloop
  endfacet
  facet normal 0 0 -1
    outer loop
      vertex -32.0113 -25.2347 13
      vertex -30.6137 -23.3112 13
      vertex -30.6137 -25.6888 13
    endloop
  endfacet
  facet normal 0 0 -1
    outer loop
      vertex -30.6137 -23.3112 13
      vertex -32.0113 -25.2347 13
      vertex -32.0113 -23.7653 13
    endloop
  endfacet
  facet normal 0 0 -1
    outer loop
      vertex 31.3863 -25.6888 13
      vertex 31.3863 -23.3112 13
      vertex 32.25 -24.5 13
    endloop
  endfacet
  facet normal 0 0 -1
    outer loop
      vertex 29.9887 -25.2347 13
      vertex 31.3863 -23.3112 13
      vertex 31.3863 -25.6888 13
    endloop
  endfacet
  facet normal 0 0 -1
    outer loop
      vertex 31.3863 -23.3112 13
      vertex 29.9887 -25.2347 13
      vertex 29.9887 -23.7653 13
    endloop
  endfacet
  facet normal 0 0 -1
    outer loop
      vertex -30.6137 23.3112 13
      vertex -30.6137 25.6888 13
      vertex -29.75 24.5 13
    endloop
  endfacet
  facet normal 0 0 -1
    outer loop
      vertex -32.0113 23.7653 13
      vertex -30.6137 25.6888 13
      vertex -30.6137 23.3112 13
    endloop
  endfacet
  facet normal 0 0 -1
    outer loop
      vertex -30.6137 25.6888 13
      vertex -32.0113 23.7653 13
      vertex -32.0113 25.2347 13
    endloop
  endfacet
  facet normal 0 0 -1
    outer loop
      vertex 31.3863 23.3112 13
      vertex 31.3863 25.6888 13
      vertex 32.25 24.5 13
    endloop
  endfacet
  facet normal 0 0 -1
    outer loop
      vertex 29.9887 23.7653 13
      vertex 31.3863 25.6888 13
      vertex 31.3863 23.3112 13
    endloop
  endfacet
  facet normal 0 0 -1
    outer loop
      vertex 31.3863 25.6888 13
      vertex 29.9887 23.7653 13
      vertex 29.9887 25.2347 13
    endloop
  endfacet
  facet normal 1 0 0
    outer loop
      vertex 36.5 29 23
      vertex 36.5 28.25 -10.75
      vertex 36.5 29 -13
    endloop
  endfacet
  facet normal 1 0 0
    outer loop
      vertex 36.5 29 23
      vertex 36.5 25 2
      vertex 36.5 28.25 -10.75
    endloop
  endfacet
  facet normal 1 -0 0
    outer loop
      vertex 36.5 16.4108 23
      vertex 36.5 25 2
      vertex 36.5 29 23
    endloop
  endfacet
  facet normal 1 -0 0
    outer loop
      vertex 36.5 13.0782 19.9994
      vertex 36.5 25 2
      vertex 36.5 16.4108 23
    endloop
  endfacet
  facet normal 1 -0 0
    outer loop
      vertex 36.5 9.04989 17.6736
      vertex 36.5 25 2
      vertex 36.5 13.0782 19.9994
    endloop
  endfacet
  facet normal 1 -0 0
    outer loop
      vertex 36.5 4.62603 16.2362
      vertex 36.5 25 2
      vertex 36.5 9.04989 17.6736
    endloop
  endfacet
  facet normal 1 -0 0
    outer loop
      vertex 36.5 0 15.75
      vertex 36.5 25 2
      vertex 36.5 4.62603 16.2362
    endloop
  endfacet
  facet normal 1 0 0
    outer loop
      vertex 36.5 -25 2
      vertex 36.5 0 15.75
      vertex 36.5 -4.62603 16.2362
    endloop
  endfacet
  facet normal 1 0 0
    outer loop
      vertex 36.5 -25 2
      vertex 36.5 -4.62603 16.2362
      vertex 36.5 -9.04989 17.6736
    endloop
  endfacet
  facet normal 1 0 0
    outer loop
      vertex 36.5 0 15.75
      vertex 36.5 -25 2
      vertex 36.5 25 2
    endloop
  endfacet
  facet normal 1 0 0
    outer loop
      vertex 36.5 -13.0782 19.9994
      vertex 36.5 -25 2
      vertex 36.5 -9.04989 17.6736
    endloop
  endfacet
  facet normal 1 0 0
    outer loop
      vertex 36.5 -16.4108 23
      vertex 36.5 -25 2
      vertex 36.5 -13.0782 19.9994
    endloop
  endfacet
  facet normal 1 0 0
    outer loop
      vertex 36.5 -25 2
      vertex 36.5 -28.25 -10.75
      vertex 36.5 -25 -3
    endloop
  endfacet
  facet normal 1 0 0
    outer loop
      vertex 36.5 -29 -13
      vertex 36.5 -28.25 -10.75
      vertex 36.5 -29 23
    endloop
  endfacet
  facet normal 1 0 0
    outer loop
      vertex 36.5 -25 2
      vertex 36.5 -29 23
      vertex 36.5 -28.25 -10.75
    endloop
  endfacet
  facet normal 1 -0 0
    outer loop
      vertex 36.5 -29 23
      vertex 36.5 -25 2
      vertex 36.5 -16.4108 23
    endloop
  endfacet
  facet normal 1 -0 0
    outer loop
      vertex 36.5 28.25 -12.25
      vertex 36.5 29 -13
      vertex 36.5 28.25 -10.75
    endloop
  endfacet
  facet normal 1 0 0
    outer loop
      vertex 36.5 27.5 -13
      vertex 36.5 28.25 -12.25
      vertex 36.5 27.5 -12.25
    endloop
  endfacet
  facet normal 1 0 0
    outer loop
      vertex 36.5 28.25 -12.25
      vertex 36.5 27.5 -13
      vertex 36.5 29 -13
    endloop
  endfacet
  facet normal 1 -0 0
    outer loop
      vertex 36.5 25 -3
      vertex 36.5 28.25 -10.75
      vertex 36.5 25 2
    endloop
  endfacet
  facet normal 1 -0 0
    outer loop
      vertex 36.5 -25 -3
      vertex 36.5 28.25 -10.75
      vertex 36.5 25 -3
    endloop
  endfacet
  facet normal 1 0 0
    outer loop
      vertex 36.5 28.25 -10.75
      vertex 36.5 -25 -3
      vertex 36.5 -28.25 -10.75
    endloop
  endfacet
  facet normal 1 -0 0
    outer loop
      vertex 36.5 -28.25 -12.25
      vertex 36.5 -27.5 -13
      vertex 36.5 -27.5 -12.25
    endloop
  endfacet
  facet normal 1 0 0
    outer loop
      vertex 36.5 -28.25 -12.25
      vertex 36.5 -29 -13
      vertex 36.5 -27.5 -13
    endloop
  endfacet
  facet normal 1 0 0
    outer loop
      vertex 36.5 -28.25 -10.75
      vertex 36.5 -29 -13
      vertex 36.5 -28.25 -12.25
    endloop
  endfacet
  facet normal 0 1 -0
    outer loop
      vertex 36.5 29 -13
      vertex -36.5 29 23
      vertex 36.5 29 23
    endloop
  endfacet
  facet normal 0 1 0
    outer loop
      vertex -36.5 29 23
      vertex 36.5 29 -13
      vertex -36.5 29 -13
    endloop
  endfacet
  facet normal 0 0 -1
    outer loop
      vertex 36.5 -29 -13
      vertex -35 -27.5 -13
      vertex 36.5 -27.5 -13
    endloop
  endfacet
  facet normal -0 0 -1
    outer loop
      vertex -35 -27.5 -13
      vertex -36.5 -29 -13
      vertex -35 27.5 -13
    endloop
  endfacet
  facet normal 0 0 -1
    outer loop
      vertex -36.5 -29 -13
      vertex -35 -27.5 -13
      vertex 36.5 -29 -13
    endloop
  endfacet
  facet normal 0 0 -1
    outer loop
      vertex -35 27.5 -13
      vertex 36.5 29 -13
      vertex 36.5 27.5 -13
    endloop
  endfacet
  facet normal 0 0 -1
    outer loop
      vertex -35 27.5 -13
      vertex -36.5 29 -13
      vertex 36.5 29 -13
    endloop
  endfacet
  facet normal 0 0 -1
    outer loop
      vertex -36.5 29 -13
      vertex -35 27.5 -13
      vertex -36.5 -29 -13
    endloop
  endfacet
  facet normal 0 -1 0
    outer loop
      vertex -36.5 -29 -13
      vertex 36.5 -29 23
      vertex -36.5 -29 23
    endloop
  endfacet
  facet normal 0 -1 -0
    outer loop
      vertex 36.5 -29 23
      vertex -36.5 -29 -13
      vertex 36.5 -29 -13
    endloop
  endfacet
  facet normal 1 0 0
    outer loop
      vertex -35 27.5 13
      vertex -35 25 2
      vertex -35 27.5 -10.75
    endloop
  endfacet
  facet normal 1 0 0
    outer loop
      vertex -35 27.5 13
      vertex -35 -25 2
      vertex -35 25 2
    endloop
  endfacet
  facet normal 1 0 0
    outer loop
      vertex -35 -27.5 -10.75
      vertex -35 -25 2
      vertex -35 -27.5 13
    endloop
  endfacet
  facet normal 1 -0 0
    outer loop
      vertex -35 -27.5 13
      vertex -35 -25 2
      vertex -35 27.5 13
    endloop
  endfacet
  facet normal 1 -0 0
    outer loop
      vertex -35 25 -3
      vertex -35 27.5 -10.75
      vertex -35 25 2
    endloop
  endfacet
  facet normal 1 -0 0
    outer loop
      vertex -35 -25 -3
      vertex -35 27.5 -10.75
      vertex -35 25 -3
    endloop
  endfacet
  facet normal 1 0 0
    outer loop
      vertex -35 -25 -3
      vertex -35 -27.5 -10.75
      vertex -35 27.5 -10.75
    endloop
  endfacet
  facet normal 1 0 0
    outer loop
      vertex -35 -25 2
      vertex -35 -27.5 -10.75
      vertex -35 -25 -3
    endloop
  endfacet
  facet normal 1 -0 0
    outer loop
      vertex -35 -27.5 -12.25
      vertex -35 27.5 -13
      vertex -35 27.5 -12.25
    endloop
  endfacet
  facet normal 1 0 0
    outer loop
      vertex -35 27.5 -13
      vertex -35 -27.5 -12.25
      vertex -35 -27.5 -13
    endloop
  endfacet
  facet normal -1 0 0
    outer loop
      vertex 35 25 2
      vertex 35 27.5 -10.75
      vertex 35 25 -3
    endloop
  endfacet
  facet normal -1 0 0
    outer loop
      vertex 35 27.5 -10.75
      vertex 35 -25 -3
      vertex 35 25 -3
    endloop
  endfacet
  facet normal -1 -0 0
    outer loop
      vertex 35 -25 -3
      vertex 35 -27.5 -10.75
      vertex 35 -25 2
    endloop
  endfacet
  facet normal -1 0 0
    outer loop
      vertex 35 -27.5 -10.75
      vertex 35 -25 -3
      vertex 35 27.5 -10.75
    endloop
  endfacet
  facet normal -1 0 0
    outer loop
      vertex 35 27.5 -10.75
      vertex 35 25 2
      vertex 35 27.5 13
    endloop
  endfacet
  facet normal -1 0 0
    outer loop
      vertex 35 25 2
      vertex 35 7.53935 13
      vertex 35 27.5 13
    endloop
  endfacet
  facet normal -1 0 0
    outer loop
      vertex 35 25 2
      vertex 35 -7.53935 13
      vertex 35 7.53935 13
    endloop
  endfacet
  facet normal -1 0 0
    outer loop
      vertex 35 -25 2
      vertex 35 -7.53935 13
      vertex 35 25 2
    endloop
  endfacet
  facet normal -1 0 0
    outer loop
      vertex 35 -25 2
      vertex 35 -27.5 13
      vertex 35 -7.53935 13
    endloop
  endfacet
  facet normal -1 0 0
    outer loop
      vertex 35 -27.5 13
      vertex 35 -25 2
      vertex 35 -27.5 -10.75
    endloop
  endfacet
  facet normal 0 -1 0
    outer loop
      vertex -35 27.5 -10.75
      vertex 35 27.5 13
      vertex -35 27.5 13
    endloop
  endfacet
  facet normal 0 -1 -0
    outer loop
      vertex 35 27.5 13
      vertex -35 27.5 -10.75
      vertex 35 27.5 -10.75
    endloop
  endfacet
  facet normal 0 -1 0
    outer loop
      vertex -35 27.5 -13
      vertex 36.5 27.5 -12.25
      vertex -35 27.5 -12.25
    endloop
  endfacet
  facet normal 0 -1 -0
    outer loop
      vertex 36.5 27.5 -12.25
      vertex -35 27.5 -13
      vertex 36.5 27.5 -13
    endloop
  endfacet
  facet normal 0 1 -0
    outer loop
      vertex 35 -27.5 -10.75
      vertex -35 -27.5 13
      vertex 35 -27.5 13
    endloop
  endfacet
  facet normal 0 1 0
    outer loop
      vertex -35 -27.5 13
      vertex 35 -27.5 -10.75
      vertex -35 -27.5 -10.75
    endloop
  endfacet
  facet normal 0 1 -0
    outer loop
      vertex 36.5 -27.5 -13
      vertex -35 -27.5 -12.25
      vertex 36.5 -27.5 -12.25
    endloop
  endfacet
  facet normal 0 1 0
    outer loop
      vertex -35 -27.5 -12.25
      vertex 36.5 -27.5 -13
      vertex -35 -27.5 -13
    endloop
  endfacet
  facet normal 0 0 -1
    outer loop
      vertex -36.5 -25 2
      vertex -35 25 2
      vertex -35 -25 2
    endloop
  endfacet
  facet normal -0 0 -1
    outer loop
      vertex -35 25 2
      vertex -36.5 -25 2
      vertex -36.5 25 2
    endloop
  endfacet
  facet normal 0 -1 0
    outer loop
      vertex -36.5 25 -3
      vertex -35 25 2
      vertex -36.5 25 2
    endloop
  endfacet
  facet normal 0 -1 -0
    outer loop
      vertex -35 25 2
      vertex -36.5 25 -3
      vertex -35 25 -3
    endloop
  endfacet
  facet normal -0 0 1
    outer loop
      vertex -36.5 25 -3
      vertex -35 -25 -3
      vertex -35 25 -3
    endloop
  endfacet
  facet normal 0 0 1
    outer loop
      vertex -35 -25 -3
      vertex -36.5 25 -3
      vertex -36.5 -25 -3
    endloop
  endfacet
  facet normal 0 1 -0
    outer loop
      vertex -35 -25 -3
      vertex -36.5 -25 2
      vertex -35 -25 2
    endloop
  endfacet
  facet normal 0 1 0
    outer loop
      vertex -36.5 -25 2
      vertex -35 -25 -3
      vertex -36.5 -25 -3
    endloop
  endfacet
  facet normal 0 0 -1
    outer loop
      vertex 35 -25 2
      vertex 36.5 25 2
      vertex 36.5 -25 2
    endloop
  endfacet
  facet normal -0 0 -1
    outer loop
      vertex 36.5 25 2
      vertex 35 -25 2
      vertex 35 25 2
    endloop
  endfacet
  facet normal -0 0 1
    outer loop
      vertex 35 25 -3
      vertex 36.5 -25 -3
      vertex 36.5 25 -3
    endloop
  endfacet
  facet normal 0 0 1
    outer loop
      vertex 36.5 -25 -3
      vertex 35 25 -3
      vertex 35 -25 -3
    endloop
  endfacet
  facet normal 0 1 -0
    outer loop
      vertex 36.5 -25 -3
      vertex 35 -25 2
      vertex 36.5 -25 2
    endloop
  endfacet
  facet normal 0 1 0
    outer loop
      vertex 35 -25 2
      vertex 36.5 -25 -3
      vertex 35 -25 -3
    endloop
  endfacet
  facet normal 0 -1 0
    outer loop
      vertex 35 25 -3
      vertex 36.5 25 2
      vertex 35 25 2
    endloop
  endfacet
  facet normal 0 -1 -0
    outer loop
      vertex 36.5 25 2
      vertex 35 25 -3
      vertex 36.5 25 -3
    endloop
  endfacet
  facet normal 1 -0 0
    outer loop
      vertex -36 -28.25 -10.75
      vertex -36 28.25 -12.25
      vertex -36 28.25 -10.75
    endloop
  endfacet
  facet normal 1 0 0
    outer loop
      vertex -36 28.25 -12.25
      vertex -36 -28.25 -10.75
      vertex -36 -28.25 -12.25
    endloop
  endfacet
  facet normal 0 0 -1
    outer loop
      vertex 36.5 -28.25 -10.75
      vertex 35 -27.5 -10.75
      vertex 36.5 28.25 -10.75
    endloop
  endfacet
  facet normal 0 0 -1
    outer loop
      vertex -36 -28.25 -10.75
      vertex 35 -27.5 -10.75
      vertex 36.5 -28.25 -10.75
    endloop
  endfacet
  facet normal -0 0 -1
    outer loop
      vertex -35 -27.5 -10.75
      vertex -36 -28.25 -10.75
      vertex -35 27.5 -10.75
    endloop
  endfacet
  facet normal -0 0 -1
    outer loop
      vertex 35 -27.5 -10.75
      vertex -36 -28.25 -10.75
      vertex -35 -27.5 -10.75
    endloop
  endfacet
  facet normal 0 0 -1
    outer loop
      vertex 35 27.5 -10.75
      vertex 36.5 28.25 -10.75
      vertex 35 -27.5 -10.75
    endloop
  endfacet
  facet normal 0 0 -1
    outer loop
      vertex -36 28.25 -10.75
      vertex 35 27.5 -10.75
      vertex -35 27.5 -10.75
    endloop
  endfacet
  facet normal 0 0 -1
    outer loop
      vertex 35 27.5 -10.75
      vertex -36 28.25 -10.75
      vertex 36.5 28.25 -10.75
    endloop
  endfacet
  facet normal 0 0 -1
    outer loop
      vertex -36 28.25 -10.75
      vertex -35 27.5 -10.75
      vertex -36 -28.25 -10.75
    endloop
  endfacet
  facet normal 0 -1 0
    outer loop
      vertex -36 28.25 -12.25
      vertex 36.5 28.25 -10.75
      vertex -36 28.25 -10.75
    endloop
  endfacet
  facet normal 0 -1 -0
    outer loop
      vertex 36.5 28.25 -10.75
      vertex -36 28.25 -12.25
      vertex 36.5 28.25 -12.25
    endloop
  endfacet
  facet normal 0 0 1
    outer loop
      vertex 36.5 28.25 -12.25
      vertex -35 27.5 -12.25
      vertex 36.5 27.5 -12.25
    endloop
  endfacet
  facet normal 0 0 1
    outer loop
      vertex -35 27.5 -12.25
      vertex -36 28.25 -12.25
      vertex -35 -27.5 -12.25
    endloop
  endfacet
  facet normal -0 0 1
    outer loop
      vertex -36 28.25 -12.25
      vertex -35 27.5 -12.25
      vertex 36.5 28.25 -12.25
    endloop
  endfacet
  facet normal -0 0 1
    outer loop
      vertex -35 -27.5 -12.25
      vertex 36.5 -28.25 -12.25
      vertex 36.5 -27.5 -12.25
    endloop
  endfacet
  facet normal 0 0 1
    outer loop
      vertex -35 -27.5 -12.25
      vertex -36 -28.25 -12.25
      vertex 36.5 -28.25 -12.25
    endloop
  endfacet
  facet normal 0 0 1
    outer loop
      vertex -36 -28.25 -12.25
      vertex -35 -27.5 -12.25
      vertex -36 28.25 -12.25
    endloop
  endfacet
  facet normal 0 1 -0
    outer loop
      vertex 36.5 -28.25 -12.25
      vertex -36 -28.25 -10.75
      vertex 36.5 -28.25 -10.75
    endloop
  endfacet
  facet normal 0 1 0
    outer loop
      vertex -36 -28.25 -10.75
      vertex 36.5 -28.25 -12.25
      vertex -36 -28.25 -12.25
    endloop
  endfacet
  facet normal 0 -0.809017 0.587785
    outer loop
      vertex -35 19.5076 20.4353
      vertex -25 21.3709 23
      vertex -35 21.3709 23
    endloop
  endfacet
  facet normal 0 -0.809017 0.587785
    outer loop
      vertex -25 21.3709 23
      vertex -35 19.5076 20.4353
      vertex -25 19.5076 20.4353
    endloop
  endfacet
  facet normal -0 0.309017 0.951056
    outer loop
      vertex -35 -7.53935 13
      vertex -25 -10.6768 14.0194
      vertex -25 -7.53935 13
    endloop
  endfacet
  facet normal 0 0.309017 0.951056
    outer loop
      vertex -25 -10.6768 14.0194
      vertex -35 -7.53935 13
      vertex -35 -10.6768 14.0194
    endloop
  endfacet
  facet normal 0 -0.5 0.866025
    outer loop
      vertex -35 15.4294 16.7633
      vertex -25 10.6768 14.0194
      vertex -25 15.4294 16.7633
    endloop
  endfacet
  facet normal 0 -0.5 0.866025
    outer loop
      vertex -25 10.6768 14.0194
      vertex -35 15.4294 16.7633
      vertex -35 10.6768 14.0194
    endloop
  endfacet
  facet normal 0 -0.309017 0.951056
    outer loop
      vertex -35 10.6768 14.0194
      vertex -25 7.53935 13
      vertex -25 10.6768 14.0194
    endloop
  endfacet
  facet normal 0 -0.309017 0.951056
    outer loop
      vertex -25 7.53935 13
      vertex -35 10.6768 14.0194
      vertex -35 7.53935 13
    endloop
  endfacet
  facet normal 0 -0.66913 0.743145
    outer loop
      vertex -35 19.5076 20.4353
      vertex -25 15.4294 16.7633
      vertex -25 19.5076 20.4353
    endloop
  endfacet
  facet normal 0 -0.66913 0.743145
    outer loop
      vertex -25 15.4294 16.7633
      vertex -35 19.5076 20.4353
      vertex -35 15.4294 16.7633
    endloop
  endfacet
  facet normal -1 0 0
    outer loop
      vertex -25 19.5076 20.4353
      vertex -25 18.9123 23
      vertex -25 21.3709 23
    endloop
  endfacet
  facet normal -1 0 0
    outer loop
      vertex -25 19.5076 20.4353
      vertex -25 18.0213 21.7736
      vertex -25 18.9123 23
    endloop
  endfacet
  facet normal -1 0 0
    outer loop
      vertex -25 15.4294 16.7633
      vertex -25 18.0213 21.7736
      vertex -25 19.5076 20.4353
    endloop
  endfacet
  facet normal -1 0 0
    outer loop
      vertex -25 15.4294 16.7633
      vertex -25 14.2538 18.3813
      vertex -25 18.0213 21.7736
    endloop
  endfacet
  facet normal -1 0 0
    outer loop
      vertex -25 10.6768 14.0194
      vertex -25 14.2538 18.3813
      vertex -25 15.4294 16.7633
    endloop
  endfacet
  facet normal -1 0 0
    outer loop
      vertex -25 10.6768 14.0194
      vertex -25 9.86336 15.8465
      vertex -25 14.2538 18.3813
    endloop
  endfacet
  facet normal -1 0 0
    outer loop
      vertex -25 7.53935 13
      vertex -25 9.86336 15.8465
      vertex -25 10.6768 14.0194
    endloop
  endfacet
  facet normal -1 0 0
    outer loop
      vertex -25 7.53935 13
      vertex -25 5.04186 14.2799
      vertex -25 9.86336 15.8465
    endloop
  endfacet
  facet normal -1 0 0
    outer loop
      vertex -25 7.53935 13
      vertex -25 0 13.75
      vertex -25 5.04186 14.2799
    endloop
  endfacet
  facet normal -1 0 0
    outer loop
      vertex -25 -7.53935 13
      vertex -25 0 13.75
      vertex -25 7.53935 13
    endloop
  endfacet
  facet normal -1 0 0
    outer loop
      vertex -25 -7.53935 13
      vertex -25 -5.04186 14.2799
      vertex -25 0 13.75
    endloop
  endfacet
  facet normal -1 0 0
    outer loop
      vertex -25 -7.53935 13
      vertex -25 -9.86336 15.8465
      vertex -25 -5.04186 14.2799
    endloop
  endfacet
  facet normal -1 0 0
    outer loop
      vertex -25 -10.6768 14.0194
      vertex -25 -9.86336 15.8465
      vertex -25 -7.53935 13
    endloop
  endfacet
  facet normal -1 0 0
    outer loop
      vertex -25 -10.6768 14.0194
      vertex -25 -14.2538 18.3813
      vertex -25 -9.86336 15.8465
    endloop
  endfacet
  facet normal -1 0 0
    outer loop
      vertex -25 -15.4294 16.7633
      vertex -25 -14.2538 18.3813
      vertex -25 -10.6768 14.0194
    endloop
  endfacet
  facet normal -1 0 0
    outer loop
      vertex -25 -15.4294 16.7633
      vertex -25 -18.0213 21.7736
      vertex -25 -14.2538 18.3813
    endloop
  endfacet
  facet normal -1 0 0
    outer loop
      vertex -25 -19.5076 20.4353
      vertex -25 -18.0213 21.7736
      vertex -25 -15.4294 16.7633
    endloop
  endfacet
  facet normal -1 -0 0
    outer loop
      vertex -25 -18.0213 21.7736
      vertex -25 -19.5076 20.4353
      vertex -25 -18.9123 23
    endloop
  endfacet
  facet normal -1 -0 0
    outer loop
      vertex -25 -18.9123 23
      vertex -25 -19.5076 20.4353
      vertex -25 -21.3709 23
    endloop
  endfacet
  facet normal 1 -0 0
    outer loop
      vertex -35 18.9123 23
      vertex -35 19.5076 20.4353
      vertex -35 21.3709 23
    endloop
  endfacet
  facet normal 1 -0 0
    outer loop
      vertex -35 18.0213 21.7736
      vertex -35 19.5076 20.4353
      vertex -35 18.9123 23
    endloop
  endfacet
  facet normal 1 0 0
    outer loop
      vertex -35 18.0213 21.7736
      vertex -35 15.4294 16.7633
      vertex -35 19.5076 20.4353
    endloop
  endfacet
  facet normal 1 -0 0
    outer loop
      vertex -35 14.2538 18.3813
      vertex -35 15.4294 16.7633
      vertex -35 18.0213 21.7736
    endloop
  endfacet
  facet normal 1 0 0
    outer loop
      vertex -35 14.2538 18.3813
      vertex -35 10.6768 14.0194
      vertex -35 15.4294 16.7633
    endloop
  endfacet
  facet normal 1 -0 0
    outer loop
      vertex -35 9.86336 15.8465
      vertex -35 10.6768 14.0194
      vertex -35 14.2538 18.3813
    endloop
  endfacet
  facet normal 1 0 0
    outer loop
      vertex -35 9.86336 15.8465
      vertex -35 7.53935 13
      vertex -35 10.6768 14.0194
    endloop
  endfacet
  facet normal 1 -0 0
    outer loop
      vertex -35 5.04186 14.2799
      vertex -35 7.53935 13
      vertex -35 9.86336 15.8465
    endloop
  endfacet
  facet normal 1 -0 0
    outer loop
      vertex -35 0 13.75
      vertex -35 7.53935 13
      vertex -35 5.04186 14.2799
    endloop
  endfacet
  facet normal 1 0 0
    outer loop
      vertex -35 0 13.75
      vertex -35 -7.53935 13
      vertex -35 7.53935 13
    endloop
  endfacet
  facet normal 1 0 0
    outer loop
      vertex -35 -5.04186 14.2799
      vertex -35 -7.53935 13
      vertex -35 0 13.75
    endloop
  endfacet
  facet normal 1 0 0
    outer loop
      vertex -35 -9.86336 15.8465
      vertex -35 -7.53935 13
      vertex -35 -5.04186 14.2799
    endloop
  endfacet
  facet normal 1 0 0
    outer loop
      vertex -35 -9.86336 15.8465
      vertex -35 -10.6768 14.0194
      vertex -35 -7.53935 13
    endloop
  endfacet
  facet normal 1 0 0
    outer loop
      vertex -35 -14.2538 18.3813
      vertex -35 -10.6768 14.0194
      vertex -35 -9.86336 15.8465
    endloop
  endfacet
  facet normal 1 0 0
    outer loop
      vertex -35 -14.2538 18.3813
      vertex -35 -15.4294 16.7633
      vertex -35 -10.6768 14.0194
    endloop
  endfacet
  facet normal 1 0 0
    outer loop
      vertex -35 -18.0213 21.7736
      vertex -35 -15.4294 16.7633
      vertex -35 -14.2538 18.3813
    endloop
  endfacet
  facet normal 1 0 0
    outer loop
      vertex -35 -19.5076 20.4353
      vertex -35 -18.0213 21.7736
      vertex -35 -18.9123 23
    endloop
  endfacet
  facet normal 1 0 0
    outer loop
      vertex -35 -18.0213 21.7736
      vertex -35 -19.5076 20.4353
      vertex -35 -15.4294 16.7633
    endloop
  endfacet
  facet normal 1 0 -0
    outer loop
      vertex -35 -19.5076 20.4353
      vertex -35 -18.9123 23
      vertex -35 -21.3709 23
    endloop
  endfacet
  facet normal -0 0.5 0.866025
    outer loop
      vertex -35 -10.6768 14.0194
      vertex -25 -15.4294 16.7633
      vertex -25 -10.6768 14.0194
    endloop
  endfacet
  facet normal 0 0.5 0.866025
    outer loop
      vertex -25 -15.4294 16.7633
      vertex -35 -10.6768 14.0194
      vertex -35 -15.4294 16.7633
    endloop
  endfacet
  facet normal 0 0.809017 0.587785
    outer loop
      vertex -25 -19.5076 20.4353
      vertex -35 -21.3709 23
      vertex -25 -21.3709 23
    endloop
  endfacet
  facet normal 0 0.809017 0.587785
    outer loop
      vertex -35 -21.3709 23
      vertex -25 -19.5076 20.4353
      vertex -35 -19.5076 20.4353
    endloop
  endfacet
  facet normal -0 0.66913 0.743145
    outer loop
      vertex -35 -15.4294 16.7633
      vertex -25 -19.5076 20.4353
      vertex -25 -15.4294 16.7633
    endloop
  endfacet
  facet normal 0 0.66913 0.743145
    outer loop
      vertex -25 -19.5076 20.4353
      vertex -35 -15.4294 16.7633
      vertex -35 -19.5076 20.4353
    endloop
  endfacet
  facet normal 0 0.5 -0.866025
    outer loop
      vertex -35 9.86336 15.8465
      vertex -25 14.2538 18.3813
      vertex -25 9.86336 15.8465
    endloop
  endfacet
  facet normal 0 0.5 -0.866025
    outer loop
      vertex -25 14.2538 18.3813
      vertex -35 9.86336 15.8465
      vertex -35 14.2538 18.3813
    endloop
  endfacet
  facet normal 0 0.669131 -0.743145
    outer loop
      vertex -35 14.2538 18.3813
      vertex -25 18.0213 21.7736
      vertex -25 14.2538 18.3813
    endloop
  endfacet
  facet normal 0 0.669131 -0.743145
    outer loop
      vertex -25 18.0213 21.7736
      vertex -35 14.2538 18.3813
      vertex -35 18.0213 21.7736
    endloop
  endfacet
  facet normal 0 -0.104529 -0.994522
    outer loop
      vertex -35 -5.04186 14.2799
      vertex -25 0 13.75
      vertex -25 -5.04186 14.2799
    endloop
  endfacet
  facet normal -0 -0.104529 -0.994522
    outer loop
      vertex -25 0 13.75
      vertex -35 -5.04186 14.2799
      vertex -35 0 13.75
    endloop
  endfacet
  facet normal 0 0.309017 -0.951057
    outer loop
      vertex -35 5.04186 14.2799
      vertex -25 9.86336 15.8465
      vertex -25 5.04186 14.2799
    endloop
  endfacet
  facet normal 0 0.309017 -0.951057
    outer loop
      vertex -25 9.86336 15.8465
      vertex -35 5.04186 14.2799
      vertex -35 9.86336 15.8465
    endloop
  endfacet
  facet normal 0 0.809017 -0.587785
    outer loop
      vertex -25 18.0213 21.7736
      vertex -35 18.9123 23
      vertex -25 18.9123 23
    endloop
  endfacet
  facet normal 0 0.809017 -0.587785
    outer loop
      vertex -35 18.9123 23
      vertex -25 18.0213 21.7736
      vertex -35 18.0213 21.7736
    endloop
  endfacet
  facet normal 0 0.104529 -0.994522
    outer loop
      vertex -35 0 13.75
      vertex -25 5.04186 14.2799
      vertex -25 0 13.75
    endloop
  endfacet
  facet normal 0 0.104529 -0.994522
    outer loop
      vertex -25 5.04186 14.2799
      vertex -35 0 13.75
      vertex -35 5.04186 14.2799
    endloop
  endfacet
  facet normal 0 -0.809017 -0.587785
    outer loop
      vertex -35 -18.0213 21.7736
      vertex -25 -18.9123 23
      vertex -35 -18.9123 23
    endloop
  endfacet
  facet normal 0 -0.809017 -0.587785
    outer loop
      vertex -25 -18.9123 23
      vertex -35 -18.0213 21.7736
      vertex -25 -18.0213 21.7736
    endloop
  endfacet
  facet normal 0 -0.5 -0.866025
    outer loop
      vertex -35 -14.2538 18.3813
      vertex -25 -9.86336 15.8465
      vertex -25 -14.2538 18.3813
    endloop
  endfacet
  facet normal -0 -0.5 -0.866025
    outer loop
      vertex -25 -9.86336 15.8465
      vertex -35 -14.2538 18.3813
      vertex -35 -9.86336 15.8465
    endloop
  endfacet
  facet normal 0 -0.309017 -0.951057
    outer loop
      vertex -35 -9.86336 15.8465
      vertex -25 -5.04186 14.2799
      vertex -25 -9.86336 15.8465
    endloop
  endfacet
  facet normal -0 -0.309017 -0.951057
    outer loop
      vertex -25 -5.04186 14.2799
      vertex -35 -9.86336 15.8465
      vertex -35 -5.04186 14.2799
    endloop
  endfacet
  facet normal 0 -0.669131 -0.743145
    outer loop
      vertex -35 -18.0213 21.7736
      vertex -25 -14.2538 18.3813
      vertex -25 -18.0213 21.7736
    endloop
  endfacet
  facet normal -0 -0.669131 -0.743145
    outer loop
      vertex -25 -14.2538 18.3813
      vertex -35 -18.0213 21.7736
      vertex -35 -14.2538 18.3813
    endloop
  endfacet
  facet normal 0 -0.809017 0.587785
    outer loop
      vertex 25 19.5076 20.4353
      vertex 35 21.3709 23
      vertex 25 21.3709 23
    endloop
  endfacet
  facet normal 0 -0.809017 0.587785
    outer loop
      vertex 35 21.3709 23
      vertex 25 19.5076 20.4353
      vertex 35 19.5076 20.4353
    endloop
  endfacet
  facet normal -0 0.309017 0.951056
    outer loop
      vertex 25 -7.53935 13
      vertex 35 -10.6768 14.0194
      vertex 35 -7.53935 13
    endloop
  endfacet
  facet normal 0 0.309017 0.951056
    outer loop
      vertex 35 -10.6768 14.0194
      vertex 25 -7.53935 13
      vertex 25 -10.6768 14.0194
    endloop
  endfacet
  facet normal 0 -0.5 0.866025
    outer loop
      vertex 25 15.4294 16.7633
      vertex 35 10.6768 14.0194
      vertex 35 15.4294 16.7633
    endloop
  endfacet
  facet normal 0 -0.5 0.866025
    outer loop
      vertex 35 10.6768 14.0194
      vertex 25 15.4294 16.7633
      vertex 25 10.6768 14.0194
    endloop
  endfacet
  facet normal 0 -0.309017 0.951056
    outer loop
      vertex 25 10.6768 14.0194
      vertex 35 7.53935 13
      vertex 35 10.6768 14.0194
    endloop
  endfacet
  facet normal 0 -0.309017 0.951056
    outer loop
      vertex 35 7.53935 13
      vertex 25 10.6768 14.0194
      vertex 25 7.53935 13
    endloop
  endfacet
  facet normal 0 -0.66913 0.743145
    outer loop
      vertex 25 19.5076 20.4353
      vertex 35 15.4294 16.7633
      vertex 35 19.5076 20.4353
    endloop
  endfacet
  facet normal 0 -0.66913 0.743145
    outer loop
      vertex 35 15.4294 16.7633
      vertex 25 19.5076 20.4353
      vertex 25 15.4294 16.7633
    endloop
  endfacet
  facet normal -1 0 0
    outer loop
      vertex 35 19.5076 20.4353
      vertex 35 18.9123 23
      vertex 35 21.3709 23
    endloop
  endfacet
  facet normal -1 0 0
    outer loop
      vertex 35 19.5076 20.4353
      vertex 35 18.0213 21.7736
      vertex 35 18.9123 23
    endloop
  endfacet
  facet normal -1 0 0
    outer loop
      vertex 35 15.4294 16.7633
      vertex 35 18.0213 21.7736
      vertex 35 19.5076 20.4353
    endloop
  endfacet
  facet normal -1 0 0
    outer loop
      vertex 35 15.4294 16.7633
      vertex 35 14.2538 18.3813
      vertex 35 18.0213 21.7736
    endloop
  endfacet
  facet normal -1 0 0
    outer loop
      vertex 35 10.6768 14.0194
      vertex 35 14.2538 18.3813
      vertex 35 15.4294 16.7633
    endloop
  endfacet
  facet normal -1 0 0
    outer loop
      vertex 35 10.6768 14.0194
      vertex 35 9.86336 15.8465
      vertex 35 14.2538 18.3813
    endloop
  endfacet
  facet normal -1 0 0
    outer loop
      vertex 35 7.53935 13
      vertex 35 9.86336 15.8465
      vertex 35 10.6768 14.0194
    endloop
  endfacet
  facet normal -1 0 0
    outer loop
      vertex 35 7.53935 13
      vertex 35 5.04186 14.2799
      vertex 35 9.86336 15.8465
    endloop
  endfacet
  facet normal -1 0 0
    outer loop
      vertex 35 7.53935 13
      vertex 35 0 13.75
      vertex 35 5.04186 14.2799
    endloop
  endfacet
  facet normal -1 0 0
    outer loop
      vertex 35 -7.53935 13
      vertex 35 0 13.75
      vertex 35 7.53935 13
    endloop
  endfacet
  facet normal -1 0 0
    outer loop
      vertex 35 -7.53935 13
      vertex 35 -5.04186 14.2799
      vertex 35 0 13.75
    endloop
  endfacet
  facet normal -1 0 0
    outer loop
      vertex 35 -7.53935 13
      vertex 35 -9.86336 15.8465
      vertex 35 -5.04186 14.2799
    endloop
  endfacet
  facet normal -1 0 0
    outer loop
      vertex 35 -10.6768 14.0194
      vertex 35 -9.86336 15.8465
      vertex 35 -7.53935 13
    endloop
  endfacet
  facet normal -1 0 0
    outer loop
      vertex 35 -10.6768 14.0194
      vertex 35 -14.2538 18.3813
      vertex 35 -9.86336 15.8465
    endloop
  endfacet
  facet normal -1 0 0
    outer loop
      vertex 35 -15.4294 16.7633
      vertex 35 -14.2538 18.3813
      vertex 35 -10.6768 14.0194
    endloop
  endfacet
  facet normal -1 0 0
    outer loop
      vertex 35 -15.4294 16.7633
      vertex 35 -18.0213 21.7736
      vertex 35 -14.2538 18.3813
    endloop
  endfacet
  facet normal -1 0 0
    outer loop
      vertex 35 -19.5076 20.4353
      vertex 35 -18.0213 21.7736
      vertex 35 -15.4294 16.7633
    endloop
  endfacet
  facet normal -1 -0 0
    outer loop
      vertex 35 -18.0213 21.7736
      vertex 35 -19.5076 20.4353
      vertex 35 -18.9123 23
    endloop
  endfacet
  facet normal -1 -0 0
    outer loop
      vertex 35 -18.9123 23
      vertex 35 -19.5076 20.4353
      vertex 35 -21.3709 23
    endloop
  endfacet
  facet normal 1 -0 0
    outer loop
      vertex 25 18.9123 23
      vertex 25 19.5076 20.4353
      vertex 25 21.3709 23
    endloop
  endfacet
  facet normal 1 -0 0
    outer loop
      vertex 25 18.0213 21.7736
      vertex 25 19.5076 20.4353
      vertex 25 18.9123 23
    endloop
  endfacet
  facet normal 1 0 0
    outer loop
      vertex 25 18.0213 21.7736
      vertex 25 15.4294 16.7633
      vertex 25 19.5076 20.4353
    endloop
  endfacet
  facet normal 1 -0 0
    outer loop
      vertex 25 14.2538 18.3813
      vertex 25 15.4294 16.7633
      vertex 25 18.0213 21.7736
    endloop
  endfacet
  facet normal 1 0 0
    outer loop
      vertex 25 14.2538 18.3813
      vertex 25 10.6768 14.0194
      vertex 25 15.4294 16.7633
    endloop
  endfacet
  facet normal 1 -0 0
    outer loop
      vertex 25 9.86336 15.8465
      vertex 25 10.6768 14.0194
      vertex 25 14.2538 18.3813
    endloop
  endfacet
  facet normal 1 0 0
    outer loop
      vertex 25 9.86336 15.8465
      vertex 25 7.53935 13
      vertex 25 10.6768 14.0194
    endloop
  endfacet
  facet normal 1 -0 0
    outer loop
      vertex 25 5.04186 14.2799
      vertex 25 7.53935 13
      vertex 25 9.86336 15.8465
    endloop
  endfacet
  facet normal 1 -0 0
    outer loop
      vertex 25 0 13.75
      vertex 25 7.53935 13
      vertex 25 5.04186 14.2799
    endloop
  endfacet
  facet normal 1 0 0
    outer loop
      vertex 25 0 13.75
      vertex 25 -7.53935 13
      vertex 25 7.53935 13
    endloop
  endfacet
  facet normal 1 0 0
    outer loop
      vertex 25 -5.04186 14.2799
      vertex 25 -7.53935 13
      vertex 25 0 13.75
    endloop
  endfacet
  facet normal 1 0 0
    outer loop
      vertex 25 -9.86336 15.8465
      vertex 25 -7.53935 13
      vertex 25 -5.04186 14.2799
    endloop
  endfacet
  facet normal 1 0 0
    outer loop
      vertex 25 -9.86336 15.8465
      vertex 25 -10.6768 14.0194
      vertex 25 -7.53935 13
    endloop
  endfacet
  facet normal 1 0 0
    outer loop
      vertex 25 -14.2538 18.3813
      vertex 25 -10.6768 14.0194
      vertex 25 -9.86336 15.8465
    endloop
  endfacet
  facet normal 1 0 0
    outer loop
      vertex 25 -14.2538 18.3813
      vertex 25 -15.4294 16.7633
      vertex 25 -10.6768 14.0194
    endloop
  endfacet
  facet normal 1 0 0
    outer loop
      vertex 25 -18.0213 21.7736
      vertex 25 -15.4294 16.7633
      vertex 25 -14.2538 18.3813
    endloop
  endfacet
  facet normal 1 0 0
    outer loop
      vertex 25 -19.5076 20.4353
      vertex 25 -18.0213 21.7736
      vertex 25 -18.9123 23
    endloop
  endfacet
  facet normal 1 0 0
    outer loop
      vertex 25 -18.0213 21.7736
      vertex 25 -19.5076 20.4353
      vertex 25 -15.4294 16.7633
    endloop
  endfacet
  facet normal 1 0 -0
    outer loop
      vertex 25 -19.5076 20.4353
      vertex 25 -18.9123 23
      vertex 25 -21.3709 23
    endloop
  endfacet
  facet normal -0 0.5 0.866025
    outer loop
      vertex 25 -10.6768 14.0194
      vertex 35 -15.4294 16.7633
      vertex 35 -10.6768 14.0194
    endloop
  endfacet
  facet normal 0 0.5 0.866025
    outer loop
      vertex 35 -15.4294 16.7633
      vertex 25 -10.6768 14.0194
      vertex 25 -15.4294 16.7633
    endloop
  endfacet
  facet normal 0 0.809017 0.587785
    outer loop
      vertex 35 -19.5076 20.4353
      vertex 25 -21.3709 23
      vertex 35 -21.3709 23
    endloop
  endfacet
  facet normal 0 0.809017 0.587785
    outer loop
      vertex 25 -21.3709 23
      vertex 35 -19.5076 20.4353
      vertex 25 -19.5076 20.4353
    endloop
  endfacet
  facet normal -0 0.66913 0.743145
    outer loop
      vertex 25 -15.4294 16.7633
      vertex 35 -19.5076 20.4353
      vertex 35 -15.4294 16.7633
    endloop
  endfacet
  facet normal 0 0.66913 0.743145
    outer loop
      vertex 35 -19.5076 20.4353
      vertex 25 -15.4294 16.7633
      vertex 25 -19.5076 20.4353
    endloop
  endfacet
  facet normal 0 0.5 -0.866025
    outer loop
      vertex 25 9.86336 15.8465
      vertex 35 14.2538 18.3813
      vertex 35 9.86336 15.8465
    endloop
  endfacet
  facet normal 0 0.5 -0.866025
    outer loop
      vertex 35 14.2538 18.3813
      vertex 25 9.86336 15.8465
      vertex 25 14.2538 18.3813
    endloop
  endfacet
  facet normal 0 0.669131 -0.743145
    outer loop
      vertex 25 14.2538 18.3813
      vertex 35 18.0213 21.7736
      vertex 35 14.2538 18.3813
    endloop
  endfacet
  facet normal 0 0.669131 -0.743145
    outer loop
      vertex 35 18.0213 21.7736
      vertex 25 14.2538 18.3813
      vertex 25 18.0213 21.7736
    endloop
  endfacet
  facet normal 0 -0.104529 -0.994522
    outer loop
      vertex 25 -5.04186 14.2799
      vertex 35 0 13.75
      vertex 35 -5.04186 14.2799
    endloop
  endfacet
  facet normal -0 -0.104529 -0.994522
    outer loop
      vertex 35 0 13.75
      vertex 25 -5.04186 14.2799
      vertex 25 0 13.75
    endloop
  endfacet
  facet normal 0 0.309017 -0.951057
    outer loop
      vertex 25 5.04186 14.2799
      vertex 35 9.86336 15.8465
      vertex 35 5.04186 14.2799
    endloop
  endfacet
  facet normal 0 0.309017 -0.951057
    outer loop
      vertex 35 9.86336 15.8465
      vertex 25 5.04186 14.2799
      vertex 25 9.86336 15.8465
    endloop
  endfacet
  facet normal 0 0.809017 -0.587785
    outer loop
      vertex 35 18.0213 21.7736
      vertex 25 18.9123 23
      vertex 35 18.9123 23
    endloop
  endfacet
  facet normal 0 0.809017 -0.587785
    outer loop
      vertex 25 18.9123 23
      vertex 35 18.0213 21.7736
      vertex 25 18.0213 21.7736
    endloop
  endfacet
  facet normal 0 0.104529 -0.994522
    outer loop
      vertex 25 0 13.75
      vertex 35 5.04186 14.2799
      vertex 35 0 13.75
    endloop
  endfacet
  facet normal 0 0.104529 -0.994522
    outer loop
      vertex 35 5.04186 14.2799
      vertex 25 0 13.75
      vertex 25 5.04186 14.2799
    endloop
  endfacet
  facet normal 0 -0.809017 -0.587785
    outer loop
      vertex 25 -18.0213 21.7736
      vertex 35 -18.9123 23
      vertex 25 -18.9123 23
    endloop
  endfacet
  facet normal 0 -0.809017 -0.587785
    outer loop
      vertex 35 -18.9123 23
      vertex 25 -18.0213 21.7736
      vertex 35 -18.0213 21.7736
    endloop
  endfacet
  facet normal 0 -0.5 -0.866025
    outer loop
      vertex 25 -14.2538 18.3813
      vertex 35 -9.86336 15.8465
      vertex 35 -14.2538 18.3813
    endloop
  endfacet
  facet normal -0 -0.5 -0.866025
    outer loop
      vertex 35 -9.86336 15.8465
      vertex 25 -14.2538 18.3813
      vertex 25 -9.86336 15.8465
    endloop
  endfacet
  facet normal 0 -0.309017 -0.951057
    outer loop
      vertex 25 -9.86336 15.8465
      vertex 35 -5.04186 14.2799
      vertex 35 -9.86336 15.8465
    endloop
  endfacet
  facet normal -0 -0.309017 -0.951057
    outer loop
      vertex 35 -5.04186 14.2799
      vertex 25 -9.86336 15.8465
      vertex 25 -5.04186 14.2799
    endloop
  endfacet
  facet normal 0 -0.669131 -0.743145
    outer loop
      vertex 25 -18.0213 21.7736
      vertex 35 -14.2538 18.3813
      vertex 35 -18.0213 21.7736
    endloop
  endfacet
  facet normal -0 -0.669131 -0.743145
    outer loop
      vertex 35 -14.2538 18.3813
      vertex 25 -18.0213 21.7736
      vertex 25 -14.2538 18.3813
    endloop
  endfacet
  facet normal 0 0 1
    outer loop
      vertex 35 -21.3709 23
      vertex 36.5 -16.4108 23
      vertex 35 -18.9123 23
    endloop
  endfacet
  facet normal 0 0 1
    outer loop
      vertex 36.5 -16.4108 23
      vertex 25 -18.9123 23
      vertex 35 -18.9123 23
    endloop
  endfacet
  facet normal 0 0 1
    outer loop
      vertex 25 -18.9123 23
      vertex -25 -18.9123 23
      vertex 25 -21.3709 23
    endloop
  endfacet
  facet normal 0 0 1
    outer loop
      vertex 36.5 -16.4108 23
      vertex -25 -18.9123 23
      vertex 25 -18.9123 23
    endloop
  endfacet
  facet normal -0 0 1
    outer loop
      vertex -36.5 -16.4108 23
      vertex -25 -18.9123 23
      vertex 36.5 -16.4108 23
    endloop
  endfacet
  facet normal 0 0 1
    outer loop
      vertex -35 -18.9123 23
      vertex -36.5 -16.4108 23
      vertex -35 -21.3709 23
    endloop
  endfacet
  facet normal 0 0 1
    outer loop
      vertex -25 -18.9123 23
      vertex -36.5 -16.4108 23
      vertex -35 -18.9123 23
    endloop
  endfacet
  facet normal 0 0 1
    outer loop
      vertex 36.5 -16.4108 23
      vertex 35 -21.3709 23
      vertex 36.5 -29 23
    endloop
  endfacet
  facet normal -0 0 1
    outer loop
      vertex 25 -21.3709 23
      vertex 36.5 -29 23
      vertex 35 -21.3709 23
    endloop
  endfacet
  facet normal 0 0 1
    outer loop
      vertex -25 -21.3709 23
      vertex 25 -21.3709 23
      vertex -25 -18.9123 23
    endloop
  endfacet
  facet normal 0 0 1
    outer loop
      vertex 25 -21.3709 23
      vertex -25 -21.3709 23
      vertex 36.5 -29 23
    endloop
  endfacet
  facet normal 0 0 1
    outer loop
      vertex -36.5 -29 23
      vertex -25 -21.3709 23
      vertex -35 -21.3709 23
    endloop
  endfacet
  facet normal 0 0 1
    outer loop
      vertex -25 -21.3709 23
      vertex -36.5 -29 23
      vertex 36.5 -29 23
    endloop
  endfacet
  facet normal 0 0 1
    outer loop
      vertex -36.5 -29 23
      vertex -35 -21.3709 23
      vertex -36.5 -16.4108 23
    endloop
  endfacet
  facet normal 0 0 1
    outer loop
      vertex 36.5 29 23
      vertex 35 21.3709 23
      vertex 36.5 16.4108 23
    endloop
  endfacet
  facet normal 0 0 1
    outer loop
      vertex 36.5 29 23
      vertex 25 21.3709 23
      vertex 35 21.3709 23
    endloop
  endfacet
  facet normal 0 0 1
    outer loop
      vertex 25 21.3709 23
      vertex -25 21.3709 23
      vertex 25 18.9123 23
    endloop
  endfacet
  facet normal 0 0 1
    outer loop
      vertex 36.5 29 23
      vertex -25 21.3709 23
      vertex 25 21.3709 23
    endloop
  endfacet
  facet normal -0 0 1
    outer loop
      vertex -36.5 29 23
      vertex -25 21.3709 23
      vertex 36.5 29 23
    endloop
  endfacet
  facet normal 0 0 1
    outer loop
      vertex -36.5 16.4108 23
      vertex -35 21.3709 23
      vertex -36.5 29 23
    endloop
  endfacet
  facet normal 0 0 1
    outer loop
      vertex -25 21.3709 23
      vertex -36.5 29 23
      vertex -35 21.3709 23
    endloop
  endfacet
  facet normal -0 0 1
    outer loop
      vertex 35 18.9123 23
      vertex 36.5 16.4108 23
      vertex 35 21.3709 23
    endloop
  endfacet
  facet normal -0 0 1
    outer loop
      vertex 25 18.9123 23
      vertex 36.5 16.4108 23
      vertex 35 18.9123 23
    endloop
  endfacet
  facet normal 0 0 1
    outer loop
      vertex -25 18.9123 23
      vertex 25 18.9123 23
      vertex -25 21.3709 23
    endloop
  endfacet
  facet normal 0 0 1
    outer loop
      vertex 25 18.9123 23
      vertex -25 18.9123 23
      vertex 36.5 16.4108 23
    endloop
  endfacet
  facet normal 0 0 1
    outer loop
      vertex -36.5 16.4108 23
      vertex -25 18.9123 23
      vertex -35 18.9123 23
    endloop
  endfacet
  facet normal 0 0 1
    outer loop
      vertex -25 18.9123 23
      vertex -36.5 16.4108 23
      vertex 36.5 16.4108 23
    endloop
  endfacet
  facet normal 0 0 1
    outer loop
      vertex -35 21.3709 23
      vertex -36.5 16.4108 23
      vertex -35 18.9123 23
    endloop
  endfacet
  facet normal 0 -0.104528 0.994522
    outer loop
      vertex -36.5 4.62603 16.2362
      vertex 36.5 0 15.75
      vertex 36.5 4.62603 16.2362
    endloop
  endfacet
  facet normal 0 -0.104528 0.994522
    outer loop
      vertex 36.5 0 15.75
      vertex -36.5 4.62603 16.2362
      vertex -36.5 0 15.75
    endloop
  endfacet
  facet normal 0 -0.669131 0.743145
    outer loop
      vertex -36.5 16.4108 23
      vertex 36.5 13.0782 19.9994
      vertex 36.5 16.4108 23
    endloop
  endfacet
  facet normal 0 -0.669131 0.743145
    outer loop
      vertex 36.5 13.0782 19.9994
      vertex -36.5 16.4108 23
      vertex -36.5 13.0782 19.9994
    endloop
  endfacet
  facet normal -0 0.309017 0.951056
    outer loop
      vertex -36.5 -4.62603 16.2362
      vertex 36.5 -9.04989 17.6736
      vertex 36.5 -4.62603 16.2362
    endloop
  endfacet
  facet normal 0 0.309017 0.951056
    outer loop
      vertex 36.5 -9.04989 17.6736
      vertex -36.5 -4.62603 16.2362
      vertex -36.5 -9.04989 17.6736
    endloop
  endfacet
  facet normal -0 0.104528 0.994522
    outer loop
      vertex -36.5 0 15.75
      vertex 36.5 -4.62603 16.2362
      vertex 36.5 0 15.75
    endloop
  endfacet
  facet normal 0 0.104528 0.994522
    outer loop
      vertex 36.5 -4.62603 16.2362
      vertex -36.5 0 15.75
      vertex -36.5 -4.62603 16.2362
    endloop
  endfacet
  facet normal 0 -0.309017 0.951056
    outer loop
      vertex -36.5 9.04989 17.6736
      vertex 36.5 4.62603 16.2362
      vertex 36.5 9.04989 17.6736
    endloop
  endfacet
  facet normal 0 -0.309017 0.951056
    outer loop
      vertex 36.5 4.62603 16.2362
      vertex -36.5 9.04989 17.6736
      vertex -36.5 4.62603 16.2362
    endloop
  endfacet
  facet normal -0 0.5 0.866026
    outer loop
      vertex -36.5 -9.04989 17.6736
      vertex 36.5 -13.0782 19.9994
      vertex 36.5 -9.04989 17.6736
    endloop
  endfacet
  facet normal 0 0.5 0.866026
    outer loop
      vertex 36.5 -13.0782 19.9994
      vertex -36.5 -9.04989 17.6736
      vertex -36.5 -13.0782 19.9994
    endloop
  endfacet
  facet normal 0 -0.5 0.866026
    outer loop
      vertex -36.5 13.0782 19.9994
      vertex 36.5 9.04989 17.6736
      vertex 36.5 13.0782 19.9994
    endloop
  endfacet
  facet normal 0 -0.5 0.866026
    outer loop
      vertex 36.5 9.04989 17.6736
      vertex -36.5 13.0782 19.9994
      vertex -36.5 9.04989 17.6736
    endloop
  endfacet
  facet normal -0 0.669131 0.743145
    outer loop
      vertex -36.5 -13.0782 19.9994
      vertex 36.5 -16.4108 23
      vertex 36.5 -13.0782 19.9994
    endloop
  endfacet
  facet normal 0 0.669131 0.743145
    outer loop
      vertex 36.5 -16.4108 23
      vertex -36.5 -13.0782 19.9994
      vertex -36.5 -16.4108 23
    endloop
  endfacet
  facet normal 0.939692 0.342021 0
    outer loop
      vertex -28.25 -24.5 13
      vertex -28.8934 -22.7323 5.5
      vertex -28.8934 -22.7323 13
    endloop
  endfacet
  facet normal 0.939692 0.342021 0
    outer loop
      vertex -28.8934 -22.7323 5.5
      vertex -28.25 -24.5 13
      vertex -28.25 -24.5 5.5
    endloop
  endfacet
  facet normal -1 0 0
    outer loop
      vertex -33.5842 -25.4406 5.5
      vertex -33.5842 -23.5594 13
      vertex -33.5842 -23.5594 5.5
    endloop
  endfacet
  facet normal -1 -0 0
    outer loop
      vertex -33.5842 -23.5594 13
      vertex -33.5842 -25.4406 5.5
      vertex -33.5842 -25.4406 13
    endloop
  endfacet
  facet normal 0 0 -1
    outer loop
      vertex -29.75 -24.5 5.5
      vertex -28.25 -24.5 5.5
      vertex -28.8934 -26.2677 5.5
    endloop
  endfacet
  facet normal 0 0 -1
    outer loop
      vertex -28.25 -24.5 5.5
      vertex -29.75 -24.5 5.5
      vertex -28.8934 -22.7323 5.5
    endloop
  endfacet
  facet normal 0 0 -1
    outer loop
      vertex -30.6137 -25.6888 5.5
      vertex -28.8934 -26.2677 5.5
      vertex -30.5225 -27.2082 5.5
    endloop
  endfacet
  facet normal 0 0 -1
    outer loop
      vertex -28.8934 -26.2677 5.5
      vertex -30.6137 -25.6888 5.5
      vertex -29.75 -24.5 5.5
    endloop
  endfacet
  facet normal 0 0 -1
    outer loop
      vertex -32.375 -26.8816 5.5
      vertex -30.6137 -25.6888 5.5
      vertex -30.5225 -27.2082 5.5
    endloop
  endfacet
  facet normal 0 0 -1
    outer loop
      vertex -33.5842 -25.4406 5.5
      vertex -32.0113 -25.2347 5.5
      vertex -32.375 -26.8816 5.5
    endloop
  endfacet
  facet normal -0 0 -1
    outer loop
      vertex -30.6137 -25.6888 5.5
      vertex -32.375 -26.8816 5.5
      vertex -32.0113 -25.2347 5.5
    endloop
  endfacet
  facet normal 0 0 -1
    outer loop
      vertex -30.6137 -23.3112 5.5
      vertex -28.8934 -22.7323 5.5
      vertex -29.75 -24.5 5.5
    endloop
  endfacet
  facet normal -0 0 -1
    outer loop
      vertex -28.8934 -22.7323 5.5
      vertex -30.6137 -23.3112 5.5
      vertex -30.5225 -21.7918 5.5
    endloop
  endfacet
  facet normal 0 0 -1
    outer loop
      vertex -32.375 -22.1184 5.5
      vertex -30.6137 -23.3112 5.5
      vertex -32.0113 -23.7653 5.5
    endloop
  endfacet
  facet normal 0 0 -1
    outer loop
      vertex -30.6137 -23.3112 5.5
      vertex -32.375 -22.1184 5.5
      vertex -30.5225 -21.7918 5.5
    endloop
  endfacet
  facet normal -0 0 -1
    outer loop
      vertex -32.0113 -25.2347 5.5
      vertex -33.5842 -25.4406 5.5
      vertex -32.0113 -23.7653 5.5
    endloop
  endfacet
  facet normal 0 0 -1
    outer loop
      vertex -33.5842 -23.5594 5.5
      vertex -32.0113 -23.7653 5.5
      vertex -33.5842 -25.4406 5.5
    endloop
  endfacet
  facet normal 0 0 -1
    outer loop
      vertex -32.0113 -23.7653 5.5
      vertex -33.5842 -23.5594 5.5
      vertex -32.375 -22.1184 5.5
    endloop
  endfacet
  facet normal -0.173649 0.984808 0
    outer loop
      vertex -30.5225 -21.7918 5.5
      vertex -32.375 -22.1184 13
      vertex -30.5225 -21.7918 13
    endloop
  endfacet
  facet normal -0.173649 0.984808 0
    outer loop
      vertex -32.375 -22.1184 13
      vertex -30.5225 -21.7918 5.5
      vertex -32.375 -22.1184 5.5
    endloop
  endfacet
  facet normal 0.5 0.866025 -0
    outer loop
      vertex -28.8934 -22.7323 5.5
      vertex -30.5225 -21.7918 13
      vertex -28.8934 -22.7323 13
    endloop
  endfacet
  facet normal 0.5 0.866025 0
    outer loop
      vertex -30.5225 -21.7918 13
      vertex -28.8934 -22.7323 5.5
      vertex -30.5225 -21.7918 5.5
    endloop
  endfacet
  facet normal -0.766045 0.642787 0
    outer loop
      vertex -33.5842 -23.5594 5.5
      vertex -32.375 -22.1184 13
      vertex -32.375 -22.1184 5.5
    endloop
  endfacet
  facet normal -0.766045 0.642787 0
    outer loop
      vertex -32.375 -22.1184 13
      vertex -33.5842 -23.5594 5.5
      vertex -33.5842 -23.5594 13
    endloop
  endfacet
  facet normal 0.939692 -0.342021 0
    outer loop
      vertex -28.8934 -26.2677 13
      vertex -28.25 -24.5 5.5
      vertex -28.25 -24.5 13
    endloop
  endfacet
  facet normal 0.939692 -0.342021 0
    outer loop
      vertex -28.25 -24.5 5.5
      vertex -28.8934 -26.2677 13
      vertex -28.8934 -26.2677 5.5
    endloop
  endfacet
  facet normal 0.5 -0.866025 0
    outer loop
      vertex -30.5225 -27.2082 5.5
      vertex -28.8934 -26.2677 13
      vertex -30.5225 -27.2082 13
    endloop
  endfacet
  facet normal 0.5 -0.866025 0
    outer loop
      vertex -28.8934 -26.2677 13
      vertex -30.5225 -27.2082 5.5
      vertex -28.8934 -26.2677 5.5
    endloop
  endfacet
  facet normal -0.173649 -0.984808 0
    outer loop
      vertex -32.375 -26.8816 5.5
      vertex -30.5225 -27.2082 13
      vertex -32.375 -26.8816 13
    endloop
  endfacet
  facet normal -0.173649 -0.984808 -0
    outer loop
      vertex -30.5225 -27.2082 13
      vertex -32.375 -26.8816 5.5
      vertex -30.5225 -27.2082 5.5
    endloop
  endfacet
  facet normal -0.766045 -0.642787 0
    outer loop
      vertex -32.375 -26.8816 5.5
      vertex -33.5842 -25.4406 13
      vertex -33.5842 -25.4406 5.5
    endloop
  endfacet
  facet normal -0.766045 -0.642787 0
    outer loop
      vertex -33.5842 -25.4406 13
      vertex -32.375 -26.8816 5.5
      vertex -32.375 -26.8816 13
    endloop
  endfacet
  facet normal -0.809017 -0.587786 0
    outer loop
      vertex -29.75 -24.5 5.5
      vertex -30.6137 -23.3112 13
      vertex -30.6137 -23.3112 5.5
    endloop
  endfacet
  facet normal -0.809017 -0.587786 0
    outer loop
      vertex -30.6137 -23.3112 13
      vertex -29.75 -24.5 5.5
      vertex -29.75 -24.5 13
    endloop
  endfacet
  facet normal 1 -0 0
    outer loop
      vertex -32.0113 -25.2347 13
      vertex -32.0113 -23.7653 5.5
      vertex -32.0113 -23.7653 13
    endloop
  endfacet
  facet normal 1 0 0
    outer loop
      vertex -32.0113 -23.7653 5.5
      vertex -32.0113 -25.2347 13
      vertex -32.0113 -25.2347 5.5
    endloop
  endfacet
  facet normal 0.309018 -0.951056 0
    outer loop
      vertex -32.0113 -23.7653 5.5
      vertex -30.6137 -23.3112 13
      vertex -32.0113 -23.7653 13
    endloop
  endfacet
  facet normal 0.309018 -0.951056 0
    outer loop
      vertex -30.6137 -23.3112 13
      vertex -32.0113 -23.7653 5.5
      vertex -30.6137 -23.3112 5.5
    endloop
  endfacet
  facet normal -0.809017 0.587786 0
    outer loop
      vertex -30.6137 -25.6888 5.5
      vertex -29.75 -24.5 13
      vertex -29.75 -24.5 5.5
    endloop
  endfacet
  facet normal -0.809017 0.587786 0
    outer loop
      vertex -29.75 -24.5 13
      vertex -30.6137 -25.6888 5.5
      vertex -30.6137 -25.6888 13
    endloop
  endfacet
  facet normal 0.309018 0.951056 -0
    outer loop
      vertex -30.6137 -25.6888 5.5
      vertex -32.0113 -25.2347 13
      vertex -30.6137 -25.6888 13
    endloop
  endfacet
  facet normal 0.309018 0.951056 0
    outer loop
      vertex -32.0113 -25.2347 13
      vertex -30.6137 -25.6888 5.5
      vertex -32.0113 -25.2347 5.5
    endloop
  endfacet
  facet normal 0.939692 0.342021 0
    outer loop
      vertex 33.75 -24.5 13
      vertex 33.1066 -22.7323 5.5
      vertex 33.1066 -22.7323 13
    endloop
  endfacet
  facet normal 0.939692 0.342021 0
    outer loop
      vertex 33.1066 -22.7323 5.5
      vertex 33.75 -24.5 13
      vertex 33.75 -24.5 5.5
    endloop
  endfacet
  facet normal -1 0 0
    outer loop
      vertex 28.4158 -25.4406 5.5
      vertex 28.4158 -23.5594 13
      vertex 28.4158 -23.5594 5.5
    endloop
  endfacet
  facet normal -1 -0 0
    outer loop
      vertex 28.4158 -23.5594 13
      vertex 28.4158 -25.4406 5.5
      vertex 28.4158 -25.4406 13
    endloop
  endfacet
  facet normal 0 0 -1
    outer loop
      vertex 32.25 -24.5 5.5
      vertex 33.75 -24.5 5.5
      vertex 33.1066 -26.2677 5.5
    endloop
  endfacet
  facet normal 0 0 -1
    outer loop
      vertex 33.75 -24.5 5.5
      vertex 32.25 -24.5 5.5
      vertex 33.1066 -22.7323 5.5
    endloop
  endfacet
  facet normal 0 0 -1
    outer loop
      vertex 31.3863 -25.6888 5.5
      vertex 33.1066 -26.2677 5.5
      vertex 31.4775 -27.2082 5.5
    endloop
  endfacet
  facet normal 0 0 -1
    outer loop
      vertex 33.1066 -26.2677 5.5
      vertex 31.3863 -25.6888 5.5
      vertex 32.25 -24.5 5.5
    endloop
  endfacet
  facet normal 0 0 -1
    outer loop
      vertex 29.625 -26.8816 5.5
      vertex 31.3863 -25.6888 5.5
      vertex 31.4775 -27.2082 5.5
    endloop
  endfacet
  facet normal 0 0 -1
    outer loop
      vertex 28.4158 -25.4406 5.5
      vertex 29.9887 -25.2347 5.5
      vertex 29.625 -26.8816 5.5
    endloop
  endfacet
  facet normal -0 0 -1
    outer loop
      vertex 31.3863 -25.6888 5.5
      vertex 29.625 -26.8816 5.5
      vertex 29.9887 -25.2347 5.5
    endloop
  endfacet
  facet normal 0 0 -1
    outer loop
      vertex 31.3863 -23.3112 5.5
      vertex 33.1066 -22.7323 5.5
      vertex 32.25 -24.5 5.5
    endloop
  endfacet
  facet normal -0 0 -1
    outer loop
      vertex 33.1066 -22.7323 5.5
      vertex 31.3863 -23.3112 5.5
      vertex 31.4775 -21.7918 5.5
    endloop
  endfacet
  facet normal 0 0 -1
    outer loop
      vertex 29.625 -22.1184 5.5
      vertex 31.3863 -23.3112 5.5
      vertex 29.9887 -23.7653 5.5
    endloop
  endfacet
  facet normal 0 0 -1
    outer loop
      vertex 31.3863 -23.3112 5.5
      vertex 29.625 -22.1184 5.5
      vertex 31.4775 -21.7918 5.5
    endloop
  endfacet
  facet normal -0 0 -1
    outer loop
      vertex 29.9887 -25.2347 5.5
      vertex 28.4158 -25.4406 5.5
      vertex 29.9887 -23.7653 5.5
    endloop
  endfacet
  facet normal 0 0 -1
    outer loop
      vertex 28.4158 -23.5594 5.5
      vertex 29.9887 -23.7653 5.5
      vertex 28.4158 -25.4406 5.5
    endloop
  endfacet
  facet normal 0 0 -1
    outer loop
      vertex 29.9887 -23.7653 5.5
      vertex 28.4158 -23.5594 5.5
      vertex 29.625 -22.1184 5.5
    endloop
  endfacet
  facet normal -0.173649 0.984808 0
    outer loop
      vertex 31.4775 -21.7918 5.5
      vertex 29.625 -22.1184 13
      vertex 31.4775 -21.7918 13
    endloop
  endfacet
  facet normal -0.173649 0.984808 0
    outer loop
      vertex 29.625 -22.1184 13
      vertex 31.4775 -21.7918 5.5
      vertex 29.625 -22.1184 5.5
    endloop
  endfacet
  facet normal 0.5 0.866025 -0
    outer loop
      vertex 33.1066 -22.7323 5.5
      vertex 31.4775 -21.7918 13
      vertex 33.1066 -22.7323 13
    endloop
  endfacet
  facet normal 0.5 0.866025 0
    outer loop
      vertex 31.4775 -21.7918 13
      vertex 33.1066 -22.7323 5.5
      vertex 31.4775 -21.7918 5.5
    endloop
  endfacet
  facet normal -0.766044 0.642788 0
    outer loop
      vertex 28.4158 -23.5594 5.5
      vertex 29.625 -22.1184 13
      vertex 29.625 -22.1184 5.5
    endloop
  endfacet
  facet normal -0.766044 0.642788 0
    outer loop
      vertex 29.625 -22.1184 13
      vertex 28.4158 -23.5594 5.5
      vertex 28.4158 -23.5594 13
    endloop
  endfacet
  facet normal 0.939692 -0.342021 0
    outer loop
      vertex 33.1066 -26.2677 13
      vertex 33.75 -24.5 5.5
      vertex 33.75 -24.5 13
    endloop
  endfacet
  facet normal 0.939692 -0.342021 0
    outer loop
      vertex 33.75 -24.5 5.5
      vertex 33.1066 -26.2677 13
      vertex 33.1066 -26.2677 5.5
    endloop
  endfacet
  facet normal 0.5 -0.866025 0
    outer loop
      vertex 31.4775 -27.2082 5.5
      vertex 33.1066 -26.2677 13
      vertex 31.4775 -27.2082 13
    endloop
  endfacet
  facet normal 0.5 -0.866025 0
    outer loop
      vertex 33.1066 -26.2677 13
      vertex 31.4775 -27.2082 5.5
      vertex 33.1066 -26.2677 5.5
    endloop
  endfacet
  facet normal -0.173649 -0.984808 0
    outer loop
      vertex 29.625 -26.8816 5.5
      vertex 31.4775 -27.2082 13
      vertex 29.625 -26.8816 13
    endloop
  endfacet
  facet normal -0.173649 -0.984808 -0
    outer loop
      vertex 31.4775 -27.2082 13
      vertex 29.625 -26.8816 5.5
      vertex 31.4775 -27.2082 5.5
    endloop
  endfacet
  facet normal -0.766044 -0.642788 0
    outer loop
      vertex 29.625 -26.8816 5.5
      vertex 28.4158 -25.4406 13
      vertex 28.4158 -25.4406 5.5
    endloop
  endfacet
  facet normal -0.766044 -0.642788 0
    outer loop
      vertex 28.4158 -25.4406 13
      vertex 29.625 -26.8816 5.5
      vertex 29.625 -26.8816 13
    endloop
  endfacet
  facet normal -0.809017 -0.587786 0
    outer loop
      vertex 32.25 -24.5 5.5
      vertex 31.3863 -23.3112 13
      vertex 31.3863 -23.3112 5.5
    endloop
  endfacet
  facet normal -0.809017 -0.587786 0
    outer loop
      vertex 31.3863 -23.3112 13
      vertex 32.25 -24.5 5.5
      vertex 32.25 -24.5 13
    endloop
  endfacet
  facet normal 1 -0 0
    outer loop
      vertex 29.9887 -25.2347 13
      vertex 29.9887 -23.7653 5.5
      vertex 29.9887 -23.7653 13
    endloop
  endfacet
  facet normal 1 0 0
    outer loop
      vertex 29.9887 -23.7653 5.5
      vertex 29.9887 -25.2347 13
      vertex 29.9887 -25.2347 5.5
    endloop
  endfacet
  facet normal 0.309018 -0.951056 0
    outer loop
      vertex 29.9887 -23.7653 5.5
      vertex 31.3863 -23.3112 13
      vertex 29.9887 -23.7653 13
    endloop
  endfacet
  facet normal 0.309018 -0.951056 0
    outer loop
      vertex 31.3863 -23.3112 13
      vertex 29.9887 -23.7653 5.5
      vertex 31.3863 -23.3112 5.5
    endloop
  endfacet
  facet normal -0.809017 0.587786 0
    outer loop
      vertex 31.3863 -25.6888 5.5
      vertex 32.25 -24.5 13
      vertex 32.25 -24.5 5.5
    endloop
  endfacet
  facet normal -0.809017 0.587786 0
    outer loop
      vertex 32.25 -24.5 13
      vertex 31.3863 -25.6888 5.5
      vertex 31.3863 -25.6888 13
    endloop
  endfacet
  facet normal 0.309018 0.951056 -0
    outer loop
      vertex 31.3863 -25.6888 5.5
      vertex 29.9887 -25.2347 13
      vertex 31.3863 -25.6888 13
    endloop
  endfacet
  facet normal 0.309018 0.951056 0
    outer loop
      vertex 29.9887 -25.2347 13
      vertex 31.3863 -25.6888 5.5
      vertex 29.9887 -25.2347 5.5
    endloop
  endfacet
  facet normal 0.939692 0.342021 0
    outer loop
      vertex -28.25 24.5 13
      vertex -28.8934 26.2677 5.5
      vertex -28.8934 26.2677 13
    endloop
  endfacet
  facet normal 0.939692 0.342021 0
    outer loop
      vertex -28.8934 26.2677 5.5
      vertex -28.25 24.5 13
      vertex -28.25 24.5 5.5
    endloop
  endfacet
  facet normal -1 0 0
    outer loop
      vertex -33.5842 23.5594 5.5
      vertex -33.5842 25.4406 13
      vertex -33.5842 25.4406 5.5
    endloop
  endfacet
  facet normal -1 -0 0
    outer loop
      vertex -33.5842 25.4406 13
      vertex -33.5842 23.5594 5.5
      vertex -33.5842 23.5594 13
    endloop
  endfacet
  facet normal 0 0 -1
    outer loop
      vertex -29.75 24.5 5.5
      vertex -28.25 24.5 5.5
      vertex -28.8934 22.7323 5.5
    endloop
  endfacet
  facet normal 0 0 -1
    outer loop
      vertex -28.25 24.5 5.5
      vertex -29.75 24.5 5.5
      vertex -28.8934 26.2677 5.5
    endloop
  endfacet
  facet normal 0 0 -1
    outer loop
      vertex -30.6137 23.3112 5.5
      vertex -28.8934 22.7323 5.5
      vertex -30.5225 21.7918 5.5
    endloop
  endfacet
  facet normal 0 0 -1
    outer loop
      vertex -28.8934 22.7323 5.5
      vertex -30.6137 23.3112 5.5
      vertex -29.75 24.5 5.5
    endloop
  endfacet
  facet normal 0 0 -1
    outer loop
      vertex -32.375 22.1184 5.5
      vertex -30.6137 23.3112 5.5
      vertex -30.5225 21.7918 5.5
    endloop
  endfacet
  facet normal 0 0 -1
    outer loop
      vertex -33.5842 23.5594 5.5
      vertex -32.0113 23.7653 5.5
      vertex -32.375 22.1184 5.5
    endloop
  endfacet
  facet normal -0 0 -1
    outer loop
      vertex -30.6137 23.3112 5.5
      vertex -32.375 22.1184 5.5
      vertex -32.0113 23.7653 5.5
    endloop
  endfacet
  facet normal 0 0 -1
    outer loop
      vertex -30.6137 25.6888 5.5
      vertex -28.8934 26.2677 5.5
      vertex -29.75 24.5 5.5
    endloop
  endfacet
  facet normal -0 0 -1
    outer loop
      vertex -28.8934 26.2677 5.5
      vertex -30.6137 25.6888 5.5
      vertex -30.5225 27.2082 5.5
    endloop
  endfacet
  facet normal 0 0 -1
    outer loop
      vertex -32.375 26.8816 5.5
      vertex -30.6137 25.6888 5.5
      vertex -32.0113 25.2347 5.5
    endloop
  endfacet
  facet normal 0 0 -1
    outer loop
      vertex -30.6137 25.6888 5.5
      vertex -32.375 26.8816 5.5
      vertex -30.5225 27.2082 5.5
    endloop
  endfacet
  facet normal -0 0 -1
    outer loop
      vertex -32.0113 23.7653 5.5
      vertex -33.5842 23.5594 5.5
      vertex -32.0113 25.2347 5.5
    endloop
  endfacet
  facet normal 0 0 -1
    outer loop
      vertex -33.5842 25.4406 5.5
      vertex -32.0113 25.2347 5.5
      vertex -33.5842 23.5594 5.5
    endloop
  endfacet
  facet normal 0 0 -1
    outer loop
      vertex -32.0113 25.2347 5.5
      vertex -33.5842 25.4406 5.5
      vertex -32.375 26.8816 5.5
    endloop
  endfacet
  facet normal -0.173649 0.984808 0
    outer loop
      vertex -30.5225 27.2082 5.5
      vertex -32.375 26.8816 13
      vertex -30.5225 27.2082 13
    endloop
  endfacet
  facet normal -0.173649 0.984808 0
    outer loop
      vertex -32.375 26.8816 13
      vertex -30.5225 27.2082 5.5
      vertex -32.375 26.8816 5.5
    endloop
  endfacet
  facet normal 0.5 0.866025 -0
    outer loop
      vertex -28.8934 26.2677 5.5
      vertex -30.5225 27.2082 13
      vertex -28.8934 26.2677 13
    endloop
  endfacet
  facet normal 0.5 0.866025 0
    outer loop
      vertex -30.5225 27.2082 13
      vertex -28.8934 26.2677 5.5
      vertex -30.5225 27.2082 5.5
    endloop
  endfacet
  facet normal -0.766045 0.642787 0
    outer loop
      vertex -33.5842 25.4406 5.5
      vertex -32.375 26.8816 13
      vertex -32.375 26.8816 5.5
    endloop
  endfacet
  facet normal -0.766045 0.642787 0
    outer loop
      vertex -32.375 26.8816 13
      vertex -33.5842 25.4406 5.5
      vertex -33.5842 25.4406 13
    endloop
  endfacet
  facet normal 0.939692 -0.342021 0
    outer loop
      vertex -28.8934 22.7323 13
      vertex -28.25 24.5 5.5
      vertex -28.25 24.5 13
    endloop
  endfacet
  facet normal 0.939692 -0.342021 0
    outer loop
      vertex -28.25 24.5 5.5
      vertex -28.8934 22.7323 13
      vertex -28.8934 22.7323 5.5
    endloop
  endfacet
  facet normal 0.5 -0.866025 0
    outer loop
      vertex -30.5225 21.7918 5.5
      vertex -28.8934 22.7323 13
      vertex -30.5225 21.7918 13
    endloop
  endfacet
  facet normal 0.5 -0.866025 0
    outer loop
      vertex -28.8934 22.7323 13
      vertex -30.5225 21.7918 5.5
      vertex -28.8934 22.7323 5.5
    endloop
  endfacet
  facet normal -0.173649 -0.984808 0
    outer loop
      vertex -32.375 22.1184 5.5
      vertex -30.5225 21.7918 13
      vertex -32.375 22.1184 13
    endloop
  endfacet
  facet normal -0.173649 -0.984808 -0
    outer loop
      vertex -30.5225 21.7918 13
      vertex -32.375 22.1184 5.5
      vertex -30.5225 21.7918 5.5
    endloop
  endfacet
  facet normal -0.766045 -0.642787 0
    outer loop
      vertex -32.375 22.1184 5.5
      vertex -33.5842 23.5594 13
      vertex -33.5842 23.5594 5.5
    endloop
  endfacet
  facet normal -0.766045 -0.642787 0
    outer loop
      vertex -33.5842 23.5594 13
      vertex -32.375 22.1184 5.5
      vertex -32.375 22.1184 13
    endloop
  endfacet
  facet normal -0.809017 -0.587786 0
    outer loop
      vertex -29.75 24.5 5.5
      vertex -30.6137 25.6888 13
      vertex -30.6137 25.6888 5.5
    endloop
  endfacet
  facet normal -0.809017 -0.587786 0
    outer loop
      vertex -30.6137 25.6888 13
      vertex -29.75 24.5 5.5
      vertex -29.75 24.5 13
    endloop
  endfacet
  facet normal 1 -0 0
    outer loop
      vertex -32.0113 23.7653 13
      vertex -32.0113 25.2347 5.5
      vertex -32.0113 25.2347 13
    endloop
  endfacet
  facet normal 1 0 0
    outer loop
      vertex -32.0113 25.2347 5.5
      vertex -32.0113 23.7653 13
      vertex -32.0113 23.7653 5.5
    endloop
  endfacet
  facet normal 0.309018 -0.951056 0
    outer loop
      vertex -32.0113 25.2347 5.5
      vertex -30.6137 25.6888 13
      vertex -32.0113 25.2347 13
    endloop
  endfacet
  facet normal 0.309018 -0.951056 0
    outer loop
      vertex -30.6137 25.6888 13
      vertex -32.0113 25.2347 5.5
      vertex -30.6137 25.6888 5.5
    endloop
  endfacet
  facet normal -0.809017 0.587786 0
    outer loop
      vertex -30.6137 23.3112 5.5
      vertex -29.75 24.5 13
      vertex -29.75 24.5 5.5
    endloop
  endfacet
  facet normal -0.809017 0.587786 0
    outer loop
      vertex -29.75 24.5 13
      vertex -30.6137 23.3112 5.5
      vertex -30.6137 23.3112 13
    endloop
  endfacet
  facet normal 0.309018 0.951056 -0
    outer loop
      vertex -30.6137 23.3112 5.5
      vertex -32.0113 23.7653 13
      vertex -30.6137 23.3112 13
    endloop
  endfacet
  facet normal 0.309018 0.951056 0
    outer loop
      vertex -32.0113 23.7653 13
      vertex -30.6137 23.3112 5.5
      vertex -32.0113 23.7653 5.5
    endloop
  endfacet
  facet normal 0.939692 0.342021 0
    outer loop
      vertex 33.75 24.5 13
      vertex 33.1066 26.2677 5.5
      vertex 33.1066 26.2677 13
    endloop
  endfacet
  facet normal 0.939692 0.342021 0
    outer loop
      vertex 33.1066 26.2677 5.5
      vertex 33.75 24.5 13
      vertex 33.75 24.5 5.5
    endloop
  endfacet
  facet normal -1 0 0
    outer loop
      vertex 28.4158 23.5594 5.5
      vertex 28.4158 25.4406 13
      vertex 28.4158 25.4406 5.5
    endloop
  endfacet
  facet normal -1 -0 0
    outer loop
      vertex 28.4158 25.4406 13
      vertex 28.4158 23.5594 5.5
      vertex 28.4158 23.5594 13
    endloop
  endfacet
  facet normal 0 0 -1
    outer loop
      vertex 32.25 24.5 5.5
      vertex 33.75 24.5 5.5
      vertex 33.1066 22.7323 5.5
    endloop
  endfacet
  facet normal 0 0 -1
    outer loop
      vertex 33.75 24.5 5.5
      vertex 32.25 24.5 5.5
      vertex 33.1066 26.2677 5.5
    endloop
  endfacet
  facet normal 0 0 -1
    outer loop
      vertex 31.3863 23.3112 5.5
      vertex 33.1066 22.7323 5.5
      vertex 31.4775 21.7918 5.5
    endloop
  endfacet
  facet normal 0 0 -1
    outer loop
      vertex 33.1066 22.7323 5.5
      vertex 31.3863 23.3112 5.5
      vertex 32.25 24.5 5.5
    endloop
  endfacet
  facet normal 0 0 -1
    outer loop
      vertex 29.625 22.1184 5.5
      vertex 31.3863 23.3112 5.5
      vertex 31.4775 21.7918 5.5
    endloop
  endfacet
  facet normal 0 0 -1
    outer loop
      vertex 28.4158 23.5594 5.5
      vertex 29.9887 23.7653 5.5
      vertex 29.625 22.1184 5.5
    endloop
  endfacet
  facet normal -0 0 -1
    outer loop
      vertex 31.3863 23.3112 5.5
      vertex 29.625 22.1184 5.5
      vertex 29.9887 23.7653 5.5
    endloop
  endfacet
  facet normal 0 0 -1
    outer loop
      vertex 31.3863 25.6888 5.5
      vertex 33.1066 26.2677 5.5
      vertex 32.25 24.5 5.5
    endloop
  endfacet
  facet normal -0 0 -1
    outer loop
      vertex 33.1066 26.2677 5.5
      vertex 31.3863 25.6888 5.5
      vertex 31.4775 27.2082 5.5
    endloop
  endfacet
  facet normal 0 0 -1
    outer loop
      vertex 29.625 26.8816 5.5
      vertex 31.3863 25.6888 5.5
      vertex 29.9887 25.2347 5.5
    endloop
  endfacet
  facet normal 0 0 -1
    outer loop
      vertex 31.3863 25.6888 5.5
      vertex 29.625 26.8816 5.5
      vertex 31.4775 27.2082 5.5
    endloop
  endfacet
  facet normal -0 0 -1
    outer loop
      vertex 29.9887 23.7653 5.5
      vertex 28.4158 23.5594 5.5
      vertex 29.9887 25.2347 5.5
    endloop
  endfacet
  facet normal 0 0 -1
    outer loop
      vertex 28.4158 25.4406 5.5
      vertex 29.9887 25.2347 5.5
      vertex 28.4158 23.5594 5.5
    endloop
  endfacet
  facet normal 0 0 -1
    outer loop
      vertex 29.9887 25.2347 5.5
      vertex 28.4158 25.4406 5.5
      vertex 29.625 26.8816 5.5
    endloop
  endfacet
  facet normal -0.173649 0.984808 0
    outer loop
      vertex 31.4775 27.2082 5.5
      vertex 29.625 26.8816 13
      vertex 31.4775 27.2082 13
    endloop
  endfacet
  facet normal -0.173649 0.984808 0
    outer loop
      vertex 29.625 26.8816 13
      vertex 31.4775 27.2082 5.5
      vertex 29.625 26.8816 5.5
    endloop
  endfacet
  facet normal 0.5 0.866025 -0
    outer loop
      vertex 33.1066 26.2677 5.5
      vertex 31.4775 27.2082 13
      vertex 33.1066 26.2677 13
    endloop
  endfacet
  facet normal 0.5 0.866025 0
    outer loop
      vertex 31.4775 27.2082 13
      vertex 33.1066 26.2677 5.5
      vertex 31.4775 27.2082 5.5
    endloop
  endfacet
  facet normal -0.766044 0.642788 0
    outer loop
      vertex 28.4158 25.4406 5.5
      vertex 29.625 26.8816 13
      vertex 29.625 26.8816 5.5
    endloop
  endfacet
  facet normal -0.766044 0.642788 0
    outer loop
      vertex 29.625 26.8816 13
      vertex 28.4158 25.4406 5.5
      vertex 28.4158 25.4406 13
    endloop
  endfacet
  facet normal 0.939692 -0.342021 0
    outer loop
      vertex 33.1066 22.7323 13
      vertex 33.75 24.5 5.5
      vertex 33.75 24.5 13
    endloop
  endfacet
  facet normal 0.939692 -0.342021 0
    outer loop
      vertex 33.75 24.5 5.5
      vertex 33.1066 22.7323 13
      vertex 33.1066 22.7323 5.5
    endloop
  endfacet
  facet normal 0.5 -0.866025 0
    outer loop
      vertex 31.4775 21.7918 5.5
      vertex 33.1066 22.7323 13
      vertex 31.4775 21.7918 13
    endloop
  endfacet
  facet normal 0.5 -0.866025 0
    outer loop
      vertex 33.1066 22.7323 13
      vertex 31.4775 21.7918 5.5
      vertex 33.1066 22.7323 5.5
    endloop
  endfacet
  facet normal -0.173649 -0.984808 0
    outer loop
      vertex 29.625 22.1184 5.5
      vertex 31.4775 21.7918 13
      vertex 29.625 22.1184 13
    endloop
  endfacet
  facet normal -0.173649 -0.984808 -0
    outer loop
      vertex 31.4775 21.7918 13
      vertex 29.625 22.1184 5.5
      vertex 31.4775 21.7918 5.5
    endloop
  endfacet
  facet normal -0.766044 -0.642788 0
    outer loop
      vertex 29.625 22.1184 5.5
      vertex 28.4158 23.5594 13
      vertex 28.4158 23.5594 5.5
    endloop
  endfacet
  facet normal -0.766044 -0.642788 0
    outer loop
      vertex 28.4158 23.5594 13
      vertex 29.625 22.1184 5.5
      vertex 29.625 22.1184 13
    endloop
  endfacet
  facet normal -0.809017 -0.587786 0
    outer loop
      vertex 32.25 24.5 5.5
      vertex 31.3863 25.6888 13
      vertex 31.3863 25.6888 5.5
    endloop
  endfacet
  facet normal -0.809017 -0.587786 0
    outer loop
      vertex 31.3863 25.6888 13
      vertex 32.25 24.5 5.5
      vertex 32.25 24.5 13
    endloop
  endfacet
  facet normal 1 -0 0
    outer loop
      vertex 29.9887 23.7653 13
      vertex 29.9887 25.2347 5.5
      vertex 29.9887 25.2347 13
    endloop
  endfacet
  facet normal 1 0 0
    outer loop
      vertex 29.9887 25.2347 5.5
      vertex 29.9887 23.7653 13
      vertex 29.9887 23.7653 5.5
    endloop
  endfacet
  facet normal 0.309018 -0.951056 0
    outer loop
      vertex 29.9887 25.2347 5.5
      vertex 31.3863 25.6888 13
      vertex 29.9887 25.2347 13
    endloop
  endfacet
  facet normal 0.309018 -0.951056 0
    outer loop
      vertex 31.3863 25.6888 13
      vertex 29.9887 25.2347 5.5
      vertex 31.3863 25.6888 5.5
    endloop
  endfacet
  facet normal -0.809017 0.587786 0
    outer loop
      vertex 31.3863 23.3112 5.5
      vertex 32.25 24.5 13
      vertex 32.25 24.5 5.5
    endloop
  endfacet
  facet normal -0.809017 0.587786 0
    outer loop
      vertex 32.25 24.5 13
      vertex 31.3863 23.3112 5.5
      vertex 31.3863 23.3112 13
    endloop
  endfacet
  facet normal 0.309018 0.951056 -0
    outer loop
      vertex 31.3863 23.3112 5.5
      vertex 29.9887 23.7653 13
      vertex 31.3863 23.3112 13
    endloop
  endfacet
  facet normal 0.309018 0.951056 0
    outer loop
      vertex 29.9887 23.7653 13
      vertex 31.3863 23.3112 5.5
      vertex 29.9887 23.7653 5.5
    endloop
  endfacet
endsolid OpenSCAD_Model
