G75*
G70*
%OFA0B0*%
%FSLAX24Y24*%
%IPPOS*%
%LPD*%
%AMOC8*
5,1,8,0,0,1.08239X$1,22.5*
%
%ADD10C,0.0030*%
%ADD11C,0.0060*%
%ADD12C,0.0040*%
%ADD13C,0.0080*%
%ADD14C,0.0050*%
%ADD15C,0.0070*%
%ADD16C,0.0010*%
%ADD17C,0.0020*%
%ADD18C,0.0200*%
%ADD19R,0.0250X0.0300*%
%ADD20R,0.1000X0.0500*%
%ADD21R,0.0400X0.2000*%
%ADD22R,0.0850X0.0400*%
D10*
X013597Y000773D02*
X013597Y001144D01*
X013597Y000959D02*
X013843Y000959D01*
X013965Y000835D02*
X014027Y000897D01*
X014212Y000897D01*
X014212Y000959D02*
X014212Y000773D01*
X014027Y000773D01*
X013965Y000835D01*
X013843Y000773D02*
X013843Y001144D01*
X014027Y001020D02*
X014150Y001020D01*
X014212Y000959D01*
X014333Y001020D02*
X014333Y000773D01*
X014333Y000897D02*
X014457Y001020D01*
X014518Y001020D01*
X014640Y001020D02*
X014640Y000773D01*
X014640Y000897D02*
X014764Y001020D01*
X014825Y001020D01*
X014947Y001020D02*
X014947Y000835D01*
X015009Y000773D01*
X015194Y000773D01*
X015194Y000712D02*
X015132Y000650D01*
X015070Y000650D01*
X015194Y000712D02*
X015194Y001020D01*
X014948Y001312D02*
X014887Y001250D01*
X014825Y001250D01*
X014948Y001312D02*
X014948Y001620D01*
X014702Y001620D02*
X014702Y001435D01*
X014763Y001373D01*
X014948Y001373D01*
X014580Y001373D02*
X014333Y001373D01*
X014580Y001620D01*
X014333Y001620D01*
X014212Y001559D02*
X014212Y001435D01*
X014150Y001373D01*
X014027Y001373D01*
X013965Y001435D01*
X013965Y001559D01*
X014027Y001620D01*
X014150Y001620D01*
X014212Y001559D01*
X013843Y001682D02*
X013782Y001744D01*
X013658Y001744D01*
X013597Y001682D01*
X013597Y001435D01*
X013658Y001373D01*
X013782Y001373D01*
X013843Y001435D01*
X015438Y001373D02*
X015562Y001373D01*
X015500Y001373D02*
X015500Y001744D01*
X015438Y001744D02*
X015562Y001744D01*
X015684Y001744D02*
X015807Y001744D01*
X015745Y001744D02*
X015745Y001373D01*
X015684Y001373D02*
X015807Y001373D01*
X015929Y001373D02*
X016053Y001373D01*
X015991Y001373D02*
X015991Y001744D01*
X015929Y001744D02*
X016053Y001744D01*
X016543Y001744D02*
X016543Y001373D01*
X016543Y001559D02*
X016667Y001559D01*
X016543Y001744D02*
X016790Y001744D01*
X016911Y001620D02*
X016911Y001373D01*
X016911Y001497D02*
X017035Y001620D01*
X017097Y001620D01*
X017218Y001559D02*
X017218Y001435D01*
X017280Y001373D01*
X017403Y001373D01*
X017465Y001435D01*
X017465Y001559D01*
X017403Y001620D01*
X017280Y001620D01*
X017218Y001559D01*
X017587Y001620D02*
X017587Y001373D01*
X017834Y001373D02*
X017834Y001559D01*
X017772Y001620D01*
X017587Y001620D01*
X017955Y001620D02*
X018078Y001620D01*
X018017Y001682D02*
X018017Y001435D01*
X018078Y001373D01*
X018569Y001373D02*
X018692Y001497D01*
X018816Y001373D01*
X018816Y001744D01*
X018937Y001744D02*
X018937Y001373D01*
X018937Y001559D02*
X018999Y001620D01*
X019122Y001620D01*
X019184Y001559D01*
X019184Y001373D01*
X019305Y001435D02*
X019305Y001559D01*
X019367Y001620D01*
X019491Y001620D01*
X019552Y001559D01*
X019552Y001497D01*
X019305Y001497D01*
X019305Y001435D02*
X019367Y001373D01*
X019491Y001373D01*
X019674Y001435D02*
X019674Y001559D01*
X019735Y001620D01*
X019859Y001620D01*
X019921Y001559D01*
X019921Y001497D01*
X019674Y001497D01*
X019674Y001435D02*
X019735Y001373D01*
X019859Y001373D01*
X020042Y001373D02*
X020166Y001373D01*
X020104Y001373D02*
X020104Y001744D01*
X020042Y001744D01*
X020656Y001744D02*
X020656Y001373D01*
X020903Y001373D01*
X021024Y001373D02*
X021148Y001373D01*
X021086Y001373D02*
X021086Y001620D01*
X021024Y001620D01*
X021086Y001744D02*
X021086Y001805D01*
X021270Y001620D02*
X021332Y001620D01*
X021393Y001559D01*
X021455Y001620D01*
X021517Y001559D01*
X021517Y001373D01*
X021638Y001373D02*
X021762Y001373D01*
X021700Y001373D02*
X021700Y001620D01*
X021638Y001620D01*
X021700Y001744D02*
X021700Y001805D01*
X021884Y001620D02*
X022007Y001620D01*
X021945Y001682D02*
X021945Y001435D01*
X022007Y001373D01*
X022498Y001435D02*
X022559Y001373D01*
X022683Y001373D01*
X022744Y001435D01*
X022744Y001497D01*
X022683Y001559D01*
X022559Y001559D01*
X022498Y001620D01*
X022498Y001682D01*
X022559Y001744D01*
X022683Y001744D01*
X022744Y001682D01*
X022866Y001620D02*
X022866Y001435D01*
X022928Y001373D01*
X022989Y001435D01*
X023051Y001373D01*
X023113Y001435D01*
X023113Y001620D01*
X023234Y001620D02*
X023296Y001620D01*
X023296Y001373D01*
X023234Y001373D02*
X023358Y001373D01*
X023541Y001435D02*
X023541Y001682D01*
X023480Y001620D02*
X023603Y001620D01*
X023725Y001559D02*
X023725Y001435D01*
X023787Y001373D01*
X023972Y001373D01*
X024094Y001373D02*
X024094Y001744D01*
X024155Y001620D02*
X024279Y001620D01*
X024340Y001559D01*
X024340Y001373D01*
X024462Y001435D02*
X024462Y001559D01*
X024524Y001620D01*
X024647Y001620D01*
X024709Y001559D01*
X024709Y001497D01*
X024462Y001497D01*
X024462Y001435D02*
X024524Y001373D01*
X024647Y001373D01*
X024830Y001373D02*
X025015Y001373D01*
X025077Y001435D01*
X025015Y001497D01*
X024892Y001497D01*
X024830Y001559D01*
X024892Y001620D01*
X025077Y001620D01*
X024155Y001620D02*
X024094Y001559D01*
X023972Y001620D02*
X023787Y001620D01*
X023725Y001559D01*
X023541Y001435D02*
X023603Y001373D01*
X023296Y001744D02*
X023296Y001805D01*
X021393Y001559D02*
X021393Y001373D01*
X021270Y001373D02*
X021270Y001620D01*
X018569Y001744D02*
X018569Y001373D01*
X016851Y001020D02*
X016789Y001020D01*
X016666Y000897D01*
X016544Y000897D02*
X016359Y000897D01*
X016298Y000835D01*
X016359Y000773D01*
X016544Y000773D01*
X016544Y000959D01*
X016483Y001020D01*
X016359Y001020D01*
X016114Y001144D02*
X016114Y000773D01*
X016175Y000773D02*
X016052Y000773D01*
X015931Y000835D02*
X015931Y001082D01*
X015869Y001144D01*
X015745Y001144D01*
X015684Y001082D01*
X015684Y000835D01*
X015745Y000773D01*
X015869Y000773D01*
X015931Y000835D01*
X016052Y001144D02*
X016114Y001144D01*
X016666Y001020D02*
X016666Y000773D01*
D11*
X002707Y002462D02*
X002600Y002568D01*
X002600Y002995D01*
X002707Y003102D01*
X002920Y003102D01*
X003027Y002995D01*
X003027Y002782D02*
X002813Y002782D01*
X003027Y002782D02*
X003027Y002568D01*
X002920Y002462D01*
X002707Y002462D01*
X003244Y002568D02*
X003244Y002782D01*
X003351Y002889D01*
X003565Y002889D01*
X003671Y002782D01*
X003671Y002675D01*
X003244Y002675D01*
X003244Y002568D02*
X003351Y002462D01*
X003565Y002462D01*
X003889Y002568D02*
X003996Y002675D01*
X004316Y002675D01*
X004316Y002782D02*
X004316Y002462D01*
X003996Y002462D01*
X003889Y002568D01*
X003996Y002889D02*
X004209Y002889D01*
X004316Y002782D01*
X004533Y002889D02*
X004533Y002462D01*
X004533Y002675D02*
X004747Y002889D01*
X004854Y002889D01*
X005715Y003102D02*
X005715Y002568D01*
X005822Y002462D01*
X006035Y002462D01*
X006142Y002568D01*
X006142Y003102D01*
X006360Y002889D02*
X006680Y002889D01*
X006787Y002782D01*
X006787Y002568D01*
X006680Y002462D01*
X006360Y002462D01*
X006360Y002248D02*
X006360Y002889D01*
X007649Y003102D02*
X007755Y003102D01*
X007755Y002462D01*
X007649Y002462D02*
X007862Y002462D01*
X008078Y002462D02*
X008292Y002462D01*
X008185Y002462D02*
X008185Y002889D01*
X008078Y002889D01*
X008185Y003102D02*
X008185Y003209D01*
X008508Y002889D02*
X008615Y002889D01*
X008722Y002782D01*
X008828Y002889D01*
X008935Y002782D01*
X008935Y002462D01*
X008722Y002462D02*
X008722Y002782D01*
X008508Y002889D02*
X008508Y002462D01*
X009153Y002462D02*
X009366Y002462D01*
X009259Y002462D02*
X009259Y002889D01*
X009153Y002889D01*
X009259Y003102D02*
X009259Y003209D01*
X009582Y002889D02*
X009796Y002889D01*
X009689Y002995D02*
X009689Y002568D01*
X009796Y002462D01*
X010657Y002568D02*
X010763Y002462D01*
X010977Y002462D01*
X011084Y002568D01*
X011084Y002675D01*
X010977Y002782D01*
X010763Y002782D01*
X010657Y002889D01*
X010657Y002995D01*
X010763Y003102D01*
X010977Y003102D01*
X011084Y002995D01*
X011301Y002889D02*
X011301Y002568D01*
X011408Y002462D01*
X011515Y002568D01*
X011621Y002462D01*
X011728Y002568D01*
X011728Y002889D01*
X011946Y002889D02*
X012052Y002889D01*
X012052Y002462D01*
X011946Y002462D02*
X012159Y002462D01*
X012482Y002568D02*
X012589Y002462D01*
X012482Y002568D02*
X012482Y002995D01*
X012375Y002889D02*
X012589Y002889D01*
X012805Y002782D02*
X012805Y002568D01*
X012912Y002462D01*
X013232Y002462D01*
X013450Y002462D02*
X013450Y003102D01*
X013556Y002889D02*
X013770Y002889D01*
X013877Y002782D01*
X013877Y002462D01*
X013450Y002782D02*
X013556Y002889D01*
X013232Y002889D02*
X012912Y002889D01*
X012805Y002782D01*
X012052Y003102D02*
X012052Y003209D01*
X013751Y004043D02*
X010101Y004043D01*
X007551Y004043D01*
X007551Y008143D01*
X010101Y008143D01*
X013751Y008143D01*
X013751Y004043D01*
X010101Y004043D02*
X010101Y008143D01*
X009219Y009995D02*
X013219Y009995D01*
X013219Y011995D01*
X009219Y011995D01*
X009219Y009995D01*
X010719Y010995D02*
X011219Y010995D01*
X011219Y011225D01*
X011219Y010995D02*
X011219Y010765D01*
X011369Y010765D01*
X011219Y010995D02*
X012219Y010995D01*
X011719Y011225D02*
X011719Y010765D01*
X011219Y010995D01*
X011719Y011225D01*
X010101Y014043D02*
X013751Y014043D01*
X013751Y018143D01*
X010101Y018143D01*
X007551Y018143D01*
X007551Y014043D01*
X010101Y014043D01*
X010101Y018143D01*
X010095Y020473D02*
X009988Y020580D01*
X009988Y020794D01*
X010095Y020900D01*
X010415Y020900D01*
X010415Y021114D02*
X010415Y020473D01*
X010095Y020473D01*
X009771Y020687D02*
X009344Y020687D01*
X009344Y020580D02*
X009344Y020794D01*
X009451Y020900D01*
X009664Y020900D01*
X009771Y020794D01*
X009771Y020687D01*
X009664Y020473D02*
X009451Y020473D01*
X009344Y020580D01*
X009126Y020473D02*
X008806Y020473D01*
X008699Y020580D01*
X008699Y020794D01*
X008806Y020900D01*
X009126Y020900D01*
X009126Y021114D02*
X009126Y020473D01*
X008482Y020473D02*
X008482Y020794D01*
X008375Y020900D01*
X008055Y020900D01*
X008055Y020473D01*
X007837Y020687D02*
X007410Y020687D01*
X007410Y020580D02*
X007410Y020794D01*
X007517Y020900D01*
X007731Y020900D01*
X007837Y020794D01*
X007837Y020687D01*
X007731Y020473D02*
X007517Y020473D01*
X007410Y020580D01*
X007194Y020473D02*
X007087Y020580D01*
X007087Y021007D01*
X006981Y020900D02*
X007194Y020900D01*
X006763Y020900D02*
X006336Y020473D01*
X006118Y020473D02*
X005691Y020473D01*
X005691Y021114D01*
X006118Y021114D01*
X006336Y020900D02*
X006763Y020473D01*
X005905Y020794D02*
X005691Y020794D01*
X004830Y020900D02*
X004723Y020900D01*
X004510Y020687D01*
X004510Y020900D02*
X004510Y020473D01*
X004292Y020473D02*
X003972Y020473D01*
X003865Y020580D01*
X003972Y020687D01*
X004292Y020687D01*
X004292Y020794D02*
X004292Y020473D01*
X004292Y020794D02*
X004186Y020900D01*
X003972Y020900D01*
X003648Y020794D02*
X003648Y020687D01*
X003221Y020687D01*
X003221Y020580D02*
X003221Y020794D01*
X003327Y020900D01*
X003541Y020900D01*
X003648Y020794D01*
X003541Y020473D02*
X003327Y020473D01*
X003221Y020580D01*
X003003Y020580D02*
X002896Y020473D01*
X002683Y020473D01*
X002576Y020580D01*
X002576Y021007D01*
X002683Y021114D01*
X002896Y021114D01*
X003003Y021007D01*
X003003Y020794D02*
X002790Y020794D01*
X003003Y020794D02*
X003003Y020580D01*
X008141Y016093D02*
X008143Y016146D01*
X008149Y016199D01*
X008159Y016251D01*
X008173Y016302D01*
X008190Y016352D01*
X008211Y016401D01*
X008236Y016448D01*
X008264Y016493D01*
X008296Y016536D01*
X008331Y016576D01*
X008368Y016613D01*
X008408Y016648D01*
X008451Y016680D01*
X008496Y016708D01*
X008543Y016733D01*
X008592Y016754D01*
X008642Y016771D01*
X008693Y016785D01*
X008745Y016795D01*
X008798Y016801D01*
X008851Y016803D01*
X008904Y016801D01*
X008957Y016795D01*
X009009Y016785D01*
X009060Y016771D01*
X009110Y016754D01*
X009159Y016733D01*
X009206Y016708D01*
X009251Y016680D01*
X009294Y016648D01*
X009334Y016613D01*
X009371Y016576D01*
X009406Y016536D01*
X009438Y016493D01*
X009466Y016448D01*
X009491Y016401D01*
X009512Y016352D01*
X009529Y016302D01*
X009543Y016251D01*
X009553Y016199D01*
X009559Y016146D01*
X009561Y016093D01*
X009559Y016040D01*
X009553Y015987D01*
X009543Y015935D01*
X009529Y015884D01*
X009512Y015834D01*
X009491Y015785D01*
X009466Y015738D01*
X009438Y015693D01*
X009406Y015650D01*
X009371Y015610D01*
X009334Y015573D01*
X009294Y015538D01*
X009251Y015506D01*
X009206Y015478D01*
X009159Y015453D01*
X009110Y015432D01*
X009060Y015415D01*
X009009Y015401D01*
X008957Y015391D01*
X008904Y015385D01*
X008851Y015383D01*
X008798Y015385D01*
X008745Y015391D01*
X008693Y015401D01*
X008642Y015415D01*
X008592Y015432D01*
X008543Y015453D01*
X008496Y015478D01*
X008451Y015506D01*
X008408Y015538D01*
X008368Y015573D01*
X008331Y015610D01*
X008296Y015650D01*
X008264Y015693D01*
X008236Y015738D01*
X008211Y015785D01*
X008190Y015834D01*
X008173Y015884D01*
X008159Y015935D01*
X008149Y015987D01*
X008143Y016040D01*
X008141Y016093D01*
X011278Y020473D02*
X011705Y020473D01*
X011922Y020473D02*
X012136Y020473D01*
X012029Y020473D02*
X012029Y020900D01*
X011922Y020900D01*
X012029Y021114D02*
X012029Y021221D01*
X012352Y020900D02*
X012459Y020900D01*
X012565Y020794D01*
X012672Y020900D01*
X012779Y020794D01*
X012779Y020473D01*
X012565Y020473D02*
X012565Y020794D01*
X012352Y020900D02*
X012352Y020473D01*
X012996Y020473D02*
X013210Y020473D01*
X013103Y020473D02*
X013103Y020900D01*
X012996Y020900D01*
X013103Y021114D02*
X013103Y021221D01*
X013533Y021007D02*
X013533Y020580D01*
X013640Y020473D01*
X013640Y020900D02*
X013426Y020900D01*
X014500Y020900D02*
X014607Y020794D01*
X014821Y020794D01*
X014927Y020687D01*
X014927Y020580D01*
X014821Y020473D01*
X014607Y020473D01*
X014500Y020580D01*
X014500Y020900D02*
X014500Y021007D01*
X014607Y021114D01*
X014821Y021114D01*
X014927Y021007D01*
X015145Y020900D02*
X015145Y020580D01*
X015252Y020473D01*
X015358Y020580D01*
X015465Y020473D01*
X015572Y020580D01*
X015572Y020900D01*
X015789Y020900D02*
X015896Y020900D01*
X015896Y020473D01*
X015789Y020473D02*
X016003Y020473D01*
X016326Y020580D02*
X016433Y020473D01*
X016326Y020580D02*
X016326Y021007D01*
X016219Y020900D02*
X016433Y020900D01*
X016649Y020794D02*
X016649Y020580D01*
X016756Y020473D01*
X017076Y020473D01*
X017293Y020473D02*
X017293Y021114D01*
X017400Y020900D02*
X017614Y020900D01*
X017720Y020794D01*
X017720Y020473D01*
X017400Y020900D02*
X017293Y020794D01*
X017076Y020900D02*
X016756Y020900D01*
X016649Y020794D01*
X015896Y021114D02*
X015896Y021221D01*
X011278Y021114D02*
X011278Y020473D01*
X008141Y006093D02*
X008143Y006146D01*
X008149Y006199D01*
X008159Y006251D01*
X008173Y006302D01*
X008190Y006352D01*
X008211Y006401D01*
X008236Y006448D01*
X008264Y006493D01*
X008296Y006536D01*
X008331Y006576D01*
X008368Y006613D01*
X008408Y006648D01*
X008451Y006680D01*
X008496Y006708D01*
X008543Y006733D01*
X008592Y006754D01*
X008642Y006771D01*
X008693Y006785D01*
X008745Y006795D01*
X008798Y006801D01*
X008851Y006803D01*
X008904Y006801D01*
X008957Y006795D01*
X009009Y006785D01*
X009060Y006771D01*
X009110Y006754D01*
X009159Y006733D01*
X009206Y006708D01*
X009251Y006680D01*
X009294Y006648D01*
X009334Y006613D01*
X009371Y006576D01*
X009406Y006536D01*
X009438Y006493D01*
X009466Y006448D01*
X009491Y006401D01*
X009512Y006352D01*
X009529Y006302D01*
X009543Y006251D01*
X009553Y006199D01*
X009559Y006146D01*
X009561Y006093D01*
X009559Y006040D01*
X009553Y005987D01*
X009543Y005935D01*
X009529Y005884D01*
X009512Y005834D01*
X009491Y005785D01*
X009466Y005738D01*
X009438Y005693D01*
X009406Y005650D01*
X009371Y005610D01*
X009334Y005573D01*
X009294Y005538D01*
X009251Y005506D01*
X009206Y005478D01*
X009159Y005453D01*
X009110Y005432D01*
X009060Y005415D01*
X009009Y005401D01*
X008957Y005391D01*
X008904Y005385D01*
X008851Y005383D01*
X008798Y005385D01*
X008745Y005391D01*
X008693Y005401D01*
X008642Y005415D01*
X008592Y005432D01*
X008543Y005453D01*
X008496Y005478D01*
X008451Y005506D01*
X008408Y005538D01*
X008368Y005573D01*
X008331Y005610D01*
X008296Y005650D01*
X008264Y005693D01*
X008236Y005738D01*
X008211Y005785D01*
X008190Y005834D01*
X008173Y005884D01*
X008159Y005935D01*
X008149Y005987D01*
X008143Y006040D01*
X008141Y006093D01*
D12*
X009581Y005763D02*
X009581Y005530D01*
X009756Y005530D01*
X009697Y005647D01*
X009697Y005705D01*
X009756Y005763D01*
X009872Y005763D01*
X009931Y005705D01*
X009931Y005588D01*
X009872Y005530D01*
X009872Y005407D02*
X009872Y005349D01*
X009931Y005349D01*
X009931Y005407D01*
X009872Y005407D01*
X009931Y005407D02*
X010048Y005290D01*
X009931Y004931D02*
X009872Y004931D01*
X009639Y005165D01*
X009581Y005165D01*
X009581Y004931D01*
X009581Y004689D02*
X009931Y004689D01*
X009931Y004572D02*
X009931Y004806D01*
X009697Y004572D02*
X009581Y004689D01*
X009697Y004447D02*
X009931Y004447D01*
X009756Y004447D02*
X009756Y004213D01*
X009697Y004213D02*
X009581Y004330D01*
X009697Y004447D01*
X009697Y004213D02*
X009931Y004213D01*
X009931Y005889D02*
X009697Y005889D01*
X009697Y005947D01*
X009756Y006006D01*
X009697Y006064D01*
X009756Y006122D01*
X009931Y006122D01*
X009931Y006006D02*
X009756Y006006D01*
X009697Y006248D02*
X009697Y006306D01*
X009756Y006365D01*
X009697Y006423D01*
X009756Y006482D01*
X009931Y006482D01*
X009931Y006365D02*
X009756Y006365D01*
X009697Y006248D02*
X009931Y006248D01*
X002532Y006960D02*
X002301Y007113D01*
X002532Y007266D01*
X002301Y007420D02*
X002301Y006960D01*
X002148Y006960D02*
X001918Y006960D01*
X001841Y007036D01*
X001841Y007190D01*
X001918Y007266D01*
X002148Y007266D01*
X001688Y007190D02*
X001688Y006960D01*
X001457Y006960D01*
X001381Y007036D01*
X001457Y007113D01*
X001688Y007113D01*
X001688Y007190D02*
X001611Y007266D01*
X001457Y007266D01*
X001151Y007420D02*
X001151Y006960D01*
X001227Y006960D02*
X001074Y006960D01*
X000920Y007036D02*
X000844Y006960D01*
X000613Y006960D01*
X000613Y007420D01*
X000844Y007420D01*
X000920Y007343D01*
X000920Y007266D01*
X000844Y007190D01*
X000613Y007190D01*
X000844Y007190D02*
X000920Y007113D01*
X000920Y007036D01*
X001074Y007420D02*
X001151Y007420D01*
X001074Y006670D02*
X001074Y006210D01*
X000920Y006210D02*
X000920Y006670D01*
X001074Y006440D02*
X001151Y006516D01*
X001304Y006516D01*
X001381Y006440D01*
X001381Y006210D01*
X001534Y006210D02*
X001688Y006210D01*
X001611Y006210D02*
X001611Y006516D01*
X001534Y006516D01*
X001611Y006670D02*
X001611Y006747D01*
X001841Y006516D02*
X001995Y006516D01*
X001918Y006593D02*
X001918Y006286D01*
X001995Y006210D01*
X002148Y006286D02*
X002148Y006440D01*
X002225Y006516D01*
X002378Y006516D01*
X002455Y006440D01*
X002455Y006363D01*
X002148Y006363D01*
X002148Y006286D02*
X002225Y006210D01*
X002378Y006210D01*
X002071Y005766D02*
X001918Y005766D01*
X001841Y005690D01*
X001841Y005536D01*
X001918Y005460D01*
X002071Y005460D01*
X002148Y005613D02*
X001841Y005613D01*
X001688Y005460D02*
X001688Y005766D01*
X002071Y005766D02*
X002148Y005690D01*
X002148Y005613D01*
X001688Y005460D02*
X001457Y005460D01*
X001381Y005536D01*
X001381Y005766D01*
X001151Y005920D02*
X001074Y005920D01*
X001151Y005920D02*
X001151Y005460D01*
X001227Y005460D02*
X001074Y005460D01*
X000920Y005536D02*
X000844Y005460D01*
X000613Y005460D01*
X000613Y005920D01*
X000844Y005920D01*
X000920Y005843D01*
X000920Y005766D01*
X000844Y005690D01*
X000613Y005690D01*
X000844Y005690D02*
X000920Y005613D01*
X000920Y005536D01*
X000920Y006210D02*
X000767Y006363D01*
X000613Y006210D01*
X000613Y006670D01*
X009581Y014330D02*
X009697Y014447D01*
X009931Y014447D01*
X009931Y014572D02*
X009931Y014806D01*
X009931Y014689D02*
X009581Y014689D01*
X009697Y014572D01*
X009756Y014447D02*
X009756Y014213D01*
X009697Y014213D02*
X009581Y014330D01*
X009697Y014213D02*
X009931Y014213D01*
X009931Y014931D02*
X009872Y014931D01*
X009639Y015165D01*
X009581Y015165D01*
X009581Y014931D01*
X009872Y015349D02*
X009931Y015349D01*
X009931Y015407D01*
X009872Y015407D01*
X009872Y015349D01*
X009931Y015407D02*
X010048Y015290D01*
X009872Y015530D02*
X009931Y015588D01*
X009931Y015705D01*
X009872Y015763D01*
X009756Y015763D01*
X009697Y015705D01*
X009697Y015647D01*
X009756Y015530D01*
X009581Y015530D01*
X009581Y015763D01*
X009697Y015889D02*
X009697Y015947D01*
X009756Y016006D01*
X009697Y016064D01*
X009756Y016122D01*
X009931Y016122D01*
X009931Y016006D02*
X009756Y016006D01*
X009697Y015889D02*
X009931Y015889D01*
X009931Y016248D02*
X009697Y016248D01*
X009697Y016306D01*
X009756Y016365D01*
X009697Y016423D01*
X009756Y016482D01*
X009931Y016482D01*
X009931Y016365D02*
X009756Y016365D01*
X002713Y016995D02*
X002483Y017148D01*
X002713Y017302D01*
X002483Y017455D02*
X002483Y016995D01*
X002329Y016995D02*
X002099Y016995D01*
X002022Y017072D01*
X002022Y017225D01*
X002099Y017302D01*
X002329Y017302D01*
X001869Y017225D02*
X001869Y016995D01*
X001639Y016995D01*
X001562Y017072D01*
X001639Y017148D01*
X001869Y017148D01*
X001869Y017225D02*
X001792Y017302D01*
X001639Y017302D01*
X001332Y017455D02*
X001332Y016995D01*
X001408Y016995D02*
X001255Y016995D01*
X001101Y017072D02*
X001025Y016995D01*
X000794Y016995D01*
X000794Y017455D01*
X001025Y017455D01*
X001101Y017379D01*
X001101Y017302D01*
X001025Y017225D01*
X000794Y017225D01*
X001025Y017225D02*
X001101Y017148D01*
X001101Y017072D01*
X001255Y017455D02*
X001332Y017455D01*
X001255Y016705D02*
X001255Y016245D01*
X001101Y016245D02*
X000948Y016398D01*
X000794Y016245D01*
X000794Y016705D01*
X001101Y016705D02*
X001101Y016245D01*
X001255Y016475D02*
X001332Y016552D01*
X001485Y016552D01*
X001562Y016475D01*
X001562Y016245D01*
X001715Y016245D02*
X001869Y016245D01*
X001792Y016245D02*
X001792Y016552D01*
X001715Y016552D01*
X001792Y016705D02*
X001792Y016782D01*
X002022Y016552D02*
X002176Y016552D01*
X002099Y016629D02*
X002099Y016322D01*
X002176Y016245D01*
X002329Y016322D02*
X002329Y016475D01*
X002406Y016552D01*
X002559Y016552D01*
X002636Y016475D01*
X002636Y016398D01*
X002329Y016398D01*
X002329Y016322D02*
X002406Y016245D01*
X002559Y016245D01*
X002252Y015802D02*
X002099Y015802D01*
X002022Y015725D01*
X002022Y015572D01*
X002099Y015495D01*
X002252Y015495D01*
X002329Y015648D02*
X002022Y015648D01*
X001869Y015495D02*
X001869Y015802D01*
X001562Y015802D02*
X001562Y015572D01*
X001639Y015495D01*
X001869Y015495D01*
X001408Y015495D02*
X001255Y015495D01*
X001332Y015495D02*
X001332Y015955D01*
X001255Y015955D01*
X001101Y015879D02*
X001101Y015802D01*
X001025Y015725D01*
X000794Y015725D01*
X000794Y015495D02*
X001025Y015495D01*
X001101Y015572D01*
X001101Y015648D01*
X001025Y015725D01*
X001101Y015879D02*
X001025Y015955D01*
X000794Y015955D01*
X000794Y015495D01*
X002252Y015802D02*
X002329Y015725D01*
X002329Y015648D01*
X017481Y012627D02*
X017712Y012627D01*
X017788Y012550D01*
X017788Y012473D01*
X017712Y012397D01*
X017558Y012397D01*
X017481Y012473D01*
X017481Y012627D01*
X017635Y012780D01*
X017788Y012857D01*
X017942Y012780D02*
X017942Y012703D01*
X018019Y012627D01*
X018172Y012627D01*
X018249Y012550D01*
X018249Y012473D01*
X018172Y012397D01*
X018019Y012397D01*
X017942Y012473D01*
X017942Y012550D01*
X018019Y012627D01*
X018172Y012627D02*
X018249Y012703D01*
X018249Y012780D01*
X018172Y012857D01*
X018019Y012857D01*
X017942Y012780D01*
X018402Y012780D02*
X018402Y012473D01*
X018709Y012780D01*
X018709Y012473D01*
X018632Y012397D01*
X018479Y012397D01*
X018402Y012473D01*
X018402Y012780D02*
X018479Y012857D01*
X018632Y012857D01*
X018709Y012780D01*
X018672Y012211D02*
X018749Y012135D01*
X018442Y011828D01*
X018518Y011751D01*
X018672Y011751D01*
X018749Y011828D01*
X018749Y012135D01*
X018672Y012211D02*
X018518Y012211D01*
X018442Y012135D01*
X018442Y011828D01*
X018288Y011828D02*
X018211Y011751D01*
X018058Y011751D01*
X017981Y011828D01*
X017981Y011904D01*
X018058Y011981D01*
X018211Y011981D01*
X018288Y011904D01*
X018288Y011828D01*
X018211Y011981D02*
X018288Y012058D01*
X018288Y012135D01*
X018211Y012211D01*
X018058Y012211D01*
X017981Y012135D01*
X017981Y012058D01*
X018058Y011981D01*
X017828Y011904D02*
X017751Y011981D01*
X017521Y011981D01*
X017521Y011828D01*
X017598Y011751D01*
X017751Y011751D01*
X017828Y011828D01*
X017828Y011904D01*
X017674Y012135D02*
X017521Y011981D01*
X017674Y012135D02*
X017828Y012211D01*
X017808Y008597D02*
X017655Y008520D01*
X017501Y008367D01*
X017731Y008367D01*
X017808Y008290D01*
X017808Y008213D01*
X017731Y008137D01*
X017578Y008137D01*
X017501Y008213D01*
X017501Y008367D01*
X017962Y008444D02*
X017962Y008520D01*
X018038Y008597D01*
X018192Y008597D01*
X018269Y008520D01*
X018269Y008444D01*
X018192Y008367D01*
X018038Y008367D01*
X017962Y008444D01*
X018038Y008367D02*
X017962Y008290D01*
X017962Y008213D01*
X018038Y008137D01*
X018192Y008137D01*
X018269Y008213D01*
X018269Y008290D01*
X018192Y008367D01*
X018422Y008213D02*
X018422Y008520D01*
X018499Y008597D01*
X018652Y008597D01*
X018729Y008520D01*
X018422Y008213D01*
X018499Y008137D01*
X018652Y008137D01*
X018729Y008213D01*
X018729Y008520D01*
X018617Y007908D02*
X018693Y007831D01*
X018387Y007524D01*
X018463Y007448D01*
X018617Y007448D01*
X018693Y007524D01*
X018693Y007831D01*
X018617Y007908D02*
X018463Y007908D01*
X018387Y007831D01*
X018387Y007524D01*
X018233Y007524D02*
X018156Y007448D01*
X018003Y007448D01*
X017926Y007524D01*
X017926Y007601D01*
X018003Y007678D01*
X018156Y007678D01*
X018233Y007601D01*
X018233Y007524D01*
X018156Y007678D02*
X018233Y007755D01*
X018233Y007831D01*
X018156Y007908D01*
X018003Y007908D01*
X017926Y007831D01*
X017926Y007755D01*
X018003Y007678D01*
X017773Y007601D02*
X017696Y007678D01*
X017466Y007678D01*
X017466Y007524D01*
X017542Y007448D01*
X017696Y007448D01*
X017773Y007524D01*
X017773Y007601D01*
X017619Y007831D02*
X017466Y007678D01*
X017619Y007831D02*
X017773Y007908D01*
X023279Y007938D02*
X023279Y007477D01*
X023586Y007477D02*
X023586Y007938D01*
X023432Y007784D01*
X023279Y007938D01*
X023739Y007707D02*
X023739Y007554D01*
X023816Y007477D01*
X023969Y007477D01*
X024046Y007554D01*
X024046Y007707D01*
X023969Y007784D01*
X023816Y007784D01*
X023739Y007707D01*
X024200Y007784D02*
X024353Y007784D01*
X024276Y007861D02*
X024276Y007554D01*
X024353Y007477D01*
X024506Y007554D02*
X024583Y007477D01*
X024737Y007477D01*
X024813Y007554D01*
X024813Y007707D01*
X024737Y007784D01*
X024583Y007784D01*
X024506Y007707D01*
X024506Y007554D01*
X024967Y007631D02*
X025120Y007784D01*
X025197Y007784D01*
X025351Y007784D02*
X025504Y007938D01*
X025504Y007477D01*
X025351Y007477D02*
X025657Y007477D01*
X026271Y007554D02*
X026348Y007477D01*
X026501Y007477D01*
X026578Y007554D01*
X026578Y007861D01*
X026501Y007938D01*
X026348Y007938D01*
X026271Y007861D01*
X026271Y007554D01*
X026732Y007554D02*
X026732Y007784D01*
X026732Y007554D02*
X026808Y007477D01*
X027039Y007477D01*
X027039Y007784D01*
X027192Y007784D02*
X027346Y007784D01*
X027269Y007861D02*
X027269Y007554D01*
X027346Y007477D01*
X026664Y006209D02*
X026664Y005749D01*
X026433Y005749D01*
X026357Y005826D01*
X026357Y005979D01*
X026433Y006056D01*
X026664Y006056D01*
X026203Y005979D02*
X026203Y005902D01*
X025896Y005902D01*
X025896Y005826D02*
X025896Y005979D01*
X025973Y006056D01*
X026127Y006056D01*
X026203Y005979D01*
X026127Y005749D02*
X025973Y005749D01*
X025896Y005826D01*
X025743Y005749D02*
X025589Y005902D01*
X025666Y005902D02*
X025436Y005902D01*
X025436Y005749D02*
X025436Y006209D01*
X025666Y006209D01*
X025743Y006133D01*
X025743Y005979D01*
X025666Y005902D01*
X025283Y005979D02*
X024976Y005979D01*
X025129Y005826D02*
X025129Y006133D01*
X025436Y005459D02*
X025666Y005459D01*
X025743Y005383D01*
X025743Y005306D01*
X025666Y005229D01*
X025436Y005229D01*
X025283Y005229D02*
X024976Y005229D01*
X025436Y004999D02*
X025666Y004999D01*
X025743Y005076D01*
X025743Y005152D01*
X025666Y005229D01*
X025436Y004999D02*
X025436Y005459D01*
X025896Y005459D02*
X025973Y005459D01*
X025973Y004999D01*
X025896Y004999D02*
X026050Y004999D01*
X026203Y005076D02*
X026280Y005152D01*
X026510Y005152D01*
X026510Y005229D02*
X026510Y004999D01*
X026280Y004999D01*
X026203Y005076D01*
X026280Y005306D02*
X026433Y005306D01*
X026510Y005229D01*
X026664Y005229D02*
X026664Y005076D01*
X026740Y004999D01*
X026971Y004999D01*
X027124Y004999D02*
X027124Y005459D01*
X026971Y005306D02*
X026740Y005306D01*
X026664Y005229D01*
X027124Y005152D02*
X027354Y005306D01*
X027124Y005152D02*
X027354Y004999D01*
X024967Y007477D02*
X024967Y007784D01*
X024899Y010814D02*
X025052Y010814D01*
X025129Y010891D01*
X025129Y011044D01*
X024976Y011044D01*
X025129Y011198D02*
X025052Y011274D01*
X024899Y011274D01*
X024822Y011198D01*
X024822Y010891D01*
X024899Y010814D01*
X025282Y010814D02*
X025282Y011121D01*
X025282Y010967D02*
X025436Y011121D01*
X025513Y011121D01*
X025666Y011044D02*
X025666Y010891D01*
X025743Y010814D01*
X025896Y010814D01*
X025973Y010967D02*
X025666Y010967D01*
X025666Y011044D02*
X025743Y011121D01*
X025896Y011121D01*
X025973Y011044D01*
X025973Y010967D01*
X026126Y010967D02*
X026433Y010967D01*
X026433Y011044D01*
X026357Y011121D01*
X026203Y011121D01*
X026126Y011044D01*
X026126Y010891D01*
X026203Y010814D01*
X026357Y010814D01*
X026587Y010814D02*
X026587Y011121D01*
X026817Y011121D01*
X026894Y011044D01*
X026894Y010814D01*
X026587Y011564D02*
X026433Y011564D01*
X026357Y011641D01*
X026357Y011794D01*
X026433Y011871D01*
X026587Y011871D01*
X026664Y011794D01*
X026664Y011717D01*
X026357Y011717D01*
X026203Y011564D02*
X026126Y011641D01*
X026126Y011948D01*
X026050Y011871D02*
X026203Y011871D01*
X025820Y011871D02*
X025820Y011564D01*
X025896Y011564D02*
X025743Y011564D01*
X025589Y011564D02*
X025589Y011794D01*
X025513Y011871D01*
X025359Y011871D01*
X025282Y011794D01*
X025282Y012024D02*
X025282Y011564D01*
X025129Y011564D02*
X025129Y012024D01*
X024822Y012024D02*
X024822Y011564D01*
X024976Y011717D01*
X025129Y011564D01*
X025743Y011871D02*
X025820Y011871D01*
X025820Y012024D02*
X025820Y012101D01*
X025794Y017062D02*
X025947Y017062D01*
X025871Y017062D02*
X025871Y017522D01*
X025794Y017522D01*
X025641Y017446D02*
X025641Y017369D01*
X025564Y017292D01*
X025334Y017292D01*
X025180Y017292D02*
X024873Y017292D01*
X025334Y017062D02*
X025564Y017062D01*
X025641Y017139D01*
X025641Y017215D01*
X025564Y017292D01*
X025641Y017446D02*
X025564Y017522D01*
X025334Y017522D01*
X025334Y017062D01*
X025334Y017812D02*
X025334Y018272D01*
X025564Y018272D01*
X025641Y018196D01*
X025641Y018042D01*
X025564Y017965D01*
X025334Y017965D01*
X025487Y017965D02*
X025641Y017812D01*
X025794Y017889D02*
X025794Y018042D01*
X025871Y018119D01*
X026024Y018119D01*
X026101Y018042D01*
X026101Y017965D01*
X025794Y017965D01*
X025794Y017889D02*
X025871Y017812D01*
X026024Y017812D01*
X026254Y017889D02*
X026254Y018042D01*
X026331Y018119D01*
X026561Y018119D01*
X026561Y018272D02*
X026561Y017812D01*
X026331Y017812D01*
X026254Y017889D01*
X026178Y017369D02*
X026331Y017369D01*
X026408Y017292D01*
X026408Y017062D01*
X026178Y017062D01*
X026101Y017139D01*
X026178Y017215D01*
X026408Y017215D01*
X026561Y017139D02*
X026561Y017292D01*
X026638Y017369D01*
X026868Y017369D01*
X027022Y017522D02*
X027022Y017062D01*
X027022Y017215D02*
X027252Y017369D01*
X027022Y017215D02*
X027252Y017062D01*
X026868Y017062D02*
X026638Y017062D01*
X026561Y017139D01*
X025180Y018042D02*
X024873Y018042D01*
X025027Y018196D02*
X025027Y017889D01*
D13*
X024786Y020093D02*
X024393Y020093D01*
X024393Y015684D01*
X021834Y015684D01*
X021834Y020093D01*
X024393Y020093D01*
X024786Y020093D02*
X024786Y015684D01*
X024393Y015684D01*
X024393Y014140D02*
X024393Y009731D01*
X021834Y009731D01*
X021834Y014140D01*
X024393Y014140D01*
X024786Y014140D01*
X024786Y009731D01*
X024393Y009731D01*
X025141Y007751D02*
X022582Y007751D01*
X022582Y003341D01*
X022188Y003341D01*
X022188Y007751D01*
X022582Y007751D01*
X025141Y007751D02*
X025141Y003341D01*
X022582Y003341D01*
X005495Y003833D02*
X005101Y003833D01*
X005101Y010211D01*
X005495Y010211D01*
X005495Y003833D01*
X005101Y003833D02*
X002542Y003833D01*
X002542Y010211D01*
X005101Y010211D01*
X005101Y013680D02*
X002542Y013680D01*
X002542Y020058D01*
X005101Y020058D01*
X005101Y013680D01*
X005495Y013680D01*
X005495Y020058D01*
X005101Y020058D01*
D14*
X003071Y016723D02*
X003071Y016596D01*
X003071Y016660D02*
X002881Y016660D01*
X002944Y016596D01*
X002881Y016502D02*
X002881Y016439D01*
X002881Y016470D02*
X003039Y016470D01*
X003071Y016439D01*
X003071Y016407D01*
X003039Y016375D01*
X009244Y012620D02*
X009244Y012170D01*
X009470Y012170D01*
X009545Y012245D01*
X009545Y012545D01*
X009470Y012620D01*
X009244Y012620D01*
X009705Y012545D02*
X009780Y012620D01*
X009930Y012620D01*
X010005Y012545D01*
X010005Y012470D01*
X009930Y012395D01*
X010005Y012320D01*
X010005Y012245D01*
X009930Y012170D01*
X009780Y012170D01*
X009705Y012245D01*
X009855Y012395D02*
X009930Y012395D01*
X010394Y010620D02*
X010394Y010170D01*
X010244Y010170D02*
X010545Y010170D01*
X010705Y010245D02*
X010780Y010170D01*
X010930Y010170D01*
X011005Y010245D01*
X011005Y010395D01*
X010930Y010470D01*
X010855Y010470D01*
X010705Y010395D01*
X010705Y010620D01*
X011005Y010620D01*
X011165Y010620D02*
X011165Y010170D01*
X011165Y010320D02*
X011465Y010620D01*
X011626Y010620D02*
X011626Y010170D01*
X011926Y010170D01*
X012086Y010170D02*
X012386Y010620D01*
X012546Y010620D02*
X012847Y010170D01*
X013007Y010245D02*
X013082Y010170D01*
X013232Y010170D01*
X013307Y010245D01*
X013007Y010245D02*
X013007Y010545D01*
X013082Y010620D01*
X013232Y010620D01*
X013307Y010545D01*
X012847Y010620D02*
X012546Y010170D01*
X012386Y010170D02*
X012086Y010620D01*
X011926Y010620D02*
X011626Y010620D01*
X011626Y010395D02*
X011776Y010395D01*
X011465Y010170D02*
X011240Y010395D01*
X010394Y010620D02*
X010244Y010470D01*
X016939Y010603D02*
X016939Y010303D01*
X017014Y010228D01*
X017164Y010228D01*
X017240Y010303D01*
X017240Y010453D01*
X017089Y010453D01*
X016939Y010603D02*
X017014Y010678D01*
X017164Y010678D01*
X017240Y010603D01*
X017400Y010453D02*
X017475Y010528D01*
X017625Y010528D01*
X017700Y010453D01*
X017700Y010378D01*
X017400Y010378D01*
X017400Y010303D02*
X017400Y010453D01*
X017400Y010303D02*
X017475Y010228D01*
X017625Y010228D01*
X017860Y010303D02*
X017935Y010378D01*
X018160Y010378D01*
X018160Y010453D02*
X018160Y010228D01*
X017935Y010228D01*
X017860Y010303D01*
X017935Y010528D02*
X018085Y010528D01*
X018160Y010453D01*
X018320Y010378D02*
X018471Y010528D01*
X018546Y010528D01*
X018320Y010528D02*
X018320Y010228D01*
X019164Y010228D02*
X019390Y010228D01*
X019465Y010303D01*
X019465Y010603D01*
X019390Y010678D01*
X019164Y010678D01*
X019164Y010228D01*
X019625Y010303D02*
X019700Y010228D01*
X019850Y010228D01*
X019925Y010303D01*
X019925Y010453D01*
X019850Y010528D01*
X019700Y010528D01*
X019625Y010453D01*
X019625Y010303D01*
X020085Y010303D02*
X020160Y010228D01*
X020235Y010303D01*
X020310Y010228D01*
X020386Y010303D01*
X020386Y010528D01*
X020546Y010528D02*
X020771Y010528D01*
X020846Y010453D01*
X020846Y010228D01*
X020546Y010228D02*
X020546Y010528D01*
X020085Y010528D02*
X020085Y010303D01*
X021466Y010228D02*
X021767Y010228D01*
X021927Y010228D02*
X022227Y010228D01*
X022387Y010228D02*
X022612Y010228D01*
X022687Y010303D01*
X022687Y010603D01*
X022612Y010678D01*
X022387Y010678D01*
X022387Y010228D01*
X022077Y010453D02*
X021927Y010453D01*
X021927Y010678D02*
X021927Y010228D01*
X021466Y010228D02*
X021466Y010678D01*
X021927Y010678D02*
X022227Y010678D01*
X021085Y012473D02*
X020785Y012473D01*
X020935Y012473D02*
X020935Y012923D01*
X020785Y012773D01*
X020625Y012848D02*
X020625Y012548D01*
X020550Y012473D01*
X020325Y012473D01*
X020325Y012923D01*
X020550Y012923D01*
X020625Y012848D01*
X020164Y012923D02*
X019864Y012923D01*
X019864Y012473D01*
X020164Y012473D01*
X020014Y012698D02*
X019864Y012698D01*
X019704Y012473D02*
X019404Y012473D01*
X019404Y012923D01*
X018985Y012250D02*
X018985Y011940D01*
X018845Y012100D02*
X019135Y012100D01*
X023203Y015378D02*
X023353Y015228D01*
X023503Y015378D01*
X023503Y015678D01*
X023663Y015678D02*
X023813Y015678D01*
X023738Y015678D02*
X023738Y015228D01*
X023663Y015228D02*
X023813Y015228D01*
X023970Y015228D02*
X023970Y015678D01*
X024270Y015228D01*
X024270Y015678D01*
X023203Y015678D02*
X023203Y015378D01*
X020884Y008533D02*
X020734Y008533D01*
X020659Y008458D01*
X020499Y008458D02*
X020499Y008158D01*
X020424Y008083D01*
X020199Y008083D01*
X020199Y008533D01*
X020424Y008533D01*
X020499Y008458D01*
X020884Y008533D02*
X020959Y008458D01*
X020959Y008383D01*
X020659Y008083D01*
X020959Y008083D01*
X020038Y008083D02*
X019738Y008083D01*
X019738Y008533D01*
X020038Y008533D01*
X019888Y008308D02*
X019738Y008308D01*
X019278Y008533D02*
X019278Y008083D01*
X019578Y008083D01*
X019214Y007793D02*
X018924Y007793D01*
X019064Y007943D02*
X019064Y007633D01*
X020019Y006166D02*
X020019Y005791D01*
X020094Y005716D01*
X020244Y005716D01*
X020319Y005791D01*
X020319Y006166D01*
X020479Y006166D02*
X020704Y006166D01*
X020779Y006091D01*
X020779Y005941D01*
X020704Y005866D01*
X020479Y005866D01*
X020479Y005716D02*
X020479Y006166D01*
X021400Y006166D02*
X021400Y005716D01*
X021700Y005716D01*
X021860Y005716D02*
X022161Y005716D01*
X022321Y005716D02*
X022546Y005716D01*
X022621Y005791D01*
X022621Y006091D01*
X022546Y006166D01*
X022321Y006166D01*
X022321Y005716D01*
X022011Y005941D02*
X021860Y005941D01*
X021860Y006166D02*
X021860Y005716D01*
X021860Y006166D02*
X022161Y006166D01*
X019400Y006016D02*
X019325Y006016D01*
X019175Y005866D01*
X019175Y005716D02*
X019175Y006016D01*
X019015Y005941D02*
X019015Y005716D01*
X018789Y005716D01*
X018714Y005791D01*
X018789Y005866D01*
X019015Y005866D01*
X019015Y005941D02*
X018940Y006016D01*
X018789Y006016D01*
X018554Y005941D02*
X018554Y005866D01*
X018254Y005866D01*
X018254Y005791D02*
X018254Y005941D01*
X018329Y006016D01*
X018479Y006016D01*
X018554Y005941D01*
X018479Y005716D02*
X018329Y005716D01*
X018254Y005791D01*
X018094Y005791D02*
X018094Y005941D01*
X017944Y005941D01*
X018094Y005791D02*
X018019Y005716D01*
X017869Y005716D01*
X017794Y005791D01*
X017794Y006091D01*
X017869Y006166D01*
X018019Y006166D01*
X018094Y006091D01*
X003071Y006560D02*
X003071Y006592D01*
X003039Y006624D01*
X002881Y006624D01*
X002881Y006655D02*
X002881Y006592D01*
X002912Y006750D02*
X002881Y006781D01*
X002881Y006845D01*
X002912Y006876D01*
X002944Y006876D01*
X003071Y006750D01*
X003071Y006876D01*
X003071Y006560D02*
X003039Y006529D01*
D15*
X010935Y006088D02*
X010935Y005878D01*
X011040Y005773D01*
X011040Y005548D02*
X010935Y005443D01*
X010935Y005128D01*
X011566Y005128D01*
X011566Y005443D01*
X011461Y005548D01*
X011040Y005548D01*
X010935Y006088D02*
X011040Y006193D01*
X011146Y006193D01*
X011566Y005773D01*
X011566Y006193D01*
X011566Y015128D02*
X010935Y015128D01*
X010935Y015443D01*
X011040Y015548D01*
X011461Y015548D01*
X011566Y015443D01*
X011566Y015128D01*
X011566Y015773D02*
X011566Y016193D01*
X011566Y015983D02*
X010935Y015983D01*
X011146Y015773D01*
X024075Y019362D02*
X024602Y019362D01*
X024338Y019625D02*
X024338Y019098D01*
X024338Y017250D02*
X024338Y016723D01*
D16*
X019860Y012264D02*
X019860Y012174D01*
X019860Y012175D02*
X019806Y012173D01*
X019753Y012167D01*
X019700Y012157D01*
X019648Y012143D01*
X019597Y012126D01*
X019548Y012105D01*
X019500Y012081D01*
X019454Y012053D01*
X019410Y012022D01*
X019368Y011988D01*
X019329Y011952D01*
X019292Y011912D01*
X019259Y011870D01*
X019228Y011826D01*
X019201Y011780D01*
X019122Y011822D01*
X019150Y011871D01*
X019182Y011917D01*
X019217Y011962D01*
X019254Y012004D01*
X019295Y012044D01*
X019338Y012080D01*
X019383Y012114D01*
X019430Y012145D01*
X019480Y012172D01*
X019531Y012196D01*
X019583Y012217D01*
X019637Y012234D01*
X019692Y012247D01*
X019747Y012257D01*
X019804Y012263D01*
X019860Y012265D01*
X019860Y012256D01*
X019804Y012254D01*
X019749Y012248D01*
X019694Y012238D01*
X019639Y012225D01*
X019586Y012208D01*
X019534Y012188D01*
X019484Y012164D01*
X019435Y012137D01*
X019388Y012107D01*
X019343Y012073D01*
X019301Y012037D01*
X019261Y011998D01*
X019224Y011956D01*
X019189Y011912D01*
X019158Y011866D01*
X019130Y011818D01*
X019138Y011814D01*
X019166Y011861D01*
X019197Y011907D01*
X019231Y011950D01*
X019267Y011992D01*
X019307Y012030D01*
X019349Y012066D01*
X019393Y012099D01*
X019439Y012129D01*
X019488Y012156D01*
X019538Y012179D01*
X019589Y012200D01*
X019642Y012216D01*
X019695Y012229D01*
X019750Y012239D01*
X019805Y012245D01*
X019860Y012247D01*
X019860Y012238D01*
X019805Y012236D01*
X019751Y012230D01*
X019697Y012221D01*
X019644Y012208D01*
X019592Y012191D01*
X019541Y012171D01*
X019492Y012148D01*
X019444Y012121D01*
X019398Y012092D01*
X019354Y012059D01*
X019313Y012024D01*
X019274Y011985D01*
X019237Y011945D01*
X019204Y011902D01*
X019173Y011856D01*
X019146Y011809D01*
X019154Y011805D01*
X019181Y011852D01*
X019211Y011896D01*
X019244Y011939D01*
X019280Y011979D01*
X019319Y012017D01*
X019360Y012052D01*
X019403Y012084D01*
X019449Y012114D01*
X019496Y012140D01*
X019545Y012163D01*
X019595Y012183D01*
X019647Y012199D01*
X019699Y012212D01*
X019752Y012221D01*
X019806Y012227D01*
X019860Y012229D01*
X019860Y012220D01*
X019807Y012218D01*
X019754Y012212D01*
X019701Y012203D01*
X019649Y012190D01*
X019598Y012174D01*
X019548Y012155D01*
X019500Y012132D01*
X019453Y012106D01*
X019409Y012077D01*
X019366Y012045D01*
X019325Y012010D01*
X019287Y011973D01*
X019251Y011933D01*
X019218Y011891D01*
X019188Y011847D01*
X019161Y011801D01*
X019169Y011797D01*
X019196Y011842D01*
X019226Y011886D01*
X019258Y011927D01*
X019293Y011967D01*
X019331Y012004D01*
X019371Y012038D01*
X019414Y012070D01*
X019458Y012098D01*
X019504Y012124D01*
X019552Y012146D01*
X019601Y012166D01*
X019651Y012182D01*
X019703Y012194D01*
X019755Y012203D01*
X019807Y012209D01*
X019860Y012211D01*
X019860Y012202D01*
X019804Y012200D01*
X019749Y012193D01*
X019694Y012183D01*
X019640Y012169D01*
X019588Y012151D01*
X019536Y012130D01*
X019487Y012104D01*
X019439Y012076D01*
X019393Y012044D01*
X019350Y012009D01*
X019310Y011971D01*
X019272Y011930D01*
X019237Y011886D01*
X019206Y011840D01*
X019177Y011792D01*
X019185Y011788D01*
X019213Y011836D01*
X019244Y011881D01*
X019279Y011924D01*
X019316Y011964D01*
X019356Y012002D01*
X019399Y012037D01*
X019444Y012068D01*
X019491Y012097D01*
X019540Y012121D01*
X019591Y012143D01*
X019643Y012160D01*
X019696Y012174D01*
X019750Y012184D01*
X019805Y012191D01*
X019860Y012193D01*
X019860Y012184D01*
X019806Y012182D01*
X019752Y012176D01*
X019698Y012166D01*
X019646Y012152D01*
X019594Y012134D01*
X019544Y012113D01*
X019495Y012089D01*
X019449Y012061D01*
X019404Y012029D01*
X019362Y011995D01*
X019323Y011958D01*
X019286Y011918D01*
X019252Y011876D01*
X019221Y011831D01*
X019193Y011784D01*
X019134Y010997D02*
X019212Y011042D01*
X019212Y011041D02*
X019240Y010997D01*
X019271Y010955D01*
X019304Y010915D01*
X019340Y010877D01*
X019379Y010842D01*
X019420Y010810D01*
X019464Y010780D01*
X019509Y010754D01*
X019556Y010731D01*
X019604Y010711D01*
X019654Y010695D01*
X019704Y010682D01*
X019756Y010673D01*
X019808Y010667D01*
X019860Y010665D01*
X019861Y010576D01*
X019860Y010575D01*
X019805Y010577D01*
X019751Y010583D01*
X019696Y010592D01*
X019643Y010605D01*
X019591Y010621D01*
X019539Y010640D01*
X019489Y010663D01*
X019441Y010689D01*
X019394Y010718D01*
X019350Y010750D01*
X019307Y010785D01*
X019267Y010823D01*
X019230Y010863D01*
X019195Y010905D01*
X019163Y010950D01*
X019134Y010996D01*
X019142Y011001D01*
X019170Y010955D01*
X019202Y010911D01*
X019237Y010869D01*
X019274Y010829D01*
X019313Y010792D01*
X019355Y010757D01*
X019399Y010726D01*
X019445Y010697D01*
X019493Y010671D01*
X019543Y010649D01*
X019593Y010629D01*
X019645Y010613D01*
X019698Y010601D01*
X019752Y010592D01*
X019806Y010586D01*
X019860Y010584D01*
X019860Y010593D01*
X019806Y010595D01*
X019753Y010601D01*
X019700Y010610D01*
X019648Y010622D01*
X019596Y010638D01*
X019546Y010657D01*
X019497Y010679D01*
X019450Y010705D01*
X019404Y010733D01*
X019361Y010765D01*
X019319Y010799D01*
X019280Y010835D01*
X019243Y010875D01*
X019209Y010916D01*
X019178Y010960D01*
X019149Y011005D01*
X019157Y011010D01*
X019187Y010962D01*
X019221Y010916D01*
X019257Y010873D01*
X019297Y010832D01*
X019339Y010794D01*
X019383Y010759D01*
X019430Y010727D01*
X019479Y010699D01*
X019530Y010674D01*
X019583Y010652D01*
X019636Y010635D01*
X019691Y010621D01*
X019747Y010611D01*
X019803Y010604D01*
X019860Y010602D01*
X019860Y010611D01*
X019804Y010613D01*
X019748Y010619D01*
X019693Y010629D01*
X019639Y010643D01*
X019586Y010661D01*
X019534Y010682D01*
X019483Y010707D01*
X019435Y010735D01*
X019389Y010766D01*
X019344Y010801D01*
X019303Y010838D01*
X019264Y010879D01*
X019228Y010921D01*
X019195Y010967D01*
X019165Y011014D01*
X019173Y011019D01*
X019202Y010972D01*
X019235Y010927D01*
X019271Y010885D01*
X019309Y010845D01*
X019350Y010808D01*
X019394Y010773D01*
X019440Y010742D01*
X019488Y010715D01*
X019537Y010690D01*
X019589Y010669D01*
X019641Y010652D01*
X019695Y010638D01*
X019750Y010628D01*
X019805Y010622D01*
X019860Y010620D01*
X019860Y010629D01*
X019805Y010631D01*
X019751Y010637D01*
X019697Y010647D01*
X019644Y010661D01*
X019592Y010678D01*
X019541Y010698D01*
X019492Y010723D01*
X019445Y010750D01*
X019399Y010781D01*
X019356Y010814D01*
X019315Y010851D01*
X019277Y010891D01*
X019242Y010933D01*
X019210Y010977D01*
X019181Y011023D01*
X019189Y011028D01*
X019217Y010982D01*
X019249Y010938D01*
X019284Y010897D01*
X019322Y010858D01*
X019362Y010821D01*
X019404Y010788D01*
X019449Y010758D01*
X019496Y010730D01*
X019545Y010707D01*
X019595Y010686D01*
X019646Y010669D01*
X019699Y010656D01*
X019752Y010646D01*
X019806Y010640D01*
X019860Y010638D01*
X019860Y010647D01*
X019807Y010649D01*
X019753Y010655D01*
X019701Y010665D01*
X019649Y010678D01*
X019598Y010695D01*
X019548Y010715D01*
X019500Y010738D01*
X019454Y010765D01*
X019410Y010795D01*
X019368Y010828D01*
X019328Y010864D01*
X019291Y010903D01*
X019256Y010944D01*
X019225Y010987D01*
X019196Y011032D01*
X019204Y011037D01*
X019232Y010992D01*
X019263Y010949D01*
X019297Y010909D01*
X019334Y010871D01*
X019373Y010835D01*
X019415Y010803D01*
X019459Y010773D01*
X019505Y010746D01*
X019552Y010723D01*
X019601Y010703D01*
X019651Y010686D01*
X019703Y010673D01*
X019755Y010664D01*
X019807Y010658D01*
X019860Y010656D01*
X019861Y012044D02*
X019861Y011994D01*
X019860Y011995D02*
X019816Y011993D01*
X019773Y011988D01*
X019730Y011979D01*
X019688Y011967D01*
X019648Y011952D01*
X019608Y011934D01*
X019570Y011913D01*
X019533Y011890D01*
X019498Y011863D01*
X019466Y011834D01*
X019436Y011803D01*
X019408Y011769D01*
X019369Y011798D01*
X019368Y011799D01*
X019398Y011836D01*
X019431Y011870D01*
X019466Y011901D01*
X019504Y011930D01*
X019544Y011956D01*
X019585Y011979D01*
X019629Y011999D01*
X019673Y012015D01*
X019719Y012028D01*
X019765Y012037D01*
X019813Y012043D01*
X019860Y012045D01*
X019860Y012036D01*
X019813Y012034D01*
X019767Y012028D01*
X019721Y012019D01*
X019676Y012006D01*
X019632Y011990D01*
X019590Y011971D01*
X019549Y011948D01*
X019509Y011923D01*
X019472Y011895D01*
X019437Y011863D01*
X019405Y011830D01*
X019375Y011794D01*
X019382Y011788D01*
X019412Y011824D01*
X019444Y011857D01*
X019478Y011888D01*
X019515Y011916D01*
X019553Y011941D01*
X019594Y011963D01*
X019635Y011982D01*
X019679Y011998D01*
X019723Y012010D01*
X019768Y012019D01*
X019814Y012025D01*
X019860Y012027D01*
X019860Y012018D01*
X019815Y012016D01*
X019770Y012010D01*
X019725Y012001D01*
X019682Y011989D01*
X019639Y011974D01*
X019598Y011955D01*
X019558Y011933D01*
X019520Y011908D01*
X019484Y011881D01*
X019450Y011850D01*
X019418Y011818D01*
X019390Y011783D01*
X019397Y011777D01*
X019425Y011812D01*
X019456Y011844D01*
X019490Y011874D01*
X019525Y011901D01*
X019562Y011925D01*
X019602Y011947D01*
X019642Y011965D01*
X019684Y011981D01*
X019727Y011993D01*
X019771Y012001D01*
X019815Y012007D01*
X019860Y012009D01*
X019860Y012000D01*
X019816Y011998D01*
X019772Y011993D01*
X019729Y011984D01*
X019687Y011972D01*
X019646Y011957D01*
X019606Y011939D01*
X019567Y011918D01*
X019530Y011894D01*
X019495Y011867D01*
X019462Y011838D01*
X019432Y011806D01*
X019404Y011772D01*
X020370Y011787D02*
X020329Y011758D01*
X020330Y011758D02*
X020302Y011793D01*
X020272Y011826D01*
X020239Y011857D01*
X020204Y011884D01*
X020167Y011909D01*
X020128Y011931D01*
X020088Y011950D01*
X020046Y011966D01*
X020003Y011978D01*
X019959Y011987D01*
X019915Y011993D01*
X019870Y011995D01*
X019870Y012044D01*
X019870Y012045D01*
X019919Y012043D01*
X019967Y012037D01*
X020015Y012027D01*
X020061Y012013D01*
X020107Y011996D01*
X020151Y011976D01*
X020193Y011952D01*
X020234Y011925D01*
X020272Y011894D01*
X020308Y011861D01*
X020341Y011826D01*
X020371Y011787D01*
X020363Y011782D01*
X020334Y011820D01*
X020301Y011855D01*
X020266Y011888D01*
X020228Y011917D01*
X020189Y011944D01*
X020147Y011968D01*
X020103Y011988D01*
X020059Y012005D01*
X020012Y012018D01*
X019965Y012028D01*
X019918Y012034D01*
X019870Y012036D01*
X019870Y012027D01*
X019917Y012025D01*
X019964Y012019D01*
X020010Y012009D01*
X020056Y011996D01*
X020100Y011980D01*
X020143Y011960D01*
X020184Y011936D01*
X020223Y011910D01*
X020260Y011881D01*
X020295Y011849D01*
X020327Y011814D01*
X020356Y011777D01*
X020349Y011772D01*
X020320Y011808D01*
X020288Y011842D01*
X020254Y011874D01*
X020218Y011903D01*
X020179Y011929D01*
X020139Y011952D01*
X020096Y011971D01*
X020053Y011988D01*
X020008Y012001D01*
X019963Y012010D01*
X019916Y012016D01*
X019870Y012018D01*
X019870Y012009D01*
X019916Y012007D01*
X019961Y012001D01*
X020006Y011992D01*
X020050Y011979D01*
X020093Y011963D01*
X020135Y011944D01*
X020174Y011921D01*
X020212Y011896D01*
X020248Y011867D01*
X020282Y011836D01*
X020313Y011802D01*
X020341Y011766D01*
X020334Y011761D01*
X020306Y011797D01*
X020276Y011830D01*
X020242Y011860D01*
X020207Y011888D01*
X020170Y011914D01*
X020130Y011936D01*
X020090Y011955D01*
X020047Y011971D01*
X020004Y011983D01*
X019960Y011992D01*
X019915Y011998D01*
X019870Y012000D01*
X019869Y010576D02*
X019869Y010666D01*
X019870Y010665D02*
X019924Y010667D01*
X019977Y010673D01*
X020030Y010683D01*
X020082Y010697D01*
X020133Y010714D01*
X020183Y010735D01*
X020231Y010759D01*
X020277Y010787D01*
X020321Y010818D01*
X020362Y010852D01*
X020402Y010889D01*
X020438Y010928D01*
X020506Y010871D01*
X020507Y010870D01*
X020469Y010829D01*
X020429Y010791D01*
X020386Y010755D01*
X020341Y010722D01*
X020294Y010692D01*
X020246Y010666D01*
X020195Y010642D01*
X020143Y010622D01*
X020090Y010606D01*
X020036Y010592D01*
X019981Y010583D01*
X019926Y010577D01*
X019870Y010575D01*
X019870Y010584D01*
X019925Y010586D01*
X019980Y010592D01*
X020034Y010601D01*
X020088Y010614D01*
X020140Y010631D01*
X020192Y010650D01*
X020242Y010674D01*
X020290Y010700D01*
X020336Y010730D01*
X020381Y010762D01*
X020423Y010797D01*
X020463Y010836D01*
X020500Y010876D01*
X020493Y010882D01*
X020456Y010842D01*
X020417Y010804D01*
X020375Y010769D01*
X020331Y010737D01*
X020285Y010708D01*
X020237Y010682D01*
X020188Y010659D01*
X020137Y010639D01*
X020085Y010623D01*
X020032Y010610D01*
X019979Y010601D01*
X019924Y010595D01*
X019870Y010593D01*
X019870Y010602D01*
X019924Y010604D01*
X019977Y010610D01*
X020030Y010619D01*
X020083Y010632D01*
X020134Y010648D01*
X020185Y010667D01*
X020233Y010690D01*
X020281Y010715D01*
X020326Y010744D01*
X020370Y010776D01*
X020411Y010811D01*
X020450Y010848D01*
X020486Y010888D01*
X020479Y010894D01*
X020443Y010854D01*
X020405Y010817D01*
X020364Y010783D01*
X020321Y010752D01*
X020276Y010723D01*
X020229Y010698D01*
X020181Y010675D01*
X020131Y010656D01*
X020080Y010640D01*
X020029Y010628D01*
X019976Y010619D01*
X019923Y010613D01*
X019870Y010611D01*
X019870Y010620D01*
X019923Y010622D01*
X019975Y010628D01*
X020027Y010637D01*
X020078Y010649D01*
X020128Y010665D01*
X020178Y010684D01*
X020225Y010706D01*
X020272Y010731D01*
X020316Y010759D01*
X020358Y010790D01*
X020399Y010824D01*
X020437Y010861D01*
X020472Y010899D01*
X020466Y010905D01*
X020430Y010867D01*
X020393Y010831D01*
X020353Y010797D01*
X020311Y010767D01*
X020267Y010739D01*
X020221Y010714D01*
X020174Y010692D01*
X020125Y010673D01*
X020076Y010658D01*
X020025Y010645D01*
X019974Y010637D01*
X019922Y010631D01*
X019870Y010629D01*
X019870Y010638D01*
X019926Y010640D01*
X019981Y010647D01*
X020036Y010657D01*
X020090Y010671D01*
X020143Y010689D01*
X020194Y010711D01*
X020244Y010736D01*
X020292Y010765D01*
X020337Y010797D01*
X020380Y010832D01*
X020421Y010870D01*
X020459Y010911D01*
X020452Y010917D01*
X020415Y010876D01*
X020374Y010839D01*
X020332Y010804D01*
X020287Y010772D01*
X020239Y010744D01*
X020190Y010719D01*
X020139Y010697D01*
X020087Y010680D01*
X020034Y010666D01*
X019980Y010656D01*
X019925Y010649D01*
X019870Y010647D01*
X019870Y010656D01*
X019924Y010658D01*
X019978Y010664D01*
X020032Y010674D01*
X020085Y010688D01*
X020136Y010706D01*
X020186Y010727D01*
X020235Y010752D01*
X020282Y010780D01*
X020326Y010811D01*
X020368Y010845D01*
X020408Y010883D01*
X020445Y010923D01*
X020510Y011964D02*
X020441Y011907D01*
X020442Y011907D02*
X020405Y011947D01*
X020366Y011985D01*
X020324Y012019D01*
X020280Y012051D01*
X020234Y012079D01*
X020185Y012104D01*
X020135Y012125D01*
X020084Y012143D01*
X020031Y012156D01*
X019978Y012166D01*
X019924Y012173D01*
X019870Y012175D01*
X019869Y012264D01*
X019870Y012265D01*
X019926Y012263D01*
X019982Y012257D01*
X020037Y012247D01*
X020092Y012234D01*
X020145Y012217D01*
X020198Y012197D01*
X020249Y012173D01*
X020298Y012146D01*
X020345Y012115D01*
X020390Y012082D01*
X020433Y012046D01*
X020473Y012007D01*
X020511Y011965D01*
X020504Y011959D01*
X020467Y012000D01*
X020427Y012039D01*
X020385Y012075D01*
X020340Y012108D01*
X020293Y012138D01*
X020245Y012165D01*
X020194Y012188D01*
X020142Y012209D01*
X020089Y012225D01*
X020035Y012238D01*
X019981Y012248D01*
X019926Y012254D01*
X019870Y012256D01*
X019870Y012247D01*
X019925Y012245D01*
X019980Y012239D01*
X020034Y012230D01*
X020087Y012217D01*
X020139Y012200D01*
X020191Y012180D01*
X020240Y012157D01*
X020289Y012130D01*
X020335Y012101D01*
X020379Y012068D01*
X020421Y012032D01*
X020460Y011994D01*
X020497Y011953D01*
X020490Y011948D01*
X020454Y011988D01*
X020415Y012026D01*
X020373Y012061D01*
X020330Y012093D01*
X020284Y012123D01*
X020236Y012149D01*
X020187Y012172D01*
X020137Y012192D01*
X020085Y012208D01*
X020032Y012221D01*
X019978Y012230D01*
X019924Y012236D01*
X019870Y012238D01*
X019870Y012229D01*
X019924Y012227D01*
X019977Y012221D01*
X020030Y012212D01*
X020082Y012199D01*
X020134Y012183D01*
X020184Y012164D01*
X020232Y012141D01*
X020279Y012115D01*
X020325Y012086D01*
X020368Y012054D01*
X020409Y012019D01*
X020447Y011982D01*
X020483Y011942D01*
X020476Y011936D01*
X020441Y011975D01*
X020403Y012012D01*
X020362Y012047D01*
X020319Y012078D01*
X020275Y012107D01*
X020228Y012133D01*
X020180Y012155D01*
X020131Y012175D01*
X020080Y012191D01*
X020028Y012203D01*
X019976Y012212D01*
X019923Y012218D01*
X019870Y012220D01*
X019870Y012211D01*
X019922Y012209D01*
X019975Y012203D01*
X020026Y012194D01*
X020077Y012182D01*
X020128Y012166D01*
X020177Y012147D01*
X020224Y012125D01*
X020270Y012099D01*
X020314Y012071D01*
X020356Y012040D01*
X020397Y012006D01*
X020434Y011969D01*
X020469Y011930D01*
X020463Y011924D01*
X020428Y011963D01*
X020390Y011999D01*
X020351Y012033D01*
X020309Y012064D01*
X020265Y012092D01*
X020220Y012117D01*
X020173Y012139D01*
X020125Y012158D01*
X020075Y012173D01*
X020025Y012186D01*
X019973Y012194D01*
X019922Y012200D01*
X019870Y012202D01*
X019870Y012193D01*
X019921Y012191D01*
X019972Y012186D01*
X020023Y012177D01*
X020073Y012165D01*
X020122Y012149D01*
X020169Y012131D01*
X020216Y012109D01*
X020261Y012084D01*
X020304Y012056D01*
X020345Y012026D01*
X020384Y011993D01*
X020421Y011957D01*
X020456Y011919D01*
X020449Y011913D01*
X020412Y011954D01*
X020372Y011992D01*
X020330Y012026D01*
X020285Y012058D01*
X020238Y012087D01*
X020189Y012112D01*
X020138Y012133D01*
X020087Y012151D01*
X020033Y012165D01*
X019979Y012175D01*
X019925Y012182D01*
X019870Y012184D01*
X019375Y011033D02*
X019415Y011064D01*
X019414Y011063D02*
X019445Y011028D01*
X019478Y010995D01*
X019513Y010965D01*
X019552Y010938D01*
X019592Y010914D01*
X019634Y010894D01*
X019677Y010877D01*
X019722Y010863D01*
X019767Y010853D01*
X019813Y010847D01*
X019860Y010845D01*
X019860Y010796D01*
X019860Y010795D01*
X019814Y010797D01*
X019767Y010803D01*
X019722Y010812D01*
X019677Y010824D01*
X019633Y010840D01*
X019590Y010859D01*
X019549Y010881D01*
X019510Y010906D01*
X019473Y010933D01*
X019438Y010964D01*
X019405Y010997D01*
X019375Y011032D01*
X019382Y011038D01*
X019412Y011003D01*
X019444Y010970D01*
X019478Y010940D01*
X019515Y010913D01*
X019554Y010888D01*
X019594Y010867D01*
X019636Y010848D01*
X019679Y010833D01*
X019724Y010820D01*
X019769Y010812D01*
X019814Y010806D01*
X019860Y010804D01*
X019860Y010813D01*
X019815Y010815D01*
X019770Y010820D01*
X019726Y010829D01*
X019682Y010841D01*
X019640Y010856D01*
X019598Y010875D01*
X019558Y010896D01*
X019520Y010920D01*
X019484Y010947D01*
X019450Y010977D01*
X019418Y011009D01*
X019389Y011043D01*
X019396Y011049D01*
X019428Y011012D01*
X019462Y010978D01*
X019499Y010947D01*
X019539Y010919D01*
X019581Y010894D01*
X019624Y010873D01*
X019669Y010855D01*
X019716Y010841D01*
X019763Y010831D01*
X019812Y010824D01*
X019860Y010822D01*
X019860Y010831D01*
X019812Y010833D01*
X019765Y010840D01*
X019718Y010850D01*
X019672Y010863D01*
X019628Y010881D01*
X019585Y010902D01*
X019544Y010926D01*
X019505Y010954D01*
X019468Y010985D01*
X019434Y011018D01*
X019403Y011054D01*
X019410Y011060D01*
X019441Y011024D01*
X019474Y010991D01*
X019510Y010961D01*
X019549Y010934D01*
X019589Y010910D01*
X019632Y010889D01*
X019675Y010872D01*
X019720Y010858D01*
X019766Y010848D01*
X019813Y010842D01*
X019860Y010840D01*
X019870Y010796D02*
X019870Y010846D01*
X019870Y010845D02*
X019917Y010847D01*
X019963Y010853D01*
X020008Y010863D01*
X020053Y010877D01*
X020096Y010894D01*
X020138Y010914D01*
X020178Y010938D01*
X020217Y010965D01*
X020252Y010995D01*
X020285Y011028D01*
X020316Y011063D01*
X020355Y011033D01*
X020355Y011032D01*
X020325Y010997D01*
X020292Y010964D01*
X020257Y010933D01*
X020220Y010906D01*
X020181Y010881D01*
X020140Y010859D01*
X020097Y010840D01*
X020053Y010824D01*
X020008Y010812D01*
X019963Y010803D01*
X019916Y010797D01*
X019870Y010795D01*
X019870Y010804D01*
X019916Y010806D01*
X019961Y010812D01*
X020006Y010820D01*
X020051Y010833D01*
X020094Y010848D01*
X020136Y010867D01*
X020176Y010888D01*
X020215Y010913D01*
X020252Y010940D01*
X020286Y010970D01*
X020318Y011003D01*
X020348Y011038D01*
X020341Y011043D01*
X020312Y011009D01*
X020280Y010977D01*
X020246Y010947D01*
X020210Y010920D01*
X020172Y010896D01*
X020132Y010875D01*
X020090Y010856D01*
X020048Y010841D01*
X020004Y010829D01*
X019960Y010820D01*
X019915Y010815D01*
X019870Y010813D01*
X019870Y010822D01*
X019918Y010824D01*
X019967Y010831D01*
X020014Y010841D01*
X020061Y010855D01*
X020106Y010873D01*
X020149Y010894D01*
X020191Y010919D01*
X020231Y010947D01*
X020268Y010978D01*
X020302Y011012D01*
X020334Y011049D01*
X020327Y011054D01*
X020296Y011018D01*
X020262Y010985D01*
X020225Y010954D01*
X020186Y010926D01*
X020145Y010902D01*
X020102Y010881D01*
X020058Y010863D01*
X020012Y010850D01*
X019965Y010840D01*
X019918Y010833D01*
X019870Y010831D01*
X019870Y010840D01*
X019917Y010842D01*
X019964Y010848D01*
X020010Y010858D01*
X020055Y010872D01*
X020098Y010889D01*
X020141Y010910D01*
X020181Y010934D01*
X020220Y010961D01*
X020256Y010991D01*
X020289Y011024D01*
X020320Y011060D01*
X022332Y010973D02*
X022332Y010923D01*
X022357Y010898D01*
X022382Y010898D01*
X022407Y010923D01*
X022407Y010973D01*
X022432Y010998D01*
X022457Y010998D01*
X022482Y010973D01*
X022482Y010923D01*
X022457Y010898D01*
X022457Y010851D02*
X022357Y010851D01*
X022332Y010826D01*
X022332Y010751D01*
X022482Y010751D01*
X022482Y010826D01*
X022457Y010851D01*
X022482Y010704D02*
X022482Y010604D01*
X022332Y010604D01*
X022332Y010704D01*
X022407Y010654D02*
X022407Y010604D01*
X022482Y010556D02*
X022482Y010456D01*
X022332Y010456D01*
X022832Y010456D02*
X022982Y010456D01*
X022982Y010556D01*
X022957Y010604D02*
X022907Y010604D01*
X022882Y010629D01*
X022882Y010679D01*
X022907Y010704D01*
X022932Y010704D01*
X022932Y010604D01*
X022957Y010604D02*
X022982Y010629D01*
X022982Y010679D01*
X022957Y010751D02*
X022907Y010751D01*
X022882Y010776D01*
X022882Y010851D01*
X022832Y010851D02*
X022982Y010851D01*
X022982Y010776D01*
X022957Y010751D01*
X022982Y010898D02*
X022982Y010973D01*
X022957Y010998D01*
X022932Y010973D01*
X022932Y010923D01*
X022907Y010898D01*
X022882Y010923D01*
X022882Y010998D01*
X022357Y010998D02*
X022332Y010973D01*
X019939Y007957D02*
X019939Y007867D01*
X019939Y007868D02*
X019885Y007866D01*
X019832Y007860D01*
X019779Y007850D01*
X019727Y007836D01*
X019676Y007819D01*
X019627Y007798D01*
X019579Y007774D01*
X019533Y007746D01*
X019489Y007715D01*
X019447Y007681D01*
X019408Y007645D01*
X019371Y007605D01*
X019338Y007563D01*
X019307Y007519D01*
X019280Y007473D01*
X019201Y007515D01*
X019229Y007564D01*
X019261Y007610D01*
X019296Y007655D01*
X019333Y007697D01*
X019374Y007737D01*
X019417Y007773D01*
X019462Y007807D01*
X019509Y007838D01*
X019559Y007865D01*
X019610Y007889D01*
X019662Y007910D01*
X019716Y007927D01*
X019771Y007940D01*
X019826Y007950D01*
X019883Y007956D01*
X019939Y007958D01*
X019939Y007949D01*
X019883Y007947D01*
X019828Y007941D01*
X019773Y007931D01*
X019718Y007918D01*
X019665Y007901D01*
X019613Y007881D01*
X019563Y007857D01*
X019514Y007830D01*
X019467Y007800D01*
X019422Y007766D01*
X019380Y007730D01*
X019340Y007691D01*
X019303Y007649D01*
X019268Y007605D01*
X019237Y007559D01*
X019209Y007511D01*
X019217Y007507D01*
X019245Y007554D01*
X019276Y007600D01*
X019310Y007643D01*
X019346Y007685D01*
X019386Y007723D01*
X019428Y007759D01*
X019472Y007792D01*
X019518Y007822D01*
X019567Y007849D01*
X019617Y007872D01*
X019668Y007893D01*
X019721Y007909D01*
X019774Y007922D01*
X019829Y007932D01*
X019884Y007938D01*
X019939Y007940D01*
X019939Y007931D01*
X019884Y007929D01*
X019830Y007923D01*
X019776Y007914D01*
X019723Y007901D01*
X019671Y007884D01*
X019620Y007864D01*
X019571Y007841D01*
X019523Y007814D01*
X019477Y007785D01*
X019433Y007752D01*
X019392Y007717D01*
X019353Y007678D01*
X019316Y007638D01*
X019283Y007595D01*
X019252Y007549D01*
X019225Y007502D01*
X019233Y007498D01*
X019260Y007545D01*
X019290Y007589D01*
X019323Y007632D01*
X019359Y007672D01*
X019398Y007710D01*
X019439Y007745D01*
X019482Y007777D01*
X019528Y007807D01*
X019575Y007833D01*
X019624Y007856D01*
X019674Y007876D01*
X019726Y007892D01*
X019778Y007905D01*
X019831Y007914D01*
X019885Y007920D01*
X019939Y007922D01*
X019939Y007913D01*
X019886Y007911D01*
X019833Y007905D01*
X019780Y007896D01*
X019728Y007883D01*
X019677Y007867D01*
X019627Y007848D01*
X019579Y007825D01*
X019532Y007799D01*
X019488Y007770D01*
X019445Y007738D01*
X019404Y007703D01*
X019366Y007666D01*
X019330Y007626D01*
X019297Y007584D01*
X019267Y007540D01*
X019240Y007494D01*
X019248Y007490D01*
X019275Y007535D01*
X019305Y007579D01*
X019337Y007620D01*
X019372Y007660D01*
X019410Y007697D01*
X019450Y007731D01*
X019493Y007763D01*
X019537Y007791D01*
X019583Y007817D01*
X019631Y007839D01*
X019680Y007859D01*
X019730Y007875D01*
X019782Y007887D01*
X019834Y007896D01*
X019886Y007902D01*
X019939Y007904D01*
X019939Y007895D01*
X019883Y007893D01*
X019828Y007886D01*
X019773Y007876D01*
X019719Y007862D01*
X019667Y007844D01*
X019615Y007823D01*
X019566Y007797D01*
X019518Y007769D01*
X019472Y007737D01*
X019429Y007702D01*
X019389Y007664D01*
X019351Y007623D01*
X019316Y007579D01*
X019285Y007533D01*
X019256Y007485D01*
X019264Y007481D01*
X019292Y007529D01*
X019323Y007574D01*
X019358Y007617D01*
X019395Y007657D01*
X019435Y007695D01*
X019478Y007730D01*
X019523Y007761D01*
X019570Y007790D01*
X019619Y007814D01*
X019670Y007836D01*
X019722Y007853D01*
X019775Y007867D01*
X019829Y007877D01*
X019884Y007884D01*
X019939Y007886D01*
X019939Y007877D01*
X019885Y007875D01*
X019831Y007869D01*
X019777Y007859D01*
X019725Y007845D01*
X019673Y007827D01*
X019623Y007806D01*
X019574Y007782D01*
X019528Y007754D01*
X019483Y007722D01*
X019441Y007688D01*
X019402Y007651D01*
X019365Y007611D01*
X019331Y007569D01*
X019300Y007524D01*
X019272Y007477D01*
X019213Y006690D02*
X019291Y006735D01*
X019291Y006734D02*
X019319Y006690D01*
X019350Y006648D01*
X019383Y006608D01*
X019419Y006570D01*
X019458Y006535D01*
X019499Y006503D01*
X019543Y006473D01*
X019588Y006447D01*
X019635Y006424D01*
X019683Y006404D01*
X019733Y006388D01*
X019783Y006375D01*
X019835Y006366D01*
X019887Y006360D01*
X019939Y006358D01*
X019940Y006269D01*
X019939Y006268D01*
X019884Y006270D01*
X019830Y006276D01*
X019775Y006285D01*
X019722Y006298D01*
X019670Y006314D01*
X019618Y006333D01*
X019568Y006356D01*
X019520Y006382D01*
X019473Y006411D01*
X019429Y006443D01*
X019386Y006478D01*
X019346Y006516D01*
X019309Y006556D01*
X019274Y006598D01*
X019242Y006643D01*
X019213Y006689D01*
X019221Y006694D01*
X019249Y006648D01*
X019281Y006604D01*
X019316Y006562D01*
X019353Y006522D01*
X019392Y006485D01*
X019434Y006450D01*
X019478Y006419D01*
X019524Y006390D01*
X019572Y006364D01*
X019622Y006342D01*
X019672Y006322D01*
X019724Y006306D01*
X019777Y006294D01*
X019831Y006285D01*
X019885Y006279D01*
X019939Y006277D01*
X019939Y006286D01*
X019885Y006288D01*
X019832Y006294D01*
X019779Y006303D01*
X019727Y006315D01*
X019675Y006331D01*
X019625Y006350D01*
X019576Y006372D01*
X019529Y006398D01*
X019483Y006426D01*
X019440Y006458D01*
X019398Y006492D01*
X019359Y006528D01*
X019322Y006568D01*
X019288Y006609D01*
X019257Y006653D01*
X019228Y006698D01*
X019236Y006703D01*
X019266Y006655D01*
X019300Y006609D01*
X019336Y006566D01*
X019376Y006525D01*
X019418Y006487D01*
X019462Y006452D01*
X019509Y006420D01*
X019558Y006392D01*
X019609Y006367D01*
X019662Y006345D01*
X019715Y006328D01*
X019770Y006314D01*
X019826Y006304D01*
X019882Y006297D01*
X019939Y006295D01*
X019939Y006304D01*
X019883Y006306D01*
X019827Y006312D01*
X019772Y006322D01*
X019718Y006336D01*
X019665Y006354D01*
X019613Y006375D01*
X019562Y006400D01*
X019514Y006428D01*
X019468Y006459D01*
X019423Y006494D01*
X019382Y006531D01*
X019343Y006572D01*
X019307Y006614D01*
X019274Y006660D01*
X019244Y006707D01*
X019252Y006712D01*
X019281Y006665D01*
X019314Y006620D01*
X019350Y006578D01*
X019388Y006538D01*
X019429Y006501D01*
X019473Y006466D01*
X019519Y006435D01*
X019567Y006408D01*
X019616Y006383D01*
X019668Y006362D01*
X019720Y006345D01*
X019774Y006331D01*
X019829Y006321D01*
X019884Y006315D01*
X019939Y006313D01*
X019939Y006322D01*
X019884Y006324D01*
X019830Y006330D01*
X019776Y006340D01*
X019723Y006354D01*
X019671Y006371D01*
X019620Y006391D01*
X019571Y006416D01*
X019524Y006443D01*
X019478Y006474D01*
X019435Y006507D01*
X019394Y006544D01*
X019356Y006584D01*
X019321Y006626D01*
X019289Y006670D01*
X019260Y006716D01*
X019268Y006721D01*
X019296Y006675D01*
X019328Y006631D01*
X019363Y006590D01*
X019401Y006551D01*
X019441Y006514D01*
X019483Y006481D01*
X019528Y006451D01*
X019575Y006423D01*
X019624Y006400D01*
X019674Y006379D01*
X019725Y006362D01*
X019778Y006349D01*
X019831Y006339D01*
X019885Y006333D01*
X019939Y006331D01*
X019939Y006340D01*
X019886Y006342D01*
X019832Y006348D01*
X019780Y006358D01*
X019728Y006371D01*
X019677Y006388D01*
X019627Y006408D01*
X019579Y006431D01*
X019533Y006458D01*
X019489Y006488D01*
X019447Y006521D01*
X019407Y006557D01*
X019370Y006596D01*
X019335Y006637D01*
X019304Y006680D01*
X019275Y006725D01*
X019283Y006730D01*
X019311Y006685D01*
X019342Y006642D01*
X019376Y006602D01*
X019413Y006564D01*
X019452Y006528D01*
X019494Y006496D01*
X019538Y006466D01*
X019584Y006439D01*
X019631Y006416D01*
X019680Y006396D01*
X019730Y006379D01*
X019782Y006366D01*
X019834Y006357D01*
X019886Y006351D01*
X019939Y006349D01*
X019940Y007737D02*
X019940Y007687D01*
X019939Y007688D02*
X019895Y007686D01*
X019852Y007681D01*
X019809Y007672D01*
X019767Y007660D01*
X019727Y007645D01*
X019687Y007627D01*
X019649Y007606D01*
X019612Y007583D01*
X019577Y007556D01*
X019545Y007527D01*
X019515Y007496D01*
X019487Y007462D01*
X019448Y007491D01*
X019447Y007492D01*
X019477Y007529D01*
X019510Y007563D01*
X019545Y007594D01*
X019583Y007623D01*
X019623Y007649D01*
X019664Y007672D01*
X019708Y007692D01*
X019752Y007708D01*
X019798Y007721D01*
X019844Y007730D01*
X019892Y007736D01*
X019939Y007738D01*
X019939Y007729D01*
X019892Y007727D01*
X019846Y007721D01*
X019800Y007712D01*
X019755Y007699D01*
X019711Y007683D01*
X019669Y007664D01*
X019628Y007641D01*
X019588Y007616D01*
X019551Y007588D01*
X019516Y007556D01*
X019484Y007523D01*
X019454Y007487D01*
X019461Y007481D01*
X019491Y007517D01*
X019523Y007550D01*
X019557Y007581D01*
X019594Y007609D01*
X019632Y007634D01*
X019673Y007656D01*
X019714Y007675D01*
X019758Y007691D01*
X019802Y007703D01*
X019847Y007712D01*
X019893Y007718D01*
X019939Y007720D01*
X019939Y007711D01*
X019894Y007709D01*
X019849Y007703D01*
X019804Y007694D01*
X019761Y007682D01*
X019718Y007667D01*
X019677Y007648D01*
X019637Y007626D01*
X019599Y007601D01*
X019563Y007574D01*
X019529Y007543D01*
X019497Y007511D01*
X019469Y007476D01*
X019476Y007470D01*
X019504Y007505D01*
X019535Y007537D01*
X019569Y007567D01*
X019604Y007594D01*
X019641Y007618D01*
X019681Y007640D01*
X019721Y007658D01*
X019763Y007674D01*
X019806Y007686D01*
X019850Y007694D01*
X019894Y007700D01*
X019939Y007702D01*
X019939Y007693D01*
X019895Y007691D01*
X019851Y007686D01*
X019808Y007677D01*
X019766Y007665D01*
X019725Y007650D01*
X019685Y007632D01*
X019646Y007611D01*
X019609Y007587D01*
X019574Y007560D01*
X019541Y007531D01*
X019511Y007499D01*
X019483Y007465D01*
X020449Y007480D02*
X020408Y007451D01*
X020409Y007451D02*
X020381Y007486D01*
X020351Y007519D01*
X020318Y007550D01*
X020283Y007577D01*
X020246Y007602D01*
X020207Y007624D01*
X020167Y007643D01*
X020125Y007659D01*
X020082Y007671D01*
X020038Y007680D01*
X019994Y007686D01*
X019949Y007688D01*
X019949Y007737D01*
X019949Y007738D01*
X019998Y007736D01*
X020046Y007730D01*
X020094Y007720D01*
X020140Y007706D01*
X020186Y007689D01*
X020230Y007669D01*
X020272Y007645D01*
X020313Y007618D01*
X020351Y007587D01*
X020387Y007554D01*
X020420Y007519D01*
X020450Y007480D01*
X020442Y007475D01*
X020413Y007513D01*
X020380Y007548D01*
X020345Y007581D01*
X020307Y007610D01*
X020268Y007637D01*
X020226Y007661D01*
X020182Y007681D01*
X020138Y007698D01*
X020091Y007711D01*
X020044Y007721D01*
X019997Y007727D01*
X019949Y007729D01*
X019949Y007720D01*
X019996Y007718D01*
X020043Y007712D01*
X020089Y007702D01*
X020135Y007689D01*
X020179Y007673D01*
X020222Y007653D01*
X020263Y007629D01*
X020302Y007603D01*
X020339Y007574D01*
X020374Y007542D01*
X020406Y007507D01*
X020435Y007470D01*
X020428Y007465D01*
X020399Y007501D01*
X020367Y007535D01*
X020333Y007567D01*
X020297Y007596D01*
X020258Y007622D01*
X020218Y007645D01*
X020175Y007664D01*
X020132Y007681D01*
X020087Y007694D01*
X020042Y007703D01*
X019995Y007709D01*
X019949Y007711D01*
X019949Y007702D01*
X019995Y007700D01*
X020040Y007694D01*
X020085Y007685D01*
X020129Y007672D01*
X020172Y007656D01*
X020214Y007637D01*
X020253Y007614D01*
X020291Y007589D01*
X020327Y007560D01*
X020361Y007529D01*
X020392Y007495D01*
X020420Y007459D01*
X020413Y007454D01*
X020385Y007490D01*
X020355Y007523D01*
X020321Y007553D01*
X020286Y007581D01*
X020249Y007607D01*
X020209Y007629D01*
X020169Y007648D01*
X020126Y007664D01*
X020083Y007676D01*
X020039Y007685D01*
X019994Y007691D01*
X019949Y007693D01*
X019948Y006269D02*
X019948Y006359D01*
X019949Y006358D02*
X020003Y006360D01*
X020056Y006366D01*
X020109Y006376D01*
X020161Y006390D01*
X020212Y006407D01*
X020262Y006428D01*
X020310Y006452D01*
X020356Y006480D01*
X020400Y006511D01*
X020441Y006545D01*
X020481Y006582D01*
X020517Y006621D01*
X020585Y006564D01*
X020586Y006563D01*
X020548Y006522D01*
X020508Y006484D01*
X020465Y006448D01*
X020420Y006415D01*
X020373Y006385D01*
X020325Y006359D01*
X020274Y006335D01*
X020222Y006315D01*
X020169Y006299D01*
X020115Y006285D01*
X020060Y006276D01*
X020005Y006270D01*
X019949Y006268D01*
X019949Y006277D01*
X020004Y006279D01*
X020059Y006285D01*
X020113Y006294D01*
X020167Y006307D01*
X020219Y006324D01*
X020271Y006343D01*
X020321Y006367D01*
X020369Y006393D01*
X020415Y006423D01*
X020460Y006455D01*
X020502Y006490D01*
X020542Y006529D01*
X020579Y006569D01*
X020572Y006575D01*
X020535Y006535D01*
X020496Y006497D01*
X020454Y006462D01*
X020410Y006430D01*
X020364Y006401D01*
X020316Y006375D01*
X020267Y006352D01*
X020216Y006332D01*
X020164Y006316D01*
X020111Y006303D01*
X020058Y006294D01*
X020003Y006288D01*
X019949Y006286D01*
X019949Y006295D01*
X020003Y006297D01*
X020056Y006303D01*
X020109Y006312D01*
X020162Y006325D01*
X020213Y006341D01*
X020264Y006360D01*
X020312Y006383D01*
X020360Y006408D01*
X020405Y006437D01*
X020449Y006469D01*
X020490Y006504D01*
X020529Y006541D01*
X020565Y006581D01*
X020558Y006587D01*
X020522Y006547D01*
X020484Y006510D01*
X020443Y006476D01*
X020400Y006445D01*
X020355Y006416D01*
X020308Y006391D01*
X020260Y006368D01*
X020210Y006349D01*
X020159Y006333D01*
X020108Y006321D01*
X020055Y006312D01*
X020002Y006306D01*
X019949Y006304D01*
X019949Y006313D01*
X020002Y006315D01*
X020054Y006321D01*
X020106Y006330D01*
X020157Y006342D01*
X020207Y006358D01*
X020257Y006377D01*
X020304Y006399D01*
X020351Y006424D01*
X020395Y006452D01*
X020437Y006483D01*
X020478Y006517D01*
X020516Y006554D01*
X020551Y006592D01*
X020545Y006598D01*
X020509Y006560D01*
X020472Y006524D01*
X020432Y006490D01*
X020390Y006460D01*
X020346Y006432D01*
X020300Y006407D01*
X020253Y006385D01*
X020204Y006366D01*
X020155Y006351D01*
X020104Y006338D01*
X020053Y006330D01*
X020001Y006324D01*
X019949Y006322D01*
X019949Y006331D01*
X020005Y006333D01*
X020060Y006340D01*
X020115Y006350D01*
X020169Y006364D01*
X020222Y006382D01*
X020273Y006404D01*
X020323Y006429D01*
X020371Y006458D01*
X020416Y006490D01*
X020459Y006525D01*
X020500Y006563D01*
X020538Y006604D01*
X020531Y006610D01*
X020494Y006569D01*
X020453Y006532D01*
X020411Y006497D01*
X020366Y006465D01*
X020318Y006437D01*
X020269Y006412D01*
X020218Y006390D01*
X020166Y006373D01*
X020113Y006359D01*
X020059Y006349D01*
X020004Y006342D01*
X019949Y006340D01*
X019949Y006349D01*
X020003Y006351D01*
X020057Y006357D01*
X020111Y006367D01*
X020164Y006381D01*
X020215Y006399D01*
X020265Y006420D01*
X020314Y006445D01*
X020361Y006473D01*
X020405Y006504D01*
X020447Y006538D01*
X020487Y006576D01*
X020524Y006616D01*
X020589Y007657D02*
X020520Y007600D01*
X020521Y007600D02*
X020484Y007640D01*
X020445Y007678D01*
X020403Y007712D01*
X020359Y007744D01*
X020313Y007772D01*
X020264Y007797D01*
X020214Y007818D01*
X020163Y007836D01*
X020110Y007849D01*
X020057Y007859D01*
X020003Y007866D01*
X019949Y007868D01*
X019948Y007957D01*
X019949Y007958D01*
X020005Y007956D01*
X020061Y007950D01*
X020116Y007940D01*
X020171Y007927D01*
X020224Y007910D01*
X020277Y007890D01*
X020328Y007866D01*
X020377Y007839D01*
X020424Y007808D01*
X020469Y007775D01*
X020512Y007739D01*
X020552Y007700D01*
X020590Y007658D01*
X020583Y007652D01*
X020546Y007693D01*
X020506Y007732D01*
X020464Y007768D01*
X020419Y007801D01*
X020372Y007831D01*
X020324Y007858D01*
X020273Y007881D01*
X020221Y007902D01*
X020168Y007918D01*
X020114Y007931D01*
X020060Y007941D01*
X020005Y007947D01*
X019949Y007949D01*
X019949Y007940D01*
X020004Y007938D01*
X020059Y007932D01*
X020113Y007923D01*
X020166Y007910D01*
X020218Y007893D01*
X020270Y007873D01*
X020319Y007850D01*
X020368Y007823D01*
X020414Y007794D01*
X020458Y007761D01*
X020500Y007725D01*
X020539Y007687D01*
X020576Y007646D01*
X020569Y007641D01*
X020533Y007681D01*
X020494Y007719D01*
X020452Y007754D01*
X020409Y007786D01*
X020363Y007816D01*
X020315Y007842D01*
X020266Y007865D01*
X020216Y007885D01*
X020164Y007901D01*
X020111Y007914D01*
X020057Y007923D01*
X020003Y007929D01*
X019949Y007931D01*
X019949Y007922D01*
X020003Y007920D01*
X020056Y007914D01*
X020109Y007905D01*
X020161Y007892D01*
X020213Y007876D01*
X020263Y007857D01*
X020311Y007834D01*
X020358Y007808D01*
X020404Y007779D01*
X020447Y007747D01*
X020488Y007712D01*
X020526Y007675D01*
X020562Y007635D01*
X020555Y007629D01*
X020520Y007668D01*
X020482Y007705D01*
X020441Y007740D01*
X020398Y007771D01*
X020354Y007800D01*
X020307Y007826D01*
X020259Y007848D01*
X020210Y007868D01*
X020159Y007884D01*
X020107Y007896D01*
X020055Y007905D01*
X020002Y007911D01*
X019949Y007913D01*
X019949Y007904D01*
X020001Y007902D01*
X020054Y007896D01*
X020105Y007887D01*
X020156Y007875D01*
X020207Y007859D01*
X020256Y007840D01*
X020303Y007818D01*
X020349Y007792D01*
X020393Y007764D01*
X020435Y007733D01*
X020476Y007699D01*
X020513Y007662D01*
X020548Y007623D01*
X020542Y007617D01*
X020507Y007656D01*
X020469Y007692D01*
X020430Y007726D01*
X020388Y007757D01*
X020344Y007785D01*
X020299Y007810D01*
X020252Y007832D01*
X020204Y007851D01*
X020154Y007866D01*
X020104Y007879D01*
X020052Y007887D01*
X020001Y007893D01*
X019949Y007895D01*
X019949Y007886D01*
X020000Y007884D01*
X020051Y007879D01*
X020102Y007870D01*
X020152Y007858D01*
X020201Y007842D01*
X020248Y007824D01*
X020295Y007802D01*
X020340Y007777D01*
X020383Y007749D01*
X020424Y007719D01*
X020463Y007686D01*
X020500Y007650D01*
X020535Y007612D01*
X020528Y007606D01*
X020491Y007647D01*
X020451Y007685D01*
X020409Y007719D01*
X020364Y007751D01*
X020317Y007780D01*
X020268Y007805D01*
X020217Y007826D01*
X020166Y007844D01*
X020112Y007858D01*
X020058Y007868D01*
X020004Y007875D01*
X019949Y007877D01*
X019454Y006726D02*
X019494Y006757D01*
X019493Y006756D02*
X019524Y006721D01*
X019557Y006688D01*
X019592Y006658D01*
X019631Y006631D01*
X019671Y006607D01*
X019713Y006587D01*
X019756Y006570D01*
X019801Y006556D01*
X019846Y006546D01*
X019892Y006540D01*
X019939Y006538D01*
X019939Y006489D01*
X019939Y006488D01*
X019893Y006490D01*
X019846Y006496D01*
X019801Y006505D01*
X019756Y006517D01*
X019712Y006533D01*
X019669Y006552D01*
X019628Y006574D01*
X019589Y006599D01*
X019552Y006626D01*
X019517Y006657D01*
X019484Y006690D01*
X019454Y006725D01*
X019461Y006731D01*
X019491Y006696D01*
X019523Y006663D01*
X019557Y006633D01*
X019594Y006606D01*
X019633Y006581D01*
X019673Y006560D01*
X019715Y006541D01*
X019758Y006526D01*
X019803Y006513D01*
X019848Y006505D01*
X019893Y006499D01*
X019939Y006497D01*
X019939Y006506D01*
X019894Y006508D01*
X019849Y006513D01*
X019805Y006522D01*
X019761Y006534D01*
X019719Y006549D01*
X019677Y006568D01*
X019637Y006589D01*
X019599Y006613D01*
X019563Y006640D01*
X019529Y006670D01*
X019497Y006702D01*
X019468Y006736D01*
X019475Y006742D01*
X019507Y006705D01*
X019541Y006671D01*
X019578Y006640D01*
X019618Y006612D01*
X019660Y006587D01*
X019703Y006566D01*
X019748Y006548D01*
X019795Y006534D01*
X019842Y006524D01*
X019891Y006517D01*
X019939Y006515D01*
X019939Y006524D01*
X019891Y006526D01*
X019844Y006533D01*
X019797Y006543D01*
X019751Y006556D01*
X019707Y006574D01*
X019664Y006595D01*
X019623Y006619D01*
X019584Y006647D01*
X019547Y006678D01*
X019513Y006711D01*
X019482Y006747D01*
X019489Y006753D01*
X019520Y006717D01*
X019553Y006684D01*
X019589Y006654D01*
X019628Y006627D01*
X019668Y006603D01*
X019711Y006582D01*
X019754Y006565D01*
X019799Y006551D01*
X019845Y006541D01*
X019892Y006535D01*
X019939Y006533D01*
X019949Y006489D02*
X019949Y006539D01*
X019949Y006538D02*
X019996Y006540D01*
X020042Y006546D01*
X020087Y006556D01*
X020132Y006570D01*
X020175Y006587D01*
X020217Y006607D01*
X020257Y006631D01*
X020296Y006658D01*
X020331Y006688D01*
X020364Y006721D01*
X020395Y006756D01*
X020434Y006726D01*
X020434Y006725D01*
X020404Y006690D01*
X020371Y006657D01*
X020336Y006626D01*
X020299Y006599D01*
X020260Y006574D01*
X020219Y006552D01*
X020176Y006533D01*
X020132Y006517D01*
X020087Y006505D01*
X020042Y006496D01*
X019995Y006490D01*
X019949Y006488D01*
X019949Y006497D01*
X019995Y006499D01*
X020040Y006505D01*
X020085Y006513D01*
X020130Y006526D01*
X020173Y006541D01*
X020215Y006560D01*
X020255Y006581D01*
X020294Y006606D01*
X020331Y006633D01*
X020365Y006663D01*
X020397Y006696D01*
X020427Y006731D01*
X020420Y006736D01*
X020391Y006702D01*
X020359Y006670D01*
X020325Y006640D01*
X020289Y006613D01*
X020251Y006589D01*
X020211Y006568D01*
X020169Y006549D01*
X020127Y006534D01*
X020083Y006522D01*
X020039Y006513D01*
X019994Y006508D01*
X019949Y006506D01*
X019949Y006515D01*
X019997Y006517D01*
X020046Y006524D01*
X020093Y006534D01*
X020140Y006548D01*
X020185Y006566D01*
X020228Y006587D01*
X020270Y006612D01*
X020310Y006640D01*
X020347Y006671D01*
X020381Y006705D01*
X020413Y006742D01*
X020406Y006747D01*
X020375Y006711D01*
X020341Y006678D01*
X020304Y006647D01*
X020265Y006619D01*
X020224Y006595D01*
X020181Y006574D01*
X020137Y006556D01*
X020091Y006543D01*
X020044Y006533D01*
X019997Y006526D01*
X019949Y006524D01*
X019949Y006533D01*
X019996Y006535D01*
X020043Y006541D01*
X020089Y006551D01*
X020134Y006565D01*
X020177Y006582D01*
X020220Y006603D01*
X020260Y006627D01*
X020299Y006654D01*
X020335Y006684D01*
X020368Y006717D01*
X020399Y006753D01*
D17*
X013651Y008043D02*
X013651Y004143D01*
X010601Y004143D01*
X010601Y008043D01*
X013651Y008043D01*
X013651Y014143D02*
X010601Y014143D01*
X010601Y018043D01*
X013651Y018043D01*
X013651Y014143D01*
D18*
X014751Y014843D02*
X014901Y014993D01*
X014901Y017193D02*
X014751Y017343D01*
X014751Y007343D02*
X014901Y007193D01*
X014901Y004993D02*
X014751Y004843D01*
D19*
X014876Y005093D03*
X014876Y007093D03*
X014876Y015093D03*
X014876Y017093D03*
D20*
X014251Y017193D03*
X014251Y014993D03*
X014251Y007193D03*
X014251Y004993D03*
D21*
X009719Y010995D03*
D22*
X008794Y010995D03*
X013644Y010995D03*
M02*
