%
M48
M72
T01C0.0320
T02C0.0440
T03C0.0512
T04C0.0550
T05C0.1102
T06C0.1300
%
T01
X19444Y7113
X20444Y7113
X20365Y11420
X19365Y11420
T02
X15751Y15093
X15751Y17093
X15751Y7093
X15751Y5093
T03
X23487Y4562
X23487Y6530
X23487Y10951
X23487Y12920
X23487Y16904
X23487Y18873
X4196Y18837
X4196Y16869
X4196Y14900
X4196Y8991
X4196Y7022
X4196Y5054
T04
X7719Y10995
X14719Y10995
T05
X1440Y1420
X1440Y20711
X26243Y20711
X26243Y1420
T06
X8851Y6093
X8851Y16093
M30
