G75*
G70*
%OFA0B0*%
%FSLAX24Y24*%
%IPPOS*%
%LPD*%
%AMOC8*
5,1,8,0,0,1.08239X$1,22.5*
%
%ADD10R,0.0800X0.0800*%
%ADD11C,0.0800*%
%ADD12R,0.0950X0.0950*%
%ADD13C,0.0950*%
%ADD14C,0.0660*%
%ADD15OC8,0.0660*%
%ADD16C,0.0825*%
%ADD17C,0.0160*%
%ADD18C,0.0860*%
%ADD19C,0.0560*%
%ADD20C,0.0240*%
D10*
X023487Y006530D03*
X023487Y010951D03*
X023487Y016904D03*
D11*
X023487Y018873D03*
X023487Y012920D03*
X023487Y004562D03*
D12*
X004196Y005054D03*
X004196Y014900D03*
D13*
X004196Y016869D03*
X004196Y018837D03*
X004196Y008991D03*
X004196Y007022D03*
D14*
X015421Y007093D02*
X016081Y007093D01*
X016081Y005093D02*
X015421Y005093D01*
X015421Y015093D02*
X016081Y015093D01*
X016081Y017093D02*
X015421Y017093D01*
D15*
X019365Y011420D03*
X020365Y011420D03*
X020444Y007113D03*
X019444Y007113D03*
D16*
X015132Y010995D02*
X014307Y010995D01*
X008132Y010995D02*
X007307Y010995D01*
D17*
X002249Y000771D02*
X025433Y000771D01*
X025418Y000787D01*
X025282Y001022D01*
X025212Y001284D01*
X025212Y001556D01*
X025282Y001818D01*
X025418Y002053D01*
X025610Y002245D01*
X025845Y002381D01*
X026107Y002451D01*
X026379Y002451D01*
X026641Y002381D01*
X026876Y002245D01*
X026935Y002186D01*
X026935Y019945D01*
X026876Y019886D01*
X026641Y019750D01*
X026379Y019680D01*
X026107Y019680D01*
X025845Y019750D01*
X025610Y019886D01*
X025418Y020078D01*
X025282Y020313D01*
X025212Y020575D01*
X025212Y020847D01*
X025282Y021108D01*
X002401Y021108D01*
X002471Y020847D01*
X002471Y020575D01*
X002401Y020313D01*
X002265Y020078D01*
X002073Y019886D01*
X001838Y019750D01*
X001576Y019680D01*
X001304Y019680D01*
X001042Y019750D01*
X000807Y019886D01*
X000768Y019925D01*
X000768Y002206D01*
X000807Y002245D01*
X001042Y002381D01*
X001304Y002451D01*
X001576Y002451D01*
X001838Y002381D01*
X002073Y002245D01*
X002265Y002053D01*
X002401Y001818D01*
X002471Y001556D01*
X002471Y001284D01*
X002401Y001022D01*
X002265Y000787D01*
X002249Y000771D01*
X002324Y000888D02*
X025359Y000888D01*
X025275Y001047D02*
X002407Y001047D01*
X002450Y001205D02*
X025233Y001205D01*
X025212Y001364D02*
X002471Y001364D01*
X002471Y001522D02*
X025212Y001522D01*
X025245Y001681D02*
X002438Y001681D01*
X002389Y001839D02*
X025294Y001839D01*
X025386Y001998D02*
X002297Y001998D01*
X002162Y002156D02*
X025521Y002156D01*
X025730Y002315D02*
X001953Y002315D01*
X000927Y002315D02*
X000768Y002315D01*
X000768Y002473D02*
X026935Y002473D01*
X026935Y002315D02*
X026756Y002315D01*
X026935Y002632D02*
X000768Y002632D01*
X000768Y002790D02*
X026935Y002790D01*
X026935Y002949D02*
X000768Y002949D01*
X000768Y003107D02*
X026935Y003107D01*
X026935Y003266D02*
X000768Y003266D01*
X000768Y003424D02*
X026935Y003424D01*
X026935Y003583D02*
X000768Y003583D01*
X000768Y003741D02*
X026935Y003741D01*
X026935Y003900D02*
X000768Y003900D01*
X000768Y004058D02*
X023198Y004058D01*
X023183Y004066D02*
X023264Y004024D01*
X023351Y003996D01*
X023439Y003982D01*
X023439Y004514D01*
X022907Y004514D01*
X022921Y004426D01*
X022950Y004339D01*
X022991Y004258D01*
X023045Y004184D01*
X023109Y004119D01*
X023183Y004066D01*
X023021Y004217D02*
X000768Y004217D01*
X000768Y004375D02*
X022938Y004375D01*
X022907Y004610D02*
X023439Y004610D01*
X023439Y005141D01*
X023351Y005127D01*
X023264Y005099D01*
X023183Y005058D01*
X023109Y005004D01*
X023045Y004939D01*
X022991Y004866D01*
X022950Y004784D01*
X022921Y004697D01*
X022907Y004610D01*
X022921Y004692D02*
X016397Y004692D01*
X016413Y004704D02*
X016470Y004761D01*
X016517Y004826D01*
X016554Y004897D01*
X016578Y004974D01*
X016591Y005053D01*
X016591Y005063D01*
X015781Y005063D01*
X015781Y005123D01*
X016591Y005123D01*
X016591Y005133D01*
X016578Y005212D01*
X016554Y005289D01*
X016517Y005360D01*
X016470Y005425D01*
X016413Y005482D01*
X016348Y005529D01*
X016277Y005566D01*
X016200Y005591D01*
X016121Y005603D01*
X015781Y005603D01*
X015781Y005123D01*
X015721Y005123D01*
X015721Y005603D01*
X015381Y005603D01*
X015301Y005591D01*
X015225Y005566D01*
X015154Y005529D01*
X015089Y005482D01*
X015032Y005425D01*
X014985Y005360D01*
X014948Y005289D01*
X014923Y005212D01*
X014911Y005133D01*
X014911Y005123D01*
X015721Y005123D01*
X015721Y005063D01*
X015781Y005063D01*
X015781Y004583D01*
X016121Y004583D01*
X016200Y004596D01*
X016277Y004620D01*
X016348Y004657D01*
X016413Y004704D01*
X016530Y004851D02*
X022983Y004851D01*
X023116Y005009D02*
X016584Y005009D01*
X016585Y005168D02*
X026935Y005168D01*
X026935Y005326D02*
X016535Y005326D01*
X016410Y005485D02*
X026935Y005485D01*
X026935Y005643D02*
X010004Y005643D01*
X009997Y005618D02*
X010081Y005931D01*
X010081Y006255D01*
X010033Y006432D01*
X015506Y006432D01*
X015723Y006522D01*
X015804Y006603D01*
X016178Y006603D01*
X016358Y006678D01*
X016496Y006816D01*
X016571Y006996D01*
X016571Y007191D01*
X016496Y007371D01*
X016358Y007508D01*
X016178Y007583D01*
X015576Y007583D01*
X015506Y007612D01*
X004431Y007612D01*
X004322Y007657D01*
X004069Y007657D01*
X003836Y007561D01*
X003657Y007382D01*
X003561Y007149D01*
X003561Y006896D01*
X003657Y006663D01*
X003836Y006484D01*
X004069Y006387D01*
X004322Y006387D01*
X004431Y006432D01*
X007668Y006432D01*
X007621Y006255D01*
X007621Y005931D01*
X007705Y005618D01*
X007867Y005338D01*
X008096Y005109D01*
X008376Y004947D01*
X008689Y004863D01*
X009013Y004863D01*
X009326Y004947D01*
X009606Y005109D01*
X009835Y005338D01*
X009997Y005618D01*
X009920Y005485D02*
X015092Y005485D01*
X014967Y005326D02*
X009823Y005326D01*
X009665Y005168D02*
X014916Y005168D01*
X014911Y005063D02*
X014911Y005053D01*
X014923Y004974D01*
X014948Y004897D01*
X014985Y004826D01*
X015032Y004761D01*
X015089Y004704D01*
X015154Y004657D01*
X015225Y004620D01*
X015301Y004596D01*
X015381Y004583D01*
X015721Y004583D01*
X015721Y005063D01*
X014911Y005063D01*
X014918Y005009D02*
X009433Y005009D01*
X010046Y005802D02*
X026935Y005802D01*
X026935Y005960D02*
X010081Y005960D01*
X010081Y006119D02*
X022927Y006119D01*
X022927Y006064D02*
X023021Y005970D01*
X023953Y005970D01*
X024047Y006064D01*
X024047Y006996D01*
X023953Y007090D01*
X023021Y007090D01*
X022927Y006996D01*
X022927Y006064D01*
X022927Y006277D02*
X010075Y006277D01*
X008268Y005009D02*
X004244Y005009D01*
X004244Y005006D02*
X004244Y005102D01*
X004148Y005102D01*
X004148Y005709D01*
X003697Y005709D01*
X003651Y005696D01*
X003610Y005673D01*
X003577Y005639D01*
X003553Y005598D01*
X003541Y005552D01*
X003541Y005102D01*
X004148Y005102D01*
X004148Y005006D01*
X003541Y005006D01*
X003541Y004555D01*
X003553Y004509D01*
X003577Y004468D01*
X003610Y004435D01*
X003651Y004411D01*
X003697Y004399D01*
X004148Y004399D01*
X004148Y005006D01*
X004244Y005006D01*
X004851Y005006D01*
X004851Y004555D01*
X004838Y004509D01*
X004815Y004468D01*
X004781Y004435D01*
X004740Y004411D01*
X004694Y004399D01*
X004244Y004399D01*
X004244Y005006D01*
X004244Y005102D02*
X004851Y005102D01*
X004851Y005552D01*
X004838Y005598D01*
X004815Y005639D01*
X004781Y005673D01*
X004740Y005696D01*
X004694Y005709D01*
X004244Y005709D01*
X004244Y005102D01*
X004244Y005168D02*
X004148Y005168D01*
X004148Y005326D02*
X004244Y005326D01*
X004244Y005485D02*
X004148Y005485D01*
X004148Y005643D02*
X004244Y005643D01*
X004811Y005643D02*
X007698Y005643D01*
X007656Y005802D02*
X000768Y005802D01*
X000768Y005960D02*
X007621Y005960D01*
X007621Y006119D02*
X000768Y006119D01*
X000768Y006277D02*
X007627Y006277D01*
X007782Y005485D02*
X004851Y005485D01*
X004851Y005326D02*
X007878Y005326D01*
X008037Y005168D02*
X004851Y005168D01*
X004851Y004851D02*
X014972Y004851D01*
X015105Y004692D02*
X004851Y004692D01*
X004845Y004534D02*
X023439Y004534D01*
X023439Y004514D02*
X023439Y004610D01*
X023535Y004610D01*
X023535Y005141D01*
X023623Y005127D01*
X023710Y005099D01*
X023791Y005058D01*
X023865Y005004D01*
X023929Y004939D01*
X023983Y004866D01*
X024025Y004784D01*
X024053Y004697D01*
X024067Y004610D01*
X023535Y004610D01*
X023535Y004514D01*
X024067Y004514D01*
X024053Y004426D01*
X024025Y004339D01*
X023983Y004258D01*
X023929Y004184D01*
X023865Y004119D01*
X023791Y004066D01*
X023710Y004024D01*
X023623Y003996D01*
X023535Y003982D01*
X023535Y004514D01*
X023439Y004514D01*
X023535Y004534D02*
X026935Y004534D01*
X026935Y004692D02*
X024054Y004692D01*
X023991Y004851D02*
X026935Y004851D01*
X026935Y005009D02*
X023858Y005009D01*
X023535Y005009D02*
X023439Y005009D01*
X023439Y004851D02*
X023535Y004851D01*
X023535Y004692D02*
X023439Y004692D01*
X023439Y004375D02*
X023535Y004375D01*
X023535Y004217D02*
X023439Y004217D01*
X023439Y004058D02*
X023535Y004058D01*
X023776Y004058D02*
X026935Y004058D01*
X026935Y004217D02*
X023953Y004217D01*
X024036Y004375D02*
X026935Y004375D01*
X026935Y006119D02*
X024047Y006119D01*
X024047Y006277D02*
X026935Y006277D01*
X026935Y006436D02*
X024047Y006436D01*
X024047Y006594D02*
X026935Y006594D01*
X026935Y006753D02*
X024047Y006753D01*
X024047Y006911D02*
X026935Y006911D01*
X026935Y007070D02*
X023974Y007070D01*
X023000Y007070D02*
X020934Y007070D01*
X020934Y007228D02*
X026935Y007228D01*
X026935Y007387D02*
X020863Y007387D01*
X020934Y007316D02*
X020647Y007603D01*
X020241Y007603D01*
X019954Y007316D01*
X019954Y006910D01*
X020241Y006623D01*
X020647Y006623D01*
X020934Y006910D01*
X020934Y007316D01*
X020704Y007545D02*
X026935Y007545D01*
X026935Y007704D02*
X000768Y007704D01*
X000768Y007862D02*
X026935Y007862D01*
X026935Y008021D02*
X000768Y008021D01*
X000768Y008179D02*
X026935Y008179D01*
X026935Y008338D02*
X000768Y008338D01*
X000768Y008496D02*
X003792Y008496D01*
X003836Y008452D02*
X004069Y008356D01*
X004322Y008356D01*
X004555Y008452D01*
X004734Y008631D01*
X004831Y008864D01*
X004831Y009117D01*
X004734Y009350D01*
X004555Y009529D01*
X004322Y009626D01*
X004069Y009626D01*
X003836Y009529D01*
X003657Y009350D01*
X003561Y009117D01*
X003561Y008864D01*
X003657Y008631D01*
X003836Y008452D01*
X003648Y008655D02*
X000768Y008655D01*
X000768Y008813D02*
X003582Y008813D01*
X003561Y008972D02*
X000768Y008972D01*
X000768Y009130D02*
X003566Y009130D01*
X003632Y009289D02*
X000768Y009289D01*
X000768Y009447D02*
X003754Y009447D01*
X004021Y009606D02*
X000768Y009606D01*
X000768Y009764D02*
X026935Y009764D01*
X026935Y009606D02*
X004371Y009606D01*
X004637Y009447D02*
X026935Y009447D01*
X026935Y009289D02*
X004760Y009289D01*
X004825Y009130D02*
X026935Y009130D01*
X026935Y008972D02*
X004831Y008972D01*
X004809Y008813D02*
X026935Y008813D01*
X026935Y008655D02*
X004744Y008655D01*
X004599Y008496D02*
X026935Y008496D01*
X026935Y009923D02*
X000768Y009923D01*
X000768Y010081D02*
X026935Y010081D01*
X026935Y010240D02*
X000768Y010240D01*
X000768Y010398D02*
X023014Y010398D01*
X023021Y010391D02*
X023953Y010391D01*
X024047Y010485D01*
X024047Y011418D01*
X023953Y011511D01*
X023021Y011511D01*
X022927Y011418D01*
X022927Y010485D01*
X023021Y010391D01*
X022927Y010557D02*
X015532Y010557D01*
X015518Y010543D02*
X015584Y010609D01*
X015639Y010684D01*
X015681Y010767D01*
X015710Y010856D01*
X015723Y010937D01*
X014777Y010937D01*
X014777Y010402D01*
X015179Y010402D01*
X015271Y010417D01*
X015359Y010446D01*
X015442Y010488D01*
X015518Y010543D01*
X015654Y010715D02*
X022927Y010715D01*
X022927Y010874D02*
X015713Y010874D01*
X015723Y011052D02*
X015710Y011133D01*
X015681Y011222D01*
X015639Y011305D01*
X015584Y011381D01*
X015518Y011447D01*
X015442Y011501D01*
X015359Y011544D01*
X015271Y011573D01*
X015179Y011587D01*
X014777Y011587D01*
X014777Y011052D01*
X015723Y011052D01*
X015691Y011191D02*
X018901Y011191D01*
X018875Y011217D02*
X019162Y010930D01*
X019568Y010930D01*
X019855Y011217D01*
X019855Y011623D01*
X019568Y011910D01*
X019162Y011910D01*
X018875Y011623D01*
X018875Y011217D01*
X018875Y011349D02*
X015607Y011349D01*
X015430Y011508D02*
X018875Y011508D01*
X018918Y011666D02*
X000768Y011666D01*
X000768Y011508D02*
X007049Y011508D01*
X006983Y011480D02*
X006822Y011319D01*
X006734Y011109D01*
X006734Y010881D01*
X006822Y010670D01*
X006983Y010509D01*
X007193Y010422D01*
X008246Y010422D01*
X008456Y010509D01*
X008617Y010670D01*
X008704Y010881D01*
X008704Y011109D01*
X008617Y011319D01*
X008456Y011480D01*
X008246Y011567D01*
X007193Y011567D01*
X006983Y011480D01*
X006852Y011349D02*
X000768Y011349D01*
X000768Y011191D02*
X006768Y011191D01*
X006734Y011032D02*
X000768Y011032D01*
X000768Y010874D02*
X006737Y010874D01*
X006803Y010715D02*
X000768Y010715D01*
X000768Y010557D02*
X006935Y010557D01*
X008503Y010557D02*
X013907Y010557D01*
X013921Y010543D02*
X013996Y010488D01*
X014079Y010446D01*
X014168Y010417D01*
X014260Y010402D01*
X014662Y010402D01*
X014662Y010937D01*
X014777Y010937D01*
X014777Y011052D01*
X014662Y011052D01*
X014662Y010937D01*
X013716Y010937D01*
X013729Y010856D01*
X013758Y010767D01*
X013800Y010684D01*
X013855Y010609D01*
X013921Y010543D01*
X013784Y010715D02*
X008636Y010715D01*
X008701Y010874D02*
X013726Y010874D01*
X013716Y011052D02*
X014662Y011052D01*
X014662Y011587D01*
X014260Y011587D01*
X014168Y011573D01*
X014079Y011544D01*
X013996Y011501D01*
X013921Y011447D01*
X013855Y011381D01*
X013800Y011305D01*
X013758Y011222D01*
X013729Y011133D01*
X013716Y011052D01*
X013748Y011191D02*
X008670Y011191D01*
X008704Y011032D02*
X014662Y011032D01*
X014777Y011032D02*
X019060Y011032D01*
X019670Y011032D02*
X020060Y011032D01*
X020162Y010930D02*
X019875Y011217D01*
X019875Y011623D01*
X020085Y011833D01*
X020085Y016256D01*
X016340Y016268D01*
X016315Y016279D01*
X010075Y016279D01*
X010081Y016255D01*
X010081Y015931D01*
X009997Y015618D01*
X009923Y015490D01*
X015125Y015490D01*
X015143Y015508D01*
X015323Y015583D01*
X015419Y015583D01*
X015564Y015665D01*
X015797Y015693D01*
X016023Y015630D01*
X016082Y015583D01*
X016178Y015583D01*
X016358Y015508D01*
X016496Y015371D01*
X016571Y015191D01*
X016571Y014996D01*
X016496Y014816D01*
X016358Y014678D01*
X020085Y014678D01*
X020085Y014836D02*
X016505Y014836D01*
X016570Y014995D02*
X020085Y014995D01*
X020085Y015153D02*
X016571Y015153D01*
X016521Y015312D02*
X020085Y015312D01*
X020085Y015470D02*
X016397Y015470D01*
X016024Y015629D02*
X020085Y015629D01*
X020085Y015787D02*
X010042Y015787D01*
X010081Y015946D02*
X020085Y015946D01*
X020085Y016104D02*
X010081Y016104D01*
X010079Y016263D02*
X018083Y016263D01*
X016581Y017447D02*
X016553Y017459D01*
X016408Y017459D01*
X016358Y017508D01*
X016178Y017583D01*
X015323Y017583D01*
X015143Y017508D01*
X015093Y017459D01*
X004431Y017459D01*
X004322Y017504D01*
X004069Y017504D01*
X003836Y017407D01*
X003657Y017228D01*
X003561Y016995D01*
X003561Y016742D01*
X003657Y016509D01*
X003836Y016330D01*
X004069Y016234D01*
X004322Y016234D01*
X004431Y016279D01*
X007627Y016279D01*
X007621Y016255D01*
X007621Y015931D01*
X007705Y015618D01*
X007779Y015490D01*
X004782Y015490D01*
X004737Y015535D01*
X003654Y015535D01*
X003561Y015441D01*
X003561Y014359D01*
X003654Y014265D01*
X004737Y014265D01*
X004782Y014310D01*
X015327Y014310D01*
X015363Y014300D01*
X015444Y014310D01*
X015526Y014310D01*
X015559Y014324D01*
X015596Y014328D01*
X015667Y014369D01*
X015743Y014400D01*
X015768Y014426D01*
X016083Y014603D01*
X016178Y014603D01*
X016358Y014678D01*
X015934Y014519D02*
X020085Y014519D01*
X020085Y014361D02*
X015653Y014361D01*
X015499Y015629D02*
X010000Y015629D01*
X007702Y015629D02*
X000768Y015629D01*
X000768Y015787D02*
X007659Y015787D01*
X007621Y015946D02*
X000768Y015946D01*
X000768Y016104D02*
X007621Y016104D01*
X007623Y016263D02*
X004392Y016263D01*
X004000Y016263D02*
X000768Y016263D01*
X000768Y016421D02*
X003745Y016421D01*
X003628Y016580D02*
X000768Y016580D01*
X000768Y016738D02*
X003563Y016738D01*
X003561Y016897D02*
X000768Y016897D01*
X000768Y017055D02*
X003586Y017055D01*
X003651Y017214D02*
X000768Y017214D01*
X000768Y017372D02*
X003801Y017372D01*
X004069Y018202D02*
X003836Y018299D01*
X003657Y018477D01*
X003561Y018711D01*
X003561Y018963D01*
X003657Y019197D01*
X003836Y019375D01*
X004069Y019472D01*
X004322Y019472D01*
X004555Y019375D01*
X004734Y019197D01*
X004831Y018963D01*
X004831Y018711D01*
X004734Y018477D01*
X004555Y018299D01*
X004322Y018202D01*
X004069Y018202D01*
X003812Y018323D02*
X000768Y018323D01*
X000768Y018165D02*
X026935Y018165D01*
X026935Y018323D02*
X023624Y018323D01*
X023598Y018313D02*
X023804Y018398D01*
X023962Y018555D01*
X024047Y018761D01*
X024047Y018984D01*
X023962Y019190D01*
X023804Y019347D01*
X023598Y019433D01*
X023376Y019433D01*
X023170Y019347D01*
X023012Y019190D01*
X022927Y018984D01*
X022927Y018761D01*
X023012Y018555D01*
X023170Y018398D01*
X023376Y018313D01*
X023598Y018313D01*
X023350Y018323D02*
X004580Y018323D01*
X004736Y018482D02*
X023086Y018482D01*
X022977Y018640D02*
X004801Y018640D01*
X004831Y018799D02*
X022927Y018799D01*
X022927Y018957D02*
X004831Y018957D01*
X004768Y019116D02*
X022982Y019116D01*
X023097Y019274D02*
X004657Y019274D01*
X004418Y019433D02*
X023376Y019433D01*
X023599Y019433D02*
X026935Y019433D01*
X026935Y019591D02*
X000768Y019591D01*
X000768Y019433D02*
X003974Y019433D01*
X003735Y019274D02*
X000768Y019274D01*
X000768Y019116D02*
X003624Y019116D01*
X003561Y018957D02*
X000768Y018957D01*
X000768Y018799D02*
X003561Y018799D01*
X003590Y018640D02*
X000768Y018640D01*
X000768Y018482D02*
X003656Y018482D01*
X002095Y019908D02*
X025588Y019908D01*
X025429Y020067D02*
X002254Y020067D01*
X002350Y020225D02*
X025333Y020225D01*
X025263Y020384D02*
X002420Y020384D01*
X002462Y020542D02*
X025221Y020542D01*
X025212Y020701D02*
X002471Y020701D01*
X002468Y020859D02*
X025215Y020859D01*
X025258Y021018D02*
X002425Y021018D01*
X001835Y019750D02*
X025848Y019750D01*
X026638Y019750D02*
X026935Y019750D01*
X026935Y019908D02*
X026898Y019908D01*
X026935Y019274D02*
X023878Y019274D01*
X023993Y019116D02*
X026935Y019116D01*
X026935Y018957D02*
X024047Y018957D01*
X024047Y018799D02*
X026935Y018799D01*
X026935Y018640D02*
X023997Y018640D01*
X023888Y018482D02*
X026935Y018482D01*
X026935Y018006D02*
X000768Y018006D01*
X000768Y017848D02*
X026935Y017848D01*
X026935Y017689D02*
X000768Y017689D01*
X000768Y017531D02*
X015197Y017531D01*
X016305Y017531D02*
X026935Y017531D01*
X026935Y017372D02*
X024045Y017372D01*
X024047Y017370D02*
X023953Y017464D01*
X023675Y017464D01*
X023594Y017496D01*
X020224Y017436D01*
X016581Y017447D01*
X020085Y014202D02*
X000768Y014202D01*
X000768Y014044D02*
X020085Y014044D01*
X020085Y013885D02*
X000768Y013885D01*
X000768Y013727D02*
X020085Y013727D01*
X020085Y013568D02*
X000768Y013568D01*
X000768Y013410D02*
X020085Y013410D01*
X020085Y013251D02*
X000768Y013251D01*
X000768Y013093D02*
X020085Y013093D01*
X020085Y012934D02*
X000768Y012934D01*
X000768Y012776D02*
X020085Y012776D01*
X020085Y012617D02*
X000768Y012617D01*
X000768Y012459D02*
X020085Y012459D01*
X020085Y012300D02*
X000768Y012300D01*
X000768Y012142D02*
X020085Y012142D01*
X020085Y011983D02*
X000768Y011983D01*
X000768Y011825D02*
X019077Y011825D01*
X019653Y011825D02*
X020077Y011825D01*
X019918Y011666D02*
X019812Y011666D01*
X019855Y011508D02*
X019875Y011508D01*
X019875Y011349D02*
X019855Y011349D01*
X019829Y011191D02*
X019901Y011191D01*
X020162Y010930D02*
X020568Y010930D01*
X020855Y011217D01*
X020855Y011623D01*
X020645Y011833D01*
X020645Y016263D01*
X023615Y016316D01*
X023679Y016344D01*
X023953Y016344D01*
X024047Y016438D01*
X024047Y016716D01*
X024079Y016797D01*
X024075Y017032D01*
X024047Y017096D01*
X024047Y017370D01*
X024047Y017214D02*
X026935Y017214D01*
X026935Y017055D02*
X024065Y017055D01*
X024077Y016897D02*
X026935Y016897D01*
X026935Y016738D02*
X024056Y016738D01*
X024047Y016580D02*
X026935Y016580D01*
X026935Y016421D02*
X024030Y016421D01*
X026935Y016263D02*
X020645Y016263D01*
X020645Y016104D02*
X026935Y016104D01*
X026935Y015946D02*
X020645Y015946D01*
X020645Y015787D02*
X026935Y015787D01*
X026935Y015629D02*
X020645Y015629D01*
X020645Y015470D02*
X026935Y015470D01*
X026935Y015312D02*
X020645Y015312D01*
X020645Y015153D02*
X026935Y015153D01*
X026935Y014995D02*
X020645Y014995D01*
X020645Y014836D02*
X026935Y014836D01*
X026935Y014678D02*
X020645Y014678D01*
X020645Y014519D02*
X026935Y014519D01*
X026935Y014361D02*
X020645Y014361D01*
X020645Y014202D02*
X026935Y014202D01*
X026935Y014044D02*
X020645Y014044D01*
X020645Y013885D02*
X026935Y013885D01*
X026935Y013727D02*
X020645Y013727D01*
X020645Y013568D02*
X026935Y013568D01*
X026935Y013410D02*
X023768Y013410D01*
X023804Y013395D02*
X023598Y013480D01*
X023376Y013480D01*
X023170Y013395D01*
X023012Y013237D01*
X022927Y013031D01*
X022927Y012808D01*
X023012Y012603D01*
X023170Y012445D01*
X023376Y012360D01*
X023598Y012360D01*
X023804Y012445D01*
X023962Y012603D01*
X024047Y012808D01*
X024047Y013031D01*
X023962Y013237D01*
X023804Y013395D01*
X023948Y013251D02*
X026935Y013251D01*
X026935Y013093D02*
X024022Y013093D01*
X024047Y012934D02*
X026935Y012934D01*
X026935Y012776D02*
X024033Y012776D01*
X023968Y012617D02*
X026935Y012617D01*
X026935Y012459D02*
X023818Y012459D01*
X023156Y012459D02*
X020645Y012459D01*
X020645Y012617D02*
X023006Y012617D01*
X022941Y012776D02*
X020645Y012776D01*
X020645Y012934D02*
X022927Y012934D01*
X022952Y013093D02*
X020645Y013093D01*
X020645Y013251D02*
X023026Y013251D01*
X023206Y013410D02*
X020645Y013410D01*
X020645Y012300D02*
X026935Y012300D01*
X026935Y012142D02*
X020645Y012142D01*
X020645Y011983D02*
X026935Y011983D01*
X026935Y011825D02*
X020653Y011825D01*
X020812Y011666D02*
X026935Y011666D01*
X026935Y011508D02*
X023957Y011508D01*
X024047Y011349D02*
X026935Y011349D01*
X026935Y011191D02*
X024047Y011191D01*
X024047Y011032D02*
X026935Y011032D01*
X026935Y010874D02*
X024047Y010874D01*
X024047Y010715D02*
X026935Y010715D01*
X026935Y010557D02*
X024047Y010557D01*
X023960Y010398D02*
X026935Y010398D01*
X022927Y011032D02*
X020670Y011032D01*
X020829Y011191D02*
X022927Y011191D01*
X022927Y011349D02*
X020855Y011349D01*
X020855Y011508D02*
X023017Y011508D01*
X020183Y007545D02*
X019704Y007545D01*
X019647Y007603D02*
X019241Y007603D01*
X018954Y007316D01*
X018954Y006910D01*
X019241Y006623D01*
X019647Y006623D01*
X019934Y006910D01*
X019934Y007316D01*
X019647Y007603D01*
X019863Y007387D02*
X020025Y007387D01*
X019954Y007228D02*
X019934Y007228D01*
X019934Y007070D02*
X019954Y007070D01*
X019954Y006911D02*
X019934Y006911D01*
X019777Y006753D02*
X020111Y006753D01*
X020777Y006753D02*
X022927Y006753D01*
X022927Y006911D02*
X020934Y006911D01*
X019111Y006753D02*
X016433Y006753D01*
X016536Y006911D02*
X018954Y006911D01*
X018954Y007070D02*
X016571Y007070D01*
X016555Y007228D02*
X018954Y007228D01*
X019025Y007387D02*
X016480Y007387D01*
X016270Y007545D02*
X019183Y007545D01*
X015795Y006594D02*
X022927Y006594D01*
X022927Y006436D02*
X015514Y006436D01*
X015721Y005485D02*
X015781Y005485D01*
X015781Y005326D02*
X015721Y005326D01*
X015721Y005168D02*
X015781Y005168D01*
X015781Y005009D02*
X015721Y005009D01*
X015721Y004851D02*
X015781Y004851D01*
X015781Y004692D02*
X015721Y004692D01*
X014777Y010557D02*
X014662Y010557D01*
X014662Y010715D02*
X014777Y010715D01*
X014777Y010874D02*
X014662Y010874D01*
X014662Y011191D02*
X014777Y011191D01*
X014777Y011349D02*
X014662Y011349D01*
X014662Y011508D02*
X014777Y011508D01*
X014008Y011508D02*
X008390Y011508D01*
X008587Y011349D02*
X013832Y011349D01*
X004244Y004851D02*
X004148Y004851D01*
X004148Y005009D02*
X000768Y005009D01*
X000768Y004851D02*
X003541Y004851D01*
X003541Y004692D02*
X000768Y004692D01*
X000768Y004534D02*
X003546Y004534D01*
X004148Y004534D02*
X004244Y004534D01*
X004244Y004692D02*
X004148Y004692D01*
X003541Y005168D02*
X000768Y005168D01*
X000768Y005326D02*
X003541Y005326D01*
X003541Y005485D02*
X000768Y005485D01*
X000768Y005643D02*
X003581Y005643D01*
X003953Y006436D02*
X000768Y006436D01*
X000768Y006594D02*
X003726Y006594D01*
X003620Y006753D02*
X000768Y006753D01*
X000768Y006911D02*
X003561Y006911D01*
X003561Y007070D02*
X000768Y007070D01*
X000768Y007228D02*
X003594Y007228D01*
X003662Y007387D02*
X000768Y007387D01*
X000768Y007545D02*
X003821Y007545D01*
X003561Y014361D02*
X000768Y014361D01*
X000768Y014519D02*
X003561Y014519D01*
X003561Y014678D02*
X000768Y014678D01*
X000768Y014836D02*
X003561Y014836D01*
X003561Y014995D02*
X000768Y014995D01*
X000768Y015153D02*
X003561Y015153D01*
X003561Y015312D02*
X000768Y015312D01*
X000768Y015470D02*
X003589Y015470D01*
X001044Y019750D02*
X000768Y019750D01*
X000768Y019908D02*
X000785Y019908D01*
D18*
X004196Y016869D02*
X016436Y016869D01*
X016460Y016858D02*
X020228Y016846D01*
X023487Y016904D01*
X015751Y015093D02*
X015408Y014900D01*
X004196Y014900D01*
X004196Y007022D02*
X015389Y007022D01*
X015751Y005093D02*
X023278Y005093D01*
X015389Y005054D02*
X004196Y005054D01*
D19*
X015389Y005054D02*
X015751Y005093D01*
X015389Y007022D02*
X015751Y007093D01*
X023278Y005093D02*
X023487Y004562D01*
X016460Y016858D02*
X015751Y017093D01*
X016436Y016869D01*
D20*
X020228Y016846D02*
X020365Y016709D01*
X020365Y011420D01*
M02*
